<?xml version="1.0" encoding="UTF-8"?>
<svg width="172" height="42" version="1.1" viewBox="0 0 168.4 41.13" xmlns="http://www.w3.org/2000/svg">
 <g transform="translate(-48.55 -62.64)">
  <g stroke="#aaa" stroke-width=".075">
   <g transform="matrix(1.312 0 0 1.312 -78.84 -21.82)" fill="#c4c4c4" font-family="'DM Sans'" letter-spacing="0px" word-spacing="0px">
    <text x="138.66125" y="83.737854" font-size="13.03px" font-weight="500" stroke="#000000" stroke-width=".1222" style="line-height:1.05" xml:space="preserve"><tspan x="138.66125" y="83.737854" rotate="0 0 0 0 0 0 0 0 0 0 0 0 0" fill="#c4c4c4" font-family="'DM Sans'" font-size="13.03px" font-weight="bold" stroke="#000000" stroke-width=".1222">REMY J. ALAN</tspan></text>
    <text x="131.91621" y="82.239098" font-size="4.896px" stroke-width=".06885" style="line-height:1.25" xml:space="preserve"><tspan x="131.91621" y="82.239098" fill="#c4c4c4" stroke-width=".06885"/></text>
   </g>
   <g transform="translate(-35.25)">
    <path d="m123.7 83.67c-0.0106-0.02152-0.018-0.04198-0.0229-0.06068 4e-3 0.04833 0.0314 0.07796 0.0229 0.06068" fill="#4c4d4f" stroke="none"/>
    <path d="m127.1 83.93c-0.0275-0.0021 0.108-0.02893 0.3175-0.2205 0.2088-0.1901 0.3302-0.3087 0.496-0.4741 0.1654-0.1655 0.5105-0.4995 0.5965-0.5292 0.0861-0.02963 0.3334-0.1302 0.484-0.1041 0.1506 0.02575 0.4329 0.0028 0.5073-0.01658 0.0741-0.01905-8e-3 0.05256-0.1192 0.09525-0.1115 0.0441-0.2836 0.04551-0.5302 0.06667-0.2459 0.02081-0.4322 0.08361-0.5542 0.1944-0.1221 0.1104-0.0487 0.09172-0.3013 0.3369-0.2529 0.2462-0.7796 0.6562-0.8964 0.6512" fill="#4c4d4f" stroke="none"/>
    <g>
     <g stroke-width=".075">
      <path d="m117.6 94.49c-0.2688 0.3563-0.6752 0.6188-1.113 0.7204-0.4396 0.0956-0.8936 0.04233-1.292-0.1125-0.0995-0.03951-0.1937-0.08855-0.29-0.1341-0.0893-0.05539-0.1806-0.1087-0.2671-0.1679-0.0868-0.06879-0.1556-0.115-0.255-0.2039l-0.1972-0.1891-0.1965-0.1891-0.194-0.2388-0.1894-0.2413-0.1506-0.2558c-0.4008-0.6844-0.5503-1.48-0.5218-2.214 0.0286-0.7373 0.1997-1.424 0.3994-2.059 0.2021-0.6368 0.4427-1.224 0.6682-1.78 0.0557-0.1379 0.1115-0.2745 0.1665-0.4103 0.0303-0.07161 0.0483-0.1252 0.0882-0.2099l0.0924-0.1937c0.1298-0.2635 0.2611-0.5006 0.3817-0.7348 0.2438-0.4639 0.4364-0.9056 0.4847-1.335 0.0466-0.4269-0.0699-0.8216-0.248-1.121 0.2208 0.266 0.4018 0.6608 0.4036 1.129-3.6e-4 0.4667-0.1633 0.9613-0.3704 1.452-0.1048 0.2476-0.211 0.4992-0.3182 0.7535l-0.0776 0.199c-0.0194 0.04621-0.0441 0.1316-0.0663 0.1954-0.0462 0.1401-0.0924 0.2808-0.1394 0.4226-0.188 0.5683-0.3916 1.161-0.5546 1.781-0.1616 0.6191-0.2896 1.269-0.29 1.922 3.6e-4 0.6516 0.1499 1.3 0.4925 1.854l0.1277 0.2078 0.1506 0.1813 0.1489 0.1834 0.2004 0.1845 0.2 0.1856 0.1753 0.133 0.1986 0.121c0.0699 0.02999 0.1386 0.06562 0.2092 0.09278 0.2836 0.1058 0.587 0.1326 0.864 0.07232 0.2741-0.06914 0.5154-0.2251 0.6879-0.4494 0.1118-0.1683 0.1676-0.2586 0.2395-0.4875 0.0504-0.1422 0.0501-0.2438 0.0194-0.35-0.0568-0.2106-0.2589-0.3895-0.4438-0.4974-0.1894-0.1122-0.3764-0.1602-0.5122-0.1743-0.1404-0.0095-0.2043 0.01517-0.2392 0.0314-0.0349 0.01975-0.0706 0.06985-0.0843 0.1284-0.0162 0.05609-0.0356 0.09031-0.0444 0.1411-0.0226 0.08855-0.066 0.1143-0.1157 0.127-0.0494 0.01305-0.1002 0.01164-0.1633-0.05433-0.0303-0.02575-0.0684-0.1048-0.091-0.2064-0.0229-0.09701-0.0349-0.2671 0.0882-0.4611 0.0642-0.09208 0.1609-0.176 0.2748-0.2304 0.1125-0.05186 0.2374-0.08079 0.3672-0.08996 0.2572-0.01235 0.5405 0.0381 0.8386 0.1842 0.2861 0.1503 0.6438 0.3852 0.8177 0.8841 0.0864 0.2434 0.0776 0.5521-0.0138 0.8036-0.0448 0.1714-0.1842 0.4851-0.3471 0.6992" fill="#262261" stroke="#2a256b"/>
      <path d="m117.7 75.62s-1e-3 0.1122-3e-3 0.3238c-7.1e-4 0.1055-2e-3 0.2364-3e-3 0.3898-7e-4 0.07726-1e-3 0.1602-2e-3 0.2484-4e-3 0.08819-0.0236 0.1817-0.0356 0.2812-0.0293 0.2011-0.0614 0.4237-0.0963 0.666-0.0614 0.2364-0.1408 0.49-0.2201 0.7659-0.0825 0.2745-0.2325 0.5426-0.3598 0.8428-0.1482 0.2879-0.3425 0.5719-0.5366 0.8759-0.8544 1.158-2.213 2.255-3.829 3.087-1.61 0.8597-3.445 1.535-5.294 2.177l0.0684-0.02223c-2.03 0.8664-4.125 1.484-5.829 2.359-0.2233 0.09807-0.4128 0.229-0.6159 0.3418-0.1965 0.1196-0.4071 0.2205-0.5792 0.3581-0.1792 0.1284-0.3573 0.2554-0.5337 0.381l-0.0663 0.04692-0.0166 0.01199c-0.018 0.01235 0.0205-0.01482 0.0145-0.01058l-4e-3 0.0039-9e-3 0.0071-0.036 0.02928-0.1446 0.1171-0.2864 0.2314c-0.3761 0.3073-0.7617 0.6075-1.107 0.9017-0.3031 0.2928-0.5983 0.5782-0.8841 0.8544-0.2925 0.2589-0.5472 0.5666-0.7976 0.8495-0.2466 0.2861-0.4985 0.5475-0.7123 0.8167-0.2032 0.2762-0.3962 0.5383-0.5779 0.7856-0.1806 0.2466-0.363 0.4692-0.489 0.7038-0.2783 0.4544-0.5115 0.8357-0.6932 1.132-0.1531 0.3147-0.2674 0.5405-0.3362 0.6653-0.1312 0.2392-0.2727 0.4657-0.4216 0.6798-0.1274 0.224-0.2561 0.4385-0.3962 0.6378-0.2773 0.3993-0.5958 0.7405-0.8555 1.044-0.5549 0.5898-1.174 0.9274-1.696 0.7938-0.5218-0.1334-0.8431-0.743-0.9158-1.684-0.0547-0.4752 0.0279-1.003 0.1669-1.58 0.0705-0.2879 0.1545-0.5881 0.2625-0.8915 0.1291-0.2914 0.2762-0.5891 0.4399-0.8862 0.0854-0.1556 0.2448-0.4269 0.4678-0.7969 0.2544-0.3418 0.5821-0.7821 0.9719-1.306 0.1852-0.266 0.4276-0.5147 0.6741-0.7881 0.248-0.2699 0.5119-0.557 0.7895-0.8594 0.2865-0.29 0.6121-0.5673 0.9373-0.8682 0.3288-0.297 0.6586-0.6114 1.059-0.8985 0.3856-0.2921 0.7839-0.5941 1.193-0.9038 0.3986-0.2674 0.7998-0.5119 1.214-0.7775l0.3115-0.1968 0.1566-0.09913 0.0395-0.02505 0.0388-0.02611 0.0229-0.0127 0.0924-0.05151c0.2462-0.1358 0.4946-0.273 0.7451-0.4113 0.2477-0.1475 0.5105-0.242 0.7684-0.3595 0.2596-0.1076 0.5189-0.2371 0.7831-0.3196 2.114-0.7758 4.268-1.128 6.227-1.705l0.0688-0.02258c1.886-0.4103 3.709-0.8442 5.308-1.464 1.609-0.5962 2.953-1.439 3.873-2.404 0.8985-0.9786 1.341-2.055 1.494-2.814 0.024-0.09525 0.0554-0.1838 0.0695-0.2706 0.0116-0.08749 0.0222-0.1693 0.0321-0.2459 0.0205-0.1524 0.0378-0.2819 0.0515-0.387 0.0279-0.2099 0.0427-0.3207 0.0427-0.3207" fill="#f7931d" stroke="#ffa220"/>
      <path d="m117 73.33s0.0621 0.08643 0.1785 0.2494c0.1199 0.1605 0.2875 0.4004 0.4851 0.7235 0.199 0.3217 0.423 0.7253 0.6255 1.222 0.1083 0.2448 0.1834 0.5228 0.2741 0.8128 0.0589 0.2977 0.1446 0.6114 0.1616 0.949 0.0476 0.3369 0.0275 0.6886 0.0226 1.057l-7.1e-4 0.03493-0.0138 0.07197-0.0127 0.06456-0.0254 0.1302c-0.0169 0.08714-0.0342 0.1753-0.0515 0.2639-0.0257 0.1743-0.0892 0.3648-0.1468 0.5567-0.2293 0.7691-0.5588 1.498-0.8897 2.243-0.1595 0.3725-0.332 0.7465-0.4674 1.123-0.0744 0.1884-0.1446 0.3771-0.1958 0.5659l-0.0864 0.2836-0.0455 0.1552-0.0427 0.1563c-0.0705 0.2254-0.0776 0.3715-0.1122 0.551-0.0173 0.1891-0.0416 0.3761-0.0385 0.5662-6e-3 0.3782 0.0282 0.7585 0.1164 1.124 0.1623 0.7338 0.5055 1.414 0.9744 1.945 0.2339 0.2653 0.4928 0.5016 0.7825 0.6876l0.1055 0.07232 0.0265 0.01834 0.0131 0.0092c0.019 0.01235-0.1454-0.0956-0.0713-0.04762l9e-3 0.0046 0.072 0.03775 0.2872 0.1485c0.0466 0.02364 0.0981 0.05221 0.1408 0.07126l0.0967 0.02611c0.0639 0.01799 0.1252 0.0374 0.1856 0.05927 0.5807 0.1704 1.173 0.1249 1.68-0.04904 0.5133-0.175 0.9412-0.5133 1.255-0.8798 0.3157-0.3715 0.5108-0.7835 0.6086-1.164l0.0198-0.07055 0.0102-0.03493 5e-3 -0.01693 2e-3 -0.0088c-0.048 0.1824-0.0123 0.04657-0.0229 0.08537l1e-3 -0.0064c0.0127-0.07303 0.0254-0.1446 0.0377-0.2159 0.0116-0.06879 0.0229-0.1369 0.0346-0.2043-0.0127-0.01199-0.0219-0.02152-0.0275-0.03069-6e-3 -0.0088-8e-3 -0.01658-7e-3 -0.02505-7.1e-4 -0.01199-0.0148-0.05186-0.0194-0.0755-0.019-0.05362-7e-3 -0.1094-0.0381-0.1556-0.1436-0.3997-0.357-0.5232-0.4248-0.581-0.0201-0.0127-0.0384-0.02681-0.055-0.04339l-0.0247-0.0254-0.0116-0.01411c0.0363 0.02046-0.0815-0.04657 0.0808 0.04586l-1e-3 -7.06e-4 -2e-3 -0.0014-5e-3 -0.0032-0.0106-6e-3 -0.0208-0.0127c-0.0533-0.03246-0.1076-0.06562-0.164-0.1005-9e-3 -0.0049-0.037-0.02364-0.03-0.01834l0.0194 0.01129 0.0208 0.0085c6e-3 0.0053 0.03-0.03457 0.0427-0.05115 0.0303-0.0441 0.0568-0.09172 0.0794-0.1415 0.0138-0.03281 0.0215-0.05891 0.0293-0.09066 8e-3 -0.03104 0.0131-0.0635 0.0162-0.09737l4e-3 -0.04868 3e-3 -0.01693c5e-3 -0.01693 1e-3 -0.06915 0-0.0702 1e-3 0.01235 4e-3 0.0194 6e-3 0.02187 8e-3 0.04163 0.0229 0.08431 0.0402 0.1164 0.0166 0.03387 0.055 0.1309 0.0907 0.1813l0.0138 0.02152-2e-3 -6e-3c-1e-3 -0.0049-4e-3 -0.0067-7e-3 -0.0074l-0.0201-0.0085c-0.0148-0.0063-0.031-0.0187-0.0557-0.0127-0.0878-0.01164-0.2222 0.04163-0.356 0.08467-0.2748 0.103-0.5712 0.2392-0.8414 0.2925-0.2716 0.05574-0.5186 0.03528-0.7165-0.08749-0.1979-0.1228-0.3344-0.3267-0.4022-0.6015-0.0649-0.2755-0.0737-0.6244 0.0773-1.07 0.0854-0.2247 0.1909-0.4713 0.4177-0.7437 0.2222-0.2653 0.5581-0.5694 1.081-0.7564 0.1316-0.04057 0.2692-0.07514 0.4099-0.1027 0.1397-0.02434 0.2826-0.02893 0.4286-0.03316 0.1506-0.0071 0.2755 0.01658 0.4163 0.03422 0.1348 0.01588 0.2773 0.04974 0.4262 0.1023 0.073 0.02399 0.146 0.05009 0.2187 0.07867l0.1083 0.0441 0.0543 0.02469c0.06 0.02752 0.1178 0.05468 0.1746 0.08114l0.0215 0.01058 0.0109 0.0053 0.0931 0.05221 0.0663 0.0441 0.1323 0.09066c0.0882 0.06174 0.176 0.1259 0.2625 0.1919 0.0882 0.06491 0.2046 0.1577 0.327 0.2992 0.1221 0.1397 0.2875 0.2977 0.4265 0.5119 0.1305 0.2177 0.3094 0.4547 0.417 0.7525 0.0593 0.1468 0.1238 0.3002 0.1778 0.4632 0.042 0.1665 0.0825 0.3411 0.1203 0.5228 0.0469 0.1796 0.0434 0.3754 0.0607 0.5729 3e-3 0.103 0.0141 0.1916 9e-3 0.3104-7e-3 0.1231-0.018 0.2487-0.0321 0.375-0.0141 0.1263-0.0321 0.254-0.0529 0.3817-0.0194 0.06914-0.0392 0.1393-0.0586 0.2106-0.0201 0.06879-0.0402 0.139-0.0603 0.2099l-0.0282 0.1058-7e-3 0.01764-0.0138 0.03528-0.0275 0.0702-0.0565 0.1418c-0.2984 0.7609-0.7909 1.525-1.483 2.162-0.6907 0.6325-1.579 1.157-2.609 1.375-1.024 0.2198-2.164 0.1397-3.171-0.3048-2.029-0.8823-3.266-2.903-3.46-4.93-0.0564-0.5059-0.0409-1.014 0.0275-1.508 0.0279-0.248 0.0868-0.4904 0.1415-0.7302 0.0713-0.2424 0.151-0.5221 0.2332-0.7006l0.1249-0.297 0.1394-0.3179c0.0885-0.2141 0.1908-0.4124 0.2956-0.6057 0.2004-0.3958 0.4219-0.7546 0.6283-1.111 0.4212-0.7003 0.8209-1.371 1.097-2.002 0.0699-0.1573 0.146-0.3069 0.1958-0.4861 0.0515-0.1588 0.102-0.3143 0.1517-0.4681 0.0427-0.327 0.1037-0.647 0.0963-0.9564 0.048-1.246-0.3669-2.263-0.6615-2.934-0.1531-0.3383-0.2907-0.5994-0.3898-0.7729-0.0952-0.176-0.1464-0.2695-0.1464-0.2695" fill="#7f3f98" stroke="#8c45a7"/>
      <path d="m113.3 74.09c-0.061-0.1101-0.1217-0.2127-0.1824-0.3083-0.0663-0.09843-0.164-0.1993-0.2424-0.2836-0.0794-0.09137-0.1686-0.1482-0.2515-0.2032-0.0847-0.05221-0.1595-0.1055-0.2424-0.1362-0.3235-0.1344-0.6004-0.1235-0.8139-0.05609-0.441 0.1602-0.6445 0.5429-0.8082 0.9384-0.3055 0.8001-0.5253 1.613-0.7602 1.517-0.1404-0.0448-0.2145-0.616-0.6294-1.353-0.206-0.3651-0.4971-0.7698-0.9049-1.137-0.2036-0.1852-0.4367-0.3602-0.701-0.5154-0.1319-0.07514-0.2738-0.1552-0.4219-0.2173l-0.2293-0.09313-0.1196-0.04445-4e-3 -0.0011c-0.0166 0.0039 0.031-0.01023-0.0378 0.0078l-8e-3 -0.0018-0.0148-0.0035-0.0303-0.0078-0.0603-0.01446c-0.5366-0.2275-1.669-0.1136-2.526 0.5987-0.4519 0.3507-0.804 0.8731-1.052 1.46-0.1065 0.2907-0.1954 0.6047-0.247 0.9218-0.0187 0.157-0.0342 0.3171-0.0462 0.4805l-8e-3 0.1228-3e-3 0.04656-3.5e-4 0.0078 1e-3 0.08925 2e-3 0.04551 0.0102 0.1849 0.0134 0.187 5e-3 0.05009 0.0138 0.08114 0.0303 0.1633c0.0434 0.2124 0.0981 0.454 0.163 0.6417 0.1291 0.3256 0.272 0.6593 0.4597 0.9476 0.3651 0.5962 0.8259 1.132 1.417 1.602 0.1376 0.121 0.3094 0.229 0.4674 0.339l0.1217 0.08043 0.0307 0.02011c0.0254 0.02364-0.0469-0.0448 0.0596 0.05327l7e-3 0.0032 0.0145 0.0071 0.0586 0.02681c0.078 0.03528 0.157 0.0702 0.2371 0.1065 0.1594 0.06773 0.3235 0.1379 0.4914 0.2096 0.1824 0.06985 0.3859 0.1344 0.5782 0.1944 0.7669 0.2554 1.615 0.2949 2.417 0.1979-0.1739 0.07373-0.3814 0.1446-0.6251 0.2078-0.1214 0.0314-0.2522 0.06068-0.3926 0.08714-0.14 0.02681-0.2769 0.02611-0.429 0.03422-0.1506 0.0056-0.3097 0.0071-0.477 0.0028-0.1686-7.05e-4 -0.3432-0.01094-0.5207-0.04833-0.1796-0.03105-0.3676-0.0702-0.5641-0.1171l-0.3002-0.0762-0.2628-0.07303c-0.1722-0.05256-0.3464-0.1051-0.5218-0.158l-0.1326-0.04304-0.0332-0.01058-0.0166-0.0056c-0.1824-0.169-0.0536-0.04833-0.0952-0.08678l-5e-3 -0.0028-0.01-0.0049-0.0762-0.04233-0.3094-0.1799c-0.4131-0.2522-0.8026-0.5465-1.178-0.8978-0.3761-0.35-0.7317-0.7602-1.06-1.258-0.1658-0.2466-0.3118-0.5503-0.4586-0.8424-0.0804-0.2201-0.1528-0.4544-0.2145-0.6918-0.0307-0.1189-0.0589-0.2392-0.0847-0.3602l-0.0438-0.1909-0.0367-0.1616-0.027-0.1217-4e-3 -0.02011-2e-3 -0.01023-1e-3 -0.0053c3e-3 0.1295-5e-3 -0.1813-4e-3 -0.1531-0.01-0.1799-0.0169-0.363-0.019-0.5472-0.0201-0.3591 0.037-0.7676 0.1027-1.169 0.0236-0.1968 0.0949-0.4128 0.1598-0.6227 0.0706-0.2117 0.133-0.4205 0.23-0.6304 0.217-0.4205 0.4272-0.8474 0.7613-1.22 0.1594-0.1877 0.3203-0.3806 0.4995-0.5465 0.1845-0.1584 0.3768-0.3115 0.5736-0.4568 0.1012-0.07303 0.1923-0.1436 0.3055-0.2127 0.1221-0.06914 0.2466-0.1355 0.3725-0.1986 0.2526-0.127 0.5129-0.2413 0.774-0.3404 0.0811-0.03245 0.0945-0.03104 0.1259-0.03916l0.0882-0.02011 0.1771-0.03881 0.1782-0.03704 0.0893-0.01729 0.0222-0.0042 0.0113-0.0021 6e-3 -0.0011c-0.0589 0.01658 0.533-0.1475 0.2861-0.07867l0.061-0.0064c0.3284-0.03916 0.6548-0.05644 0.9776-0.05503 1.287 0.02152 2.589 0.3044 3.802 1.046 0.5973 0.3697 1.166 0.8647 1.569 1.489 0.2046 0.3122 0.3454 0.6459 0.4445 1.004 0.0448 0.1884 0.0928 0.3856 0.0882 0.5398-0.018 0.1439-0.036 0.29-0.055 0.4389" stroke="#444"/>
      <path d="m109.1 65.7c-0.2205-0.04374-0.4304-0.08149-0.6297-0.1139-0.1923-0.04198-0.4191-0.02575-0.6071-0.03351-0.3912-0.02117-0.7165 0.06844-1.003 0.1235-0.2829 0.07585-0.5168 0.1919-0.7123 0.2882-0.193 0.109-0.3408 0.2427-0.4586 0.3577-0.2374 0.2275-0.3281 0.4953-0.3535 0.7165-0.0229 0.2275 0.0268 0.4389 0.1034 0.6385 0.1563 0.3976 0.4015 0.7574 0.4978 1.058 0.0497 0.1489 0.0667 0.2826 0.0286 0.3916-0.0378 0.121-0.1281 0.2279-0.3097 0.3108-0.3528 0.2096-1.046-0.0014-2.184 0.1094-0.569 0.0508-1.229 0.1979-1.972 0.5144-0.3598 0.1672-0.7472 0.3718-1.131 0.6445-0.1986 0.1326-0.3785 0.2917-0.5775 0.4576l-0.0737 0.06385c-0.0339 0.04657-0.0476 0.05256-0.0723 0.08114l-0.133 0.1415c-0.0882 0.09878-0.1806 0.1827-0.2618 0.3126-0.3595 0.4918-0.6273 1.084-0.7345 1.824-0.1055 0.731-9e-3 1.574 0.3073 2.375 0.3164 0.8005 0.8297 1.553 1.472 2.213 0.641 0.6615 1.415 1.245 2.299 1.688 0.2625 0.1238 0.5323 0.2438 0.8082 0.3591 0.2586 0.09419 0.5013 0.1619 0.7602 0.2417 0.5126 0.1714 1.039 0.2417 1.582 0.3492 1.087 0.1425 2.237 0.2025 3.454 0.08608 1.233-0.1143 2.481-0.4551 3.709-0.9521 1.224-0.5073 2.451-1.223 3.463-2.19-0.6576 0.9786-2.192 2.345-4.618 3.255-0.1563 0.05715-0.3136 0.1139-0.4724 0.1718-0.1464 0.04939-0.2942 0.09948-0.4431 0.1499l-0.2244 0.07373-0.1129 0.03669-0.0568 0.01834c0.0138-3.53e-4 -0.1429 0.0099-0.0804 0.0064l-8e-3 0.0018-0.0162 0.0035-0.0328 0.0074c-0.176 0.03598-0.3538 0.07303-0.5327 0.1094-0.1803 0.03528-0.3658 0.07373-0.5507 0.103-0.1842 0.02258-0.369 0.04516-0.5556 0.06809-0.1894 0.02046-0.3803 0.04163-0.5722 0.06244-0.1923 0.0088-0.3852 0.01764-0.58 0.02611-0.3919 0.01799-0.7934 0.02752-1.202 0.0021-0.4092-0.01623-0.8262-0.03457-1.256-0.1002-0.2152-0.02963-0.4318-0.05927-0.6491-0.08925-0.2177-0.02928-0.4452-0.09243-0.6703-0.1411-0.2272-0.05503-0.4551-0.1104-0.684-0.1655-0.2656-0.08749-0.5517-0.1972-0.8283-0.3062l-0.418-0.1725-0.2032-0.08819-0.1319-0.06632c-0.1757-0.08961-0.3521-0.1796-0.5288-0.2699l-0.0667-0.03387-0.0328-0.01729-0.0166-0.0088-8e-3 -0.0042c-0.0494-0.0321 0.0995 0.06562-0.1132-0.07303l-0.1608-0.102-0.3221-0.2085c-0.2148-0.1404-0.4276-0.3059-0.6406-0.4636-0.8442-0.6625-1.685-1.527-2.345-2.693-0.3157-0.5983-0.5969-1.251-0.7451-1.983-0.1499-0.7218-0.2036-1.497-0.1027-2.234 0.031-0.3764 0.1281-0.7225 0.2113-1.078 0.0586-0.1944 0.1281-0.3948 0.1993-0.5888l0.1111-0.2903c0.0339-0.08043 0.0515-0.1055 0.0783-0.1609l0.1489-0.2893 0.0183-0.03598 5e-3 -0.0095c0.1736-0.3754 0.0522-0.1101 0.0924-0.1968l0.0138-0.02223 0.0547-0.08819 0.1104-0.1753c0.1464-0.2353 0.2977-0.4646 0.4625-0.6802 0.6445-0.877 1.394-1.654 2.245-2.323 0.8494-0.6671 1.803-1.228 2.849-1.599 1.04-0.3725 2.173-0.5503 3.258-0.4452l0.4004 0.04127c0.1337 0.02505 0.266 0.05644 0.3958 0.08643 0.26 0.06244 0.5073 0.1168 0.7701 0.2268l0.3736 0.1499c0.1235 0.05045 0.2402 0.1012 0.3306 0.1679 0.1923 0.1256 0.3859 0.2529 0.5821 0.381" fill="#78501f" stroke="#845822"/>
     </g>
     <g stroke-width=".075">
      <path d="m92.5 75.23c0.1355 0.2596 0.2877 0.564 0.4765 0.8925 0.205 0.3171 0.4105 0.6843 0.6878 1.04 0.5207 0.738 1.211 1.52 2.05 2.264 0.8378 0.7451 1.832 1.448 2.947 2.003 0.132 0.06648 0.2662 0.1305 0.4015 0.1922-0.8614-0.01266-1.703-0.02557-2.507-0.03721-0.2906-0.0042-0.5702-0.0075-0.8511-0.01137-0.8099-0.4047-1.616-0.8176-2.31-1.234-0.2117-0.1252-0.4268-0.2289-0.6124-0.3566-0.1711-0.115-0.3482-0.2335-0.5302-0.3555-0.3323-0.2208-0.6202-0.4069-0.8449-0.5452 0.199 0.17 0.4646 0.386 0.7793 0.6361 0.1739 0.1365 0.3433 0.2695 0.507 0.3979 0.1789 0.1415 0.3881 0.2569 0.5948 0.3938 0.5392 0.3619 1.158 0.7156 1.797 1.055-0.1089-0.0014-0.2189-0.0031-0.3261-0.0047-0.217 5e-3 -0.4314 0.0099-0.6413 0.01447-0.5068 0.01743-0.9873 0.05784-1.445 0.1116-0.6628-0.3052-1.307-0.6914-1.906-0.9839-0.1774-0.0822-0.344-0.169-0.5106-0.2356-0.1531-0.05397-0.3129-0.1111-0.479-0.17-0.3027-0.09384-0.5768-0.1174-0.7772-0.1566 0.1961 0.07091 0.4597 0.123 0.7483 0.2398 0.1584 0.06985 0.3102 0.137 0.4563 0.2015 0.1588 0.07514 0.3188 0.1714 0.4889 0.261 0.4898 0.2693 1.015 0.6035 1.58 0.8945-1.183 0.1664-2.169 0.4287-2.922 0.679-0.7154-0.1673-1.447-0.2184-2.097-0.2108-0.8146 0.0056-1.51 0.1254-1.913 0.2816 0.4205-0.09207 1.108-0.1519 1.91-0.1173 0.5279 0.02004 1.11 0.0784 1.685 0.1912-0.5098 0.1872-0.8856 0.356-1.068 0.4491-0.4812 0.2396-0.9109 0.5395-1.281 0.8661-0.7955 0.07169-1.555 0.3611-2.169 0.6966-0.7574 0.4113-1.306 0.9231-1.566 1.292 0.3143-0.3238 0.8874-0.7742 1.646-1.139 0.5308-0.256 1.156-0.4813 1.802-0.5783-0.3772 0.3844-0.6702 0.7937-0.8485 1.186-0.02033 0.04618-0.0348 0.08939-0.05271 0.1344-0.6019 0.316-1.001 0.9066-1.256 1.423-0.2843 0.58-0.4037 1.124-0.4284 1.461 0.0762-0.3291 0.2381-0.8503 0.5436-1.401 0.2431-0.4376 0.5882-0.9194 1.048-1.221-0.08055 0.2639-0.117 0.5056-0.09508 0.7199 0.0254 0.3112 0.1445 0.5389 0.3442 0.6832 0.06735 0.04718 0.1411 0.08134 0.2176 0.1096-0.01586 0.1766 0.0112 0.3566 0.0708 0.5137 0.09278 0.2558 0.2413 0.4725 0.3958 0.6553 0.309 0.3683 0.6442 0.6092 0.8604 0.7359-0.1944-0.1584-0.5034-0.4233-0.785-0.7958-0.1411-0.1849-0.2751-0.3987-0.3545-0.6361-0.04793-0.1388-0.06867-0.2871-0.05891-0.4315 0.3328 0.0772 0.7357 0.01064 1.167-0.1075 0.0109 0.0388 0.02447 0.07847 0.04858 0.1189 0.0314 0.0702 0.07388 0.1459 0.1406 0.2186 0.1947 0.2342 0.4727 0.3753 0.7436 0.4646 0.273 0.0889 0.5482 0.1342 0.8036 0.1571 0.5122 0.04304 0.9492 0.01544 1.218-0.01137-0.2699-0.01517-0.7059-0.02425-1.206-0.09198-0.4861-0.07479-1.095-0.2009-1.448-0.6108-0.05856-0.0635-0.09545-0.1281-0.124-0.1881-0.02011-0.03133-0.0328-0.06164-0.04289-0.09043 0.0048-0.0014 0.0092-0.0022 0.01395-0.0036 0.2957-0.08918 0.6128-0.2063 0.9457-0.3421 0.1485 0.06314 0.3871 0.1829 0.9064 0.2594 0.8544 0.139 1.742 0.04165 2.48-0.1478 0.7429-0.1803 1.332-0.4646 1.692-0.6403-0.3845 0.1185-0.9888 0.3509-1.726 0.4909-0.731 0.1496-1.596 0.2181-2.407 0.08578-0.3173-0.04422-0.5367-0.1042-0.6997-0.1504 0.3421-0.1468 0.6998-0.3125 1.08-0.5028 0.2074-0.1115 0.731-0.3962 1.554-0.7261 0.4089-0.1711 0.9034-0.3272 1.458-0.492 0.5616-0.1506 1.187-0.292 1.843-0.3953 0.0935-0.012 0.1883-0.02434 0.2832-0.03669l0.1426-0.01912 0.0723-0.0088 0.0543-0.0078 9e-3 -1e-3c0.0176-0.0014-0.1198 0.0056-0.0574 0.0021 0.1968-0.01941 0.3968-0.0388 0.5989-0.05891 0.4043-0.04022 0.8196-0.08185 1.244-0.1245 0.8449-0.08572 1.728-0.1754 2.636-0.2672 0.2261-0.02328 0.4535-0.04664 0.6821-0.07028 0.2254-0.0314 0.4516-0.06298 0.6795-0.09508 0.4544-0.06491 0.913-0.1299 1.374-0.1959 0.9215-0.1316 1.852-0.2647 2.78-0.3974 1.91-0.32 3.722-0.6721 5.439-1.202 0.4254-0.1309 0.8469-0.2527 1.247-0.385 0.3849-0.1538 0.7612-0.3042 1.127-0.4506 0.1824-0.07338 0.3631-0.1456 0.5405-0.2165l0.1323-0.05323 0.0899-0.03514 0.0646-0.03256c0.0861-0.04339 0.1715-0.08566 0.2558-0.1276 0.3362-0.1722 0.652-0.3521 0.9519-0.5271 1.195-0.7108 2.102-1.455 2.593-2.102 0.2494-0.3196 0.3719-0.6193 0.4382-0.8222 0.0455-0.2067 0.0589-0.3188 0.0589-0.3188s-0.0271 0.1099-0.0977 0.3085c-0.0896 0.188-0.2392 0.4562-0.5157 0.7328-0.5433 0.5584-1.5 1.164-2.732 1.706-0.3094 0.133-0.6331 0.2679-0.9736 0.3917-0.0854 0.03069-0.1715 0.06146-0.2579 0.0925l-0.0651 0.02274c-8e-3 0.0029 0.0395-0.015 0.0155-0.0062l-9e-3 0.0021-0.0176 0.0052-0.0341 0.0088-0.138 0.03617c-0.1848 0.04904-0.3723 0.09889-0.5628 0.1493-0.3814 0.1009-0.773 0.2051-1.174 0.3116-0.3997 0.07867-0.8066 0.1416-1.219 0.215-1.635 0.2977-3.504 0.4344-5.307 0.5183-0.9366 0.02152-1.877 0.04359-2.807 0.06511-0.3684 0.0087-0.7337 0.01753-1.098 0.02636-1.801-0.5182-3.47-1.462-4.781-2.527-0.8488-0.6802-1.572-1.397-2.144-2.077-0.302-0.327-0.5367-0.667-0.7752-0.9581-0.2-0.2798-0.3955-0.5524-0.586-0.8191z" fill="#bf1e2d" stroke="#d22132"/>
      <path d="m112.6 83.03c-0.6925 0.6586-1.673 1.417-2.943 2.09-1.27 0.6773-2.801 1.285-4.466 1.968-0.8312 0.3429-1.695 0.7167-2.556 1.166-0.4346 0.2166-0.8576 0.4731-1.287 0.7328-0.2124 0.145-0.4256 0.2903-0.6387 0.4356-0.2127 0.1471-0.3903 0.3037-0.5875 0.4568-0.7994 0.6604-1.52 1.393-2.151 2.241-0.6084 0.829-1.101 1.727-1.386 2.791-0.4624 0.3519-0.9373 0.6014-1.193 0.7302 0.2542-0.08196 0.7052-0.2766 1.157-0.5824-0.0257 0.1392-0.0506 0.2766-0.0749 0.4088-0.0134 0.07479-0.0272 0.1483-0.0403 0.2207l-0.0196 0.108-8e-3 0.06098-3e-3 0.02842-6e-3 0.05529c-0.0299 0.2815-0.0463 0.5486-0.0522 0.8025-0.2481 0.2826-0.5343 0.5252-0.8299 0.6904-0.0984 0.06456-0.1987 0.1162-0.2992 0.1561-0.0991 0.04339-0.1912 0.08872-0.2801 0.1251-0.1397 0.04833-0.2926 0.1024-0.4563 0.1592 0.1697-0.03846 0.3285-0.07484 0.4739-0.108 0.0924-0.02893 0.1896-0.06767 0.293-0.1054 0.1055-0.03422 0.211-0.08108 0.3157-0.1421 0.2747-0.1355 0.5421-0.3436 0.7814-0.587-2e-3 0.4684 0.0342 0.8894 0.109 1.258 0.0256 0.1326 0.0585 0.2561 0.0946 0.3752-0.1782 0.2977-0.4021 0.5646-0.6299 0.7803-0.3771 0.3637-0.7702 0.5936-1.027 0.708 0.2716-0.073 0.694-0.2746 1.1-0.6284 0.2177-0.1867 0.4328-0.4193 0.6134-0.6847 0.1322 0.3654 0.3096 0.6554 0.4976 0.8645-3e-3 0.1773-0.0223 0.3488-0.0791 0.5028-0.013 0.0416-0.0273 0.0856-0.0418 0.1307-0.0211 0.0363-0.0433 0.0745-0.0662 0.1137-0.0452 0.0727-0.0797 0.1485-0.1266 0.2088-0.0762 0.09-0.1598 0.1889-0.2501 0.2951 0.1023-0.0967 0.1983-0.1859 0.2847-0.2677 0.0525-0.0575 0.094-0.1323 0.1452-0.2046 0.0265-0.0395 0.0522-0.0784 0.0765-0.1147 0.0176-0.047 0.035-0.0914 0.0512-0.1344 0.0568-0.1328 0.0875-0.2793 0.1013-0.4315 0.0511 0.0486 0.1024 0.0928 0.1535 0.1292 0.0749 0.0501 0.138 0.0936 0.2026 0.1302 0.0578 0.0686 0.1268 0.14 0.2181 0.2124 0.5253 0.3785 1.183 0.4689 1.727 0.5137 0.5507 0.0378 1.02 8e-3 1.31-0.0207-0.2907-0.0166-0.7595-0.0255-1.3-0.0904-0.5028-0.065-1.097-0.1715-1.561-0.4739 0.0618 5e-3 0.1068-5e-3 0.1504-5e-3 0.1242-0.0194 0.1654-0.0753 0.1897-0.1416 0.0247-0.0653 0.0293-0.1349-0.0522-0.2294-0.0208-0.024-0.0467-0.0497-0.0791-0.0765-0.0346-0.0265-0.073-0.0572-0.0956-0.0925-0.0283-0.0335-0.0599-0.0688-0.0966-0.1033-0.0364-0.037-0.0754-0.0961-0.122-0.1473-0.0407-0.051-0.0829-0.1126-0.1245-0.1824 0.2777 0.1588 0.5688 0.2693 0.847 0.3447 0.6096 0.1556 1.151 0.165 1.477 0.123-0.3288-9e-3 -0.8574-0.0631-1.442-0.2444-0.29-0.0942-0.5931-0.2226-0.8708-0.4025-0.0529-0.0341-0.1036-0.0725-0.154-0.1111-0.0822-0.206-0.1539-0.4679-0.1979-0.8031-0.0444-0.3358-0.0598-0.7409-0.0372-1.215 0.0113-0.2378 0.0317-0.4923 0.0641-0.7653l6e-3 -0.05168 3e-3 -0.02585 1e-3 -0.01291 0.0171-0.08785c5e-3 -0.02689 0.0104-0.05449 0.0155-0.08165 0.1226 0.4919 0.3196 0.9572 0.6129 1.316 0.2244 0.2741 0.4902 0.478 0.7498 0.5958 0.1305 0.05538 0.258 0.09472 0.3716 0.1251 0.1009 0.0141 0.205 0.02927 0.3126 0.04444-0.1037-0.02892-0.2041-0.05636-0.3018-0.08423-0.108-0.04198-0.2265-0.09153-0.3468-0.155-0.2392-0.1341-0.4756-0.3425-0.6739-0.6113-0.3431-0.4645-0.5369-1.1-0.6289-1.741 6e-3 -0.03089 0.0112-0.05966 0.017-0.09095l0.2046-0.6315c0.0794-0.2117 0.1877-0.4253 0.2791-0.6387 0.2134-0.418 0.4531-0.8274 0.7364-1.212 0.0124-0.0172 0.0267-0.0335 0.0393-0.05064-0.0386 0.4709 0.0312 0.9418 0.1773 1.335 0.2159 0.6152 0.5842 1.051 0.8439 1.265-0.224-0.2519-0.5431-0.7028-0.7209-1.304-0.1484-0.4729-0.191-1.041-0.0811-1.579 0.5027-0.6415 1.08-1.243 1.683-1.766 0.0576-0.04687 0.1146-0.09668 0.1721-0.1457-0.1717 0.4184-0.2481 0.8665-0.2765 1.262-0.0413 0.5528-4.5e-4 1.023 0.0351 1.312 0.01-0.2914 8e-3 -0.7606 0.076-1.301 0.059-0.4844 0.1828-1.037 0.448-1.504 0.0367-0.029 0.0734-0.06136 0.1101-0.08785l0.5607-0.4057c0.3951-0.2544 0.7876-0.5129 1.198-0.7359 0.8107-0.4621 1.638-0.864 2.447-1.246 1.616-0.7595 3.142-1.483 4.378-2.283 1.24-0.7973 2.155-1.686 2.735-2.441z" fill="#fff200" stroke="#ff0"/>
      <path d="m117.2 73.44s0.0615 0.3724 0.1695 1.027c0.0918 0.6491 0.2495 1.61 0.0393 2.687-0.0127 0.1365-0.064 0.2682-0.1085 0.4026-0.0437 0.1337-0.0884 0.2706-0.1344 0.4093-0.1309 0.2642-0.259 0.5386-0.4181 0.8067-0.1842 0.2554-0.3558 0.5391-0.5576 0.785-0.2244 0.2582-0.4423 0.563-0.6868 0.7958-0.9423 1.002-2.143 1.957-3.397 2.852l-0.955 0.6713-0.4826 0.3333-0.1199 0.0832-0.03 0.02067-0.0594 0.04651-0.0589 0.04393-0.2336 0.1772c-0.6177 0.4628-1.252 0.9685-1.842 1.457-1.189 0.9871-2.275 2.013-3.16 3.033-0.429 0.4907-0.8061 0.9827-1.131 1.456-0.4754 0.0195-0.9302 4e-3 -1.158 0.02222 0.217 0.0164 0.6521 0.05617 1.109 0.04909-0.3258 0.4805-0.598 0.9408-0.8124 1.359-0.1069 0.2159-0.2051 0.4135-0.294 0.5927-3e-3 0.0066-4e-3 0.01106-7e-3 0.01757-0.1402 0.03408-0.283 0.0686-0.4144 0.1003-0.4011 0.09772-0.7391 0.2082-0.9472 0.2749 0.218-0.03422 0.5601-0.1158 0.9658-0.1928 0.1109-0.02085 0.2346-0.04795 0.3535-0.07235-0.0528 0.1378-0.1058 0.2754-0.1494 0.3891-0.1168 0.3044-0.1965 0.5302-0.2201 0.6702-0.0624 0.273-0.1119 0.5422-0.1468 0.8025-0.0151 0.2667-8e-3 0.5281 5e-3 0.7726 9e-3 0.1224 0.014 0.2407 0.0341 0.356 0.0254 0.1161 0.0526 0.2275 0.0822 0.3343 0.0596 0.2138 0.1276 0.4087 0.202 0.5808 0.3598 0.6879 0.8129 0.9935 1.208 0.894 0.4043-0.1002 0.6995-0.5422 0.9002-1.073 0.0649-0.1358 0.1229-0.2776 0.1716-0.4258 0.0243-0.07373 0.0462-0.1491 0.0656-0.2263 0.0307-0.08396 0.0593-0.1626 0.0858-0.2356 0.0568-0.1598 0.0981-0.3253 0.138-0.4971 0.061-0.1718 0.1117-0.3495 0.1519-0.5354 1e-3 -0.01151 8e-3 -0.03342 0.0108-0.04703 0.1229 0.3833 0.2956 0.7395 0.5307 1.027 0.2244 0.2741 0.4902 0.4785 0.7498 0.5963 0.1305 0.05538 0.258 0.0942 0.3716 0.1245 0.1009 0.0141 0.205 0.02927 0.3126 0.04444-0.1037-0.02892-0.2041-0.05636-0.3018-0.08423-0.108-0.04198-0.2264-0.09101-0.3468-0.1545-0.2392-0.1341-0.4756-0.343-0.6739-0.6118-0.2635-0.3567-0.4377-0.8146-0.5467-1.298 8e-3 -0.0273 0.0134-0.04649 0.0222-0.07596 0.031-0.1118 0.0668-0.2397 0.107-0.3829 0.0543-0.1408 0.1148-0.2958 0.1804-0.4651 0.1922-0.4881 0.4797-1.089 0.8775-1.751 0.0146 0.3352 0.0792 0.6597 0.1845 0.9431 0.2159 0.6156 0.5842 1.051 0.8439 1.264-0.224-0.2515-0.5431-0.7023-0.7209-1.304-0.1116-0.3552-0.1634-0.765-0.1364-1.175 0.1062-0.168 0.2114-0.3353 0.3323-0.5095 0.3887-0.5653 0.8563-1.16 1.373-1.766-0.155 0.4011-0.2262 0.825-0.2532 1.201-0.0413 0.5528-9.8e-4 1.023 0.0346 1.312 9e-3 -0.2914 8e-3 -0.7604 0.0765-1.3 0.0653-0.5366 0.208-1.157 0.5364-1.652 0.0324-0.04684 0.06-0.08157 0.0894-0.1204 0.2286-0.255 0.465-0.5116 0.71-0.7684 0.5129-0.5359 1.029-1.059 1.6-1.603l0.2108-0.2036 0.0527-0.05064 0.0129-0.01292c-0.0378 0.03089-0.0209 0.01684-0.015 0.01189l0.0269-0.02377 0.1106-0.09767 0.4424-0.3912 0.8852-0.7938c1.177-1.076 2.299-2.203 3.202-3.433 0.2431-0.3034 0.4033-0.6036 0.6005-0.8961 0.2014-0.3182 0.3455-0.6378 0.5106-0.9415 0.14-0.3168 0.2471-0.6422 0.3519-0.9477 0.0321-0.1609 0.0641-0.3188 0.0951-0.4734 0.0303-0.1542 0.0661-0.3039 0.0631-0.4553 0.0469-0.6004-8e-3 -1.142-0.0961-1.604-0.0819-0.465-0.193-0.856-0.2801-1.178-0.1877-0.6375-0.2951-0.9994-0.2951-0.9994z" fill="#009444" stroke="#00a34b"/>
     </g>
     <g stroke-width=".075">
      <path d="m118.2 86.44c-0.1418-0.2734-0.2399-0.5655-0.2967-0.8654l-0.0197-0.1125-5e-3 -0.02858-5e-3 -0.04022-4e-3 -0.05221-0.0176-0.2081c-0.0169-0.133-0.0113-0.2907-0.01-0.442 0.0155-0.599 0.1319-1.157 0.2635-1.698 0.1295-0.5366 0.2847-1.057 0.393-1.561 0.1108-0.5101 0.2018-1.014 0.2773-1.501 0.1475-0.9744 0.2364-1.889 0.1919-2.679-0.0254-0.3923-0.0847-0.7592-0.2318-1.049-0.0716-0.1464-0.1799-0.2586-0.3052-0.3298-0.1256-0.07832-0.272-0.07902-0.4032-0.08008 0.1277-0.0187 0.2808-0.04092 0.4286 0.0254 0.1464 0.05821 0.2861 0.1732 0.381 0.3235 0.1961 0.2988 0.2949 0.6812 0.3552 1.087 0.1157 0.8163 0.085 1.755-0.0148 2.754-0.0522 0.4999-0.1221 1.015-0.2166 1.542-0.0938 0.5334-0.2332 1.055-0.3468 1.587-0.1157 0.5263-0.2127 1.065-0.2187 1.58 7e-4 0.1266-7e-3 0.248 0.012 0.3919l0.0194 0.2081 5e-3 0.05186 1e-3 0.01305 3.6e-4 0.0032c-3e-3 -0.02646-7.1e-4 -0.0056-1e-3 -0.01094l1e-3 6e-3 5e-3 0.02293 0.0173 0.09278c0.048 0.2462 0.1302 0.4865 0.2431 0.7052 0.1612 0.3009 0.3627 0.5151 0.5623 0.6597l0.0155 0.01129 7e-3 0.0063c0.3076 0.2575 0.6357 0.3754 0.8477 0.3997 0.2187 0.02611 0.3366-0.02399 0.4226-0.07373 0.0434-0.02399 0.0677-0.0448 0.102-0.06103 0.031-0.02999 0.0568-0.05009 0.0797-0.06174 0.0455-0.02328 0.078-0.01588 0.108-7.06e-4 0.03 0.01552 0.055 0.0374 0.0632 0.08819 4e-3 0.0254 4e-3 0.05821-3e-3 0.1009-0.018 0.04621-0.0455 0.1196-0.1006 0.188-0.0967 0.1401-0.351 0.3052-0.6957 0.2988-0.3418-0.0049-0.7454-0.1203-1.18-0.4583l0.0229 0.01729c-0.2794-0.1873-0.55-0.4741-0.7504-0.8502" fill="#7f3f98" stroke="#aaa"/>
      <path d="m115.7 81.98s-0.066 0.2117-0.2057 0.5764c-0.1376 0.3683-0.368 0.8795-0.6752 1.484-0.6092 1.21-1.573 2.756-2.454 4.352-0.4371 0.799-0.8551 1.612-1.175 2.401-0.3232 0.7885-0.5539 1.549-0.6699 2.217-0.2413 1.344 0.0127 2.254 0.0543 2.479 0.0811 0.459 0.1591 0.8795 0.1411 1.247 7e-3 0.3556-0.0811 0.6579-0.29 0.7814-0.2078 0.1235-0.508 0.0321-0.8336-0.2536-0.3002-0.2946-0.6234-0.7973-0.7387-1.427-0.0173-0.07726-0.0459-0.2127-0.0586-0.4015-0.0191-0.1884-0.0416-0.4265-0.0332-0.7077 2e-3 -0.5602 0.0868-1.287 0.3168-2.06 0.4466-1.563 1.456-3.243 2.544-4.745 1.087-1.51 2.216-2.908 2.961-4.023 0.374-0.5549 0.6636-1.031 0.8424-1.374 0.1827-0.3436 0.2748-0.5461 0.2748-0.5461" fill="#1b75bc" stroke="#1e81cf"/>
      <path d="m117.7 80.71c-0.031 0.1041-0.3888 0.4272-0.4618 0.3694-0.0723-0.05786 0.108-0.1055 0.1404-0.4974 0.0325-0.393 0.1076-1.065 0.1993-1.376 0.0917-0.3119 0.5373-1.407 0.6096-1.35 0 0-0.0843 0.1185-0.1602 0.7909-0.0741 0.6727-0.1016 1.159-0.1979 1.453-0.0967 0.2939-0.0991 0.5059-0.1295 0.61m13.56-2.947c-0.1182-0.235-0.677-1.055-0.883-1.238-0.2064-0.1849-0.1757-0.1778-0.2314-0.2501-0.054-0.07232-0.0977-0.07585-0.0533-0.1517 0.0455-0.07655-0.0582-0.3087-0.1288-0.4128-0.0699-0.1041-0.0773-0.02258-0.091-0.1563-0.0127-0.1337-0.0857-0.2226-0.1976-0.3164-0.1108-0.09278-0.097-0.1252-0.1291-0.3044 0 0 0.8181-0.6854 0.743-0.8269-0.01-0.09172-0.2572-0.4078-0.436-0.5415-0.1792-0.133-0.2505-0.1873-0.3916-0.4244-0.14-0.2371-0.1573-0.441-0.2096-0.6145-0.0526-0.1729-0.4166-0.605-0.5482-0.7793-0.1316-0.175-0.1947-0.2522-0.2505-0.4671-0.0568-0.2166-0.4586-0.8752-0.8343-1.548-0.3761-0.6731-1.5-1.396-1.966-1.692-0.4657-0.297-0.8326-0.684-1.464-1.284-0.6304-0.5994-1.961-0.901-2.55-0.9783-0.5884-0.07796-0.9973 0.1221-1.289 0.08255-0.0183-0.0028-0.0374-0.0046-0.0554-6e-3 -0.2868-0.02223-0.6615 0.06068-0.7228 0.05715-0.0667-0.0049-0.2812-0.1647-0.3912-0.2593-0.1115-0.09278-0.2025-0.05503-0.4579-0.2907-0.2561-0.2364-0.2992-0.1817-0.4886-0.2191-0.1898-0.03704-0.3955-0.1923-0.5697-0.3919-0.1743-0.2-0.3076-0.4886-0.3849-0.6773-0.078-0.1887-0.0589-0.2007-0.1976-0.3447-0.1379-0.1446-0.4586-0.04727-0.5295 0.01517-0.0698 0.06068-0.1658 0.1365-0.2498 0.1432-0.0847 0.0085-0.2604-0.0039-0.3422-0.01164-0.0258-0.0028-0.049 0.0042-0.0705 0.01517-2e-3 7.06e-4 -0.0184 0.0056-0.0328 0.02152-0.0293 0.02469-0.0515 0.05715-0.066 0.08678-0.0123-0.01799-0.0247-0.03104-0.0381-0.04198-6e-3 -0.0056-0.0123-0.0099-0.0194-0.01446-4e-3 -0.0021-8e-3 -0.0042-0.012-0.0071-8e-3 -0.0035-0.0152-0.0074-0.024-0.01023-4e-3 -7.06e-4 -8e-3 -0.0014-0.0127-0.0021-0.01-0.0021-0.0205-0.0028-0.0311-0.0028-0.0113 0-0.0219 0.0014-0.0307 0.0028l-3.5e-4 -0.0028s-5e-3 0.0028-0.0127 0.0063c-0.0102 0.0042-0.018 0.0067-0.0222 0.0095-0.0102 0.0078-0.061 0.03387-0.1129 0.05786-1e-3 7.06e-4 -3e-3 0.0014-4e-3 0.0021-4e-3 7.06e-4 -0.0102 0.0035-0.0183 0.0085-0.0138 0.0053-0.0279 0.01164-0.0402 0.01623-0.0356 0.0127-0.0833 0.01517-0.1365-0.01517-0.0198-0.01305-0.0392-0.03034-0.0589-0.04939-7e-3 -0.0078-0.0145-0.01376-0.0215-0.02364v7.06e-4c-0.0176-0.01693-0.0335-0.03704-0.0483-0.05503-0.0645-0.08396-0.1397-0.1517-0.2275-0.1281-0.0875 0.02187-0.1842 0.1771-0.2117 0.235-0.0286 0.05786-0.2314 0.3334-0.3884 0.5038-0.157 0.17-0.3732 0.08996-0.5401 0.05362-0.1676-0.03528-0.3528 0.09243-0.3528 0.09243-7e-3 -0.0071-0.1132 0.01023-0.114 0.0074 0 0-0.0176-0.0074-0.0201-0.0067-0.0145 0.01023-0.0236 0.04727-0.0399 0.05997-5e-3 0.0032-5e-3 0.01905-0.0102 0.02258-0.0145 0.01164-0.0286 0.03034-0.0444 0.04269-6e-3 0.0056-0.0113 0.01376-0.0176 0.0187-0.0148 0.01235-0.03 0.02752-0.0448 0.04127-8e-3 0.0063-0.0152 0.01305-0.0233 0.02081-0.0148 0.01235-0.0296 0.02681-0.0448 0.04057-8e-3 0.0081-0.0169 0.01587-0.0265 0.02399-0.0148 0.01376-0.0289 0.02752-0.0437 0.04198-0.01 0.0092-0.0198 0.0187-0.0296 0.02822l-0.0423 0.04163c-0.0106 0.01023-0.0219 0.02117-0.0328 0.0321-0.0134 0.01376-0.0268 0.02716-0.0402 0.04092-0.012 0.01235-0.0243 0.02399-0.0356 0.03634-0.013 0.01305-0.0247 0.0254-0.0381 0.03916-0.0123 0.0134-0.0247 0.02646-0.037 0.03951-0.012 0.01235-0.0243 0.0254-0.0356 0.03704-0.0131 0.01517-0.0265 0.02893-0.0399 0.04339-0.0102 0.01164-0.0208 0.02293-0.0307 0.03387-0.0145 0.01658-0.0296 0.03316-0.0437 0.04974-8e-3 0.0088-0.0166 0.01834-0.0254 0.02752-0.0219 0.0254-0.0437 0.05009-0.0642 0.07444-0.3482 0.4071-0.7084 1.293-0.5913 2.076 0.1164 0.7828 0.6237 1.486 1.112 1.9 0.489 0.4128 0.7295 0.5087 0.9553 0.6008 0.2258 0.09313 0.4784 0.1785 0.6639 0.1736 0.1863-0.0053 0.3281-0.1506 0.3725-0.2046 0.0427-0.05433 0.1517-0.1626 0.1517-0.1626s0.0628 0.02011 0.1238 0.06209c0.0614 0.04127 0.1048 0.1242 0.2307 0.1125 0.1274-0.01129 0.1517-0.1401 0.2632-0.2628 0.1122-0.1224 0.1577-0.17 0.1891-0.2141 0.0321-0.0441 0.1316-0.2431 0.1411-0.2886 0.01-0.04621 0.1475-0.1827 0.2304-0.2473 0.0843-0.06491 0.0847-0.2311 0.1471-0.2392 7e-3 -0.0021 0.0166-0.0035 0.0261-0.0056 0.072-0.01446 0.2021-0.05221 0.2942-0.06385-0.3087 0.6124-0.2491 1.173-0.1584 1.525 0.0914 0.3507 0.0395 0.4004 0.0589 0.6971 0.0194 0.2977 0.146 0.6745 0.1658 0.7489 0.0187 0.07444-0.1386 0.5754-0.1708 1.117-0.0321 0.5412 0.109 1.42 0.1132 1.627 3e-3 0.2081 0.0628 0.4085 0.0476 0.4339-0.0155 0.0254-0.0734 0.2138-0.0882 0.3253-0.1228 0.2191-0.4696 1.072-0.6255 1.861-0.1549 0.7899-0.2501 1.911-0.2787 2.135-0.0279 0.2226-0.1482 0.7772-0.2738 1.016-0.1242 0.2385-0.1348 0.4576-0.1556 0.6361-0.2081 0.06809-0.393 0.2067-0.4787 0.3016-0.0854 0.09384-0.2247 0.2268-0.2579 0.2448-0.0335 0.01764-0.1683 0.09137-0.2163 0.1281-0.1686 0.03034-0.3235 0.04057-0.4269 0.03845-0.0141-0.0025-0.0282-0.0053-0.0406-0.0088-0.0727-0.02011-0.1446-0.02223-0.211-0.0187-0.0603-7.06e-4 -0.1309 0.0028-0.2039 0.01164-0.1471 0.01658-0.46 0.0042-0.5267 0.02152-0.0346 0.0088-0.1242 0.02258-0.2043 0.06209-0.0995 0.03986-0.1753 0.1115-0.1443 0.2395 0.0438 0.1901 0.2984 0.1531 0.4995 0.1531 0.2021 7.06e-4 0.399 0.03669 0.7338 0.1076 0.3115 0.06597 0.3962 0.05997 0.4452 0.1482-3e-3 -0.0028-7e-3 -0.0056-0.0109-0.0092 0.0219 0.0635 0.0286 0.1206-0.0586 0.1757-0.0395 0.02011-0.0861 0.0381-0.1302 0.05786-0.0529 0.01799-0.0998 0.03245-0.1432 0.04621-0.0815 0.02081-0.1612 0.03528-0.2173 0.06209-0.0325 0.01588-0.0776 0.0448-0.1309 0.07937-0.0243 0.01235-0.0501 0.02681-0.0773 0.04198-0.152 0.08678-0.3701 0.1866-0.5366 0.2632-8e-3 0.0035-0.0169 0.0074-0.0247 0.01094-0.078 0.03598-0.1429 0.06562-0.1813 0.08396-0.1104 0.05539-0.3037 0.1559-0.2459 0.3577-3.6e-4 -0.0074-3.6e-4 -0.01517-3.6e-4 -0.02258 0.01 0.06809 0.0487 0.1323 0.102 0.1803 0.1189 0.109 0.3517-0.04798 0.453-0.1224 7e-3 -0.0049 0.0166-0.01129 0.0258-0.01658 0.0808-0.02611 0.1757-0.06068 0.2713-0.09454 0.3175-0.1087 0.731-0.2191 1.037-0.3429 0.0166 0.01164 0.0423 0.02469 0.0716 0.03634-3e-3 0-7e-3 -7.05e-4 -7e-3 -7.05e-4s9e-3 0.0021 0.0233 0.0063c0.0222 0.0081 0.0462 0.01517 0.0695 0.01905 0.0399 0.01305 0.0794 0.02752 0.0815 0.03739-3e-3 6e-3 -6e-3 0.01305-0.0116 0.02046-0.0497 0.06491-0.2484 0.2572-0.3288 0.3274-0.0942 0.08149-0.2088 0.1697-0.272 0.2579-0.0635 0.08819-0.1281 0.2554-0.2148 0.3369-0.0875 0.07973-0.3884 0.4173-0.4964 0.5821-0.0201 0.03034-0.0282 0.06209-0.031 0.09454-0.0152 0.07373 6e-3 0.1383 0.066 0.2177 0.0303 0.03986 0.0684 0.05997 0.1094 0.06738 0.0162 0.0063 0.0339 0.0099 0.0497 0.0085-3e-3 -0.0014-5e-3 -0.0042-7e-3 -0.0063 0.1094-0.0014 0.2265-0.07373 0.266-0.1055 0.0593-0.04939 0.284-0.3478 0.3238-0.3817 0.0381-0.03422 0.2173-0.2148 0.327-0.3059 0.1115-0.09172 0.2258-0.1693 0.303-0.2611 0.0762-0.09243 0.1372-0.09842 0.2268-0.1605 0.0698-0.04762 0.188-0.1083 0.2864-0.1704 0.0296-0.01764 0.0575-0.03704 0.0773-0.05362 0.0579 0.175 0.0138 0.3471-0.061 0.4748-0.0748 0.1274-0.1242 0.436-0.1743 0.5489-0.0494 0.1139-0.2752 0.6036-0.2925 0.7602-0.0145 0.1274 0.084 0.1961 0.2194 0.2074 4e-3 0 7e-3 3.53e-4 0.0106 0.0011 0.018 0.0028 0.0346 0.0021 0.0512-7.05e-4 0.0109 0 0.0212 0 0.0314-0.0011-3e-3 -0.0014-6e-3 -0.0021-0.01-0.0035 0.1369-0.03951 0.2138-0.2378 0.272-0.3482 0.0677-0.1274 0.1281-0.3016 0.2455-0.4759 0.1182-0.175 0.1662-0.3411 0.2328-0.5842 0.0286 0.0039 0.0607 0 0.0935-0.0078 0.0367-0.0035 0.0762-0.02011 0.1224-0.04621 0.0896-0.04551 0.1799-0.1115 0.2568-0.1743 0.2473-0.175 0.2487-0.1958 0.58-0.3761 0.1732-0.09454 0.2667-0.1633 0.3489-0.224 0.0229 0.02963 0.0751 0.08749 0.1771 0.1446 0.1464 0.0822 0.4403 0.1256 0.6244 0.1496 0.1842 0.02469 0.3235-0.1411 0.3277-0.2762 2e-3 -0.1358-0.0935-0.1923-0.2339-0.2321-0.1404-0.04092-0.1968-0.07444-0.3701-0.1877 0.0497-0.01235 0.1736-0.1027 0.254-0.1736 0.0452-0.01658 0.0942-0.03175 0.1439-0.04833 0.3242-7.05e-4 0.4244-0.1224 0.4579-0.1968 0.0624-0.146-0.0191-0.2399-0.1334-0.3302 0.0903-0.0695 0.2046-0.2858 0.3175-0.5098 0.0134-0.02222 0.0254-0.04269 0.0374-0.06209 0.0229-0.03916 0.0385-0.07655 0.0515-0.1122 0.0109-0.02152 0.0215-0.04339 0.0328-0.0635 0.1499-0.2886 0.1898-0.7648 0.2618-1.191 0.0713-0.4265 0.3118-0.9977 0.5031-1.426 0.1908-0.4286 0.3425-0.7846 0.4537-1.136 0.1104-0.3507 0.1238-0.853 0.2166-1.271 0.0935-0.4177 0.1044-0.4685 0.1337-0.5768 0.0296-0.108 0.024-0.2025 0.0212-0.2695-3e-3 -0.06668 0.0621-0.2755 0.1845-0.677 0.121-0.4004 0.1972-1.067 0.2304-1.426 0.0339-0.3591 0.0377-0.6678 0.0377-0.6678s0.3722 0.279 0.659 0.3602c0.2875 0.08149 0.6964 0.1016 0.799 0.1048 0.102 0.0035 0.2568 0.1104 0.3542 0.242 0.2219 0.7098 0.3535 0.6802 0.49 0.6696 0.0455 0.5789 0.2628 0.5189 0.3369 0.5479 0.0751 0.02893 0.1203 0.01658 0.1295 0.1295-0.0787 0.1743-0.0935 0.5616-0.0826 0.7511 0.0106 0.1887 0.1609 0.3231 0.2692 0.3715-6e-3 0.0074-0.0138 0.01729-0.0201 0.02822-0.0804 0.1358-0.1453 0.5133-0.1094 0.6202-0.0794 0.1358-0.0762 0.2981-0.0836 0.4149-0.0727 0.01905-0.1023 0.1612-0.1072 0.2198-3e-3 0.05644 0.0459 0.2843 0.0293 0.4526-0.0395 0.1027-0.0607 0.1909-0.0268 0.2233-3e-3 0.07514 3e-3 0.1535 0.0318 0.266 0.0536 0.2064 0.1937 0.4868 0.3351 0.9588 0.1422 0.472 0.3397 0.9391 0.5768 1.407 0.236 0.4657 0.0942 0.3969 0.1711 0.6936 0.0773 0.297 0.1108 0.3944 0.0529 0.6872-0.0582 0.2935 0.2067 0.4265 0.3298 0.6054 0.1231 0.1792 0.2 0.399 0.1542 0.5934-0.0448 0.1944-0.1626 0.5898-0.1009 0.9772 0.0617 0.3863-0.0152 0.8294-0.0885 1.213-0.073 0.3838-0.0363 0.7105 0.0579 0.8869 0.0942 0.1778 0.2759 0.3609 0.4188 0.6883 0.1432 0.3274 0.3648 0.4431 0.3743 0.4787 9e-3 0.03598-0.2611 0.5479-0.3556 0.5535-0.0952 0.0053-0.4135 0.1838-0.9045 0.4367-0.4914 0.2515-0.7454 1.009-0.9768 1.338-0.2314 0.3295-0.9042 1.434-1.081 1.864-0.176 0.4293-0.3859 0.6572-0.5496 0.9874-0.1637 0.3306-0.241 0.514-0.4473 0.6057-0.2064 0.09207-0.3235 0.08396-0.5256 0.2328-0.2011 0.1482-0.0949 0.1873-0.2836 0.2364-0.1891 0.04939-0.5228 0.2409-0.6565 0.43-0.1337 0.188-0.1185 0.3574-0.3754 0.5489-0.2579 0.1916-0.309 0.4741-0.2699 0.6272-0.3623 0.04586-0.6234 0.3348-0.7077 0.7116-0.0847 0.3768 0.3662 1.595 0.4918 2.003 0.1259 0.4085 0.3041 1.208 0.4558 2.013 0.0314 0.1655 0.0829 0.3274 0.1478 0.483 0.1101 0.2928 0.2706 0.5934 0.5055 0.8509 0.1725 0.224 0.3489 0.4135 0.4904 0.5574 0.3775 0.3817 0.9056 0.4177 1.206 0.3203 0.4184-0.2286 0.4336-0.7909 0.3771-1.185-2e-3 -0.0187-5e-3 -0.0363-8e-3 -0.0536 4e-3 0.0131 8e-3 0.0296 0.0145 0.0455 3e-3 7e-3 5e-3 0.0138 8e-3 0.0198 3e-3 0.0106 7e-3 0.0201 0.0113 0.0303 0.1284 0.3115 0.5295 0.9504 0.7796 1.152 0.2798 0.2251 0.4498 0.0653 0.6078-0.0236 0.3115-0.3588 0.1337-0.9659 0.0892-1.137-0.0444-0.1711-0.1259-0.4851-0.0667-0.6643 0.0593-0.1778 0.0942-0.303 0.0751-0.375-0.018-0.0723-0.018-0.2928 0.0459-0.4533 0.0635-0.1605 0.0289-0.2568 0.06-0.3224 0.0272-0.0579 0.0511-0.1605 0.0843-0.2762-0.0575 0.2198-0.0346 0.465-0.0346 0.465l0.1115-0.0102s0.0441-0.4237 0.0607-0.5814c0.4431 0.3739 0.4879-0.0787 0.4057-0.1732-0.0818-0.0935-0.1238-0.2554-0.1517-0.3637-0.0282-0.1076 0.019-0.1496 0.0272-0.266 0.2381-0.0811 0.2364-0.2727 0.1672-0.3891 0.0148-0.02152 0.0286-0.04092 0.0402-0.06068 4e-3 -0.0056 6e-3 -0.01164 0.01-0.01729 8e-3 -0.01446 0.0152-0.02752 0.0219-0.04057 2e-3 -0.0063 6e-3 -0.01164 8e-3 -0.01799 7e-3 -0.01446 0.0123-0.02681 0.0169-0.03986 1e-3 -0.0042 4e-3 -0.0092 5e-3 -0.01235 6e-3 -0.01729 0.0113-0.03316 0.0148-0.04904 0-0.0021 3.6e-4 -0.0049 1e-3 -0.0071 2e-3 -0.01305 4e-3 -0.02611 6e-3 -0.03704 3.5e-4 -0.0049 3.5e-4 -0.0095 1e-3 -0.01446 3.6e-4 -0.0092 3.6e-4 -0.01799 3.6e-4 -0.02611v-0.01446l-3e-3 -0.02505c-7e-4 -0.0025-1e-3 -0.0067-2e-3 -0.01023-2e-3 -0.01023-5e-3 -0.02011-8e-3 -0.02893-2e-3 -0.0042-4e-3 -0.0088-6e-3 -0.01376-2e-3 -0.0042-4e-3 -0.0078-7e-3 -0.01164-3e-3 -0.0049-5e-3 -0.0092-8e-3 -0.01376-2e-3 -0.0021-3e-3 -0.0042-5e-3 -0.0071-0.0183-0.02328-0.0395-0.03916-0.0617-0.04621-0.0254-0.0081-0.0286-0.01305-0.049 0.0014 0 0-0.4438-0.1397-0.4445-0.1439l-7.1e-4 -0.0028c-0.0134-0.0508-0.0102-0.09031-0.0102-0.09031 0.2293-0.1171 0.2124-0.2812 0.2374-0.46 0.0254-0.1799 0.1887-0.193 0.4332-0.4156 0.2452-0.2212 0.2117-0.1704 0.5775-0.4801 0.3658-0.3115 0.2032-0.5426 0.3372-1.024 0.1341-0.4815 0.0854-0.5553 0.3934-0.9232 0.3073-0.3679 0.3605-0.3817 0.7687-0.8618 0.4085-0.4812 0.9038-1.344 0.9768-1.507 0.0296-0.06526 0.0762-0.1376 0.1499-0.2212-3.6e-4 0.0035-2e-3 0.0078-2e-3 0.01058 0.0526-0.05186 0.1041-0.1048 0.1531-0.1595 0.0991-0.08749 0.2268-0.1866 0.3895-0.2981 0.4406-0.302 0.6212-0.435 0.9426-0.8061 0.321-0.3715 0.6555-0.7465 0.8297-1.131 0.1711-0.3761 0.3284-0.8975 0.4653-1.452 0.1362-0.5546 0.1284-1.805 0.1365-2.383 8e-3 -0.5771 0.0755-0.6241 0.0991-1.004 0.0229-0.381 0.0434-0.61 0.1478-1.069 0.1041-0.4586 0.1478-1.118 0.0508-1.964-0.097-0.8467-0.1221-0.9694-0.066-1.502 0.0561-0.5334-0.0557-1.239-0.1743-1.475" fill="#b4b4b4" stroke="#aaa"/>
     </g>
    </g>
   </g>
  </g>
 </g>
</svg>
