<?xml version="1.0" encoding="UTF-8" standalone="no"?>
<svg
   xmlns:dc="http://purl.org/dc/elements/1.1/"
   xmlns:cc="http://creativecommons.org/ns#"
   xmlns:rdf="http://www.w3.org/1999/02/22-rdf-syntax-ns#"
   xmlns:svg="http://www.w3.org/2000/svg"
   xmlns="http://www.w3.org/2000/svg"
   xmlns:sodipodi="http://sodipodi.sourceforge.net/DTD/sodipodi-0.dtd"
   xmlns:inkscape="http://www.inkscape.org/namespaces/inkscape"
   width="172"
   height="42"
   viewBox="0 0 168.41666 41.125001"
   version="1.1"
   id="svg1183"
   inkscape:version="1.0 (4035a4fb49, 2020-05-01)"
   sodipodi:docname="logo_inkscape.svg"
   inkscape:export-filename="C:\Users\cribb\src-remy\remyjalan.com\images\favicons\mstile-150x150.png"
   inkscape:export-xdpi="84.666672"
   inkscape:export-ydpi="84.666672">
  <defs
     id="defs1177">
    <inkscape:perspective
       id="perspective6348"
       inkscape:persp3d-origin="23.499998 : 33.062213 : 1"
       inkscape:vp_z="46.999998 : 40.895546 : 1"
       inkscape:vp_y="0 : 1000 : 0"
       inkscape:vp_x="0 : 40.895546 : 1"
       sodipodi:type="inkscape:persp3d" />
    <clipPath
       id="clipPath1211"
       clipPathUnits="userSpaceOnUse">
      <path
         id="path1209"
         d="M 0,189 H 189 V 0 H 0 Z" />
    </clipPath>
    <clipPath
       id="clipPath1327"
       clipPathUnits="userSpaceOnUse">
      <path
         id="path1325"
         d="M 0,189 H 189 V 0 H 0 Z" />
    </clipPath>
    <clipPath
       id="clipPath1423"
       clipPathUnits="userSpaceOnUse">
      <path
         id="path1421"
         d="M 0,189 H 189 V 0 H 0 Z" />
    </clipPath>
    <clipPath
       id="clipPath1771"
       clipPathUnits="userSpaceOnUse">
      <path
         id="path1769"
         d="M 0,189 H 189 V 0 H 0 Z" />
    </clipPath>
    <clipPath
       id="clipPath1815"
       clipPathUnits="userSpaceOnUse">
      <path
         id="path1813"
         d="M 10.5186,24.5712 H 56.0762 V 10.7822 H 10.5186 Z" />
    </clipPath>
    <clipPath
       id="clipPath1819"
       clipPathUnits="userSpaceOnUse">
      <path
         id="path1817"
         d="m 36.942,16.019 c 0,-0.985 -0.797,-1.784 -1.783,-1.784 h -3.428 c -0.985,0 -1.783,0.799 -1.783,1.784 v 3.427 c 0,0.986 0.798,1.784 1.783,1.784 h 3.428 c 0.986,0 1.783,-0.798 1.783,-1.784 z m 0.814,3.427 c 0,1.435 -1.162,2.597 -2.597,2.597 h -3.428 c -1.433,0 -2.596,-1.162 -2.596,-2.597 v -3.427 c 0,-1.434 1.163,-2.597 2.596,-2.597 h 3.428 c 1.435,0 2.597,1.163 2.597,2.597 z M 33.46,16.313 c -0.752,0 -1.363,0.612 -1.363,1.364 0,0.753 0.611,1.363 1.363,1.363 0.752,0 1.364,-0.61 1.364,-1.363 0,-0.752 -0.612,-1.364 -1.364,-1.364 m 0,3.494 c -1.174,0 -2.129,-0.956 -2.129,-2.13 0,-1.174 0.955,-2.129 2.129,-2.129 1.175,0 2.129,0.955 2.129,2.129 0,1.174 -0.954,2.13 -2.129,2.13 m 2.254,0.649 c -0.28,0 -0.507,-0.227 -0.507,-0.507 0,-0.28 0.227,-0.507 0.507,-0.507 0.279,0 0.507,0.227 0.507,0.507 0,0.28 -0.228,0.507 -0.507,0.507 m -2.311,-9.629 c -3.776,0 -6.848,3.073 -6.848,6.85 0,3.777 3.072,6.849 6.848,6.849 3.778,0 6.851,-3.072 6.851,-6.849 0,-3.777 -3.073,-6.85 -6.851,-6.85" />
    </clipPath>
    <linearGradient
       id="linearGradient1835"
       spreadMethod="pad"
       gradientTransform="matrix(16.993795,14.470016,14.470016,-16.993795,27.869553,12.964396)"
       gradientUnits="userSpaceOnUse"
       y2="0"
       x2="1"
       y1="0"
       x1="0">
      <stop
         id="stop1821"
         offset="0"
         style="stop-opacity:1;stop-color:#fae08a" />
      <stop
         id="stop1823"
         offset="0.0011048"
         style="stop-opacity:1;stop-color:#fae08a" />
      <stop
         id="stop1825"
         offset="0.209357"
         style="stop-opacity:1;stop-color:#fcbb46" />
      <stop
         id="stop1827"
         offset="0.37646"
         style="stop-opacity:1;stop-color:#f05474" />
      <stop
         id="stop1829"
         offset="0.523815"
         style="stop-opacity:1;stop-color:#d53992" />
      <stop
         id="stop1831"
         offset="0.739443"
         style="stop-opacity:1;stop-color:#7f50a0" />
      <stop
         id="stop1833"
         offset="1"
         style="stop-opacity:1;stop-color:#5c5da9" />
    </linearGradient>
    <clipPath
       clipPathUnits="userSpaceOnUse"
       id="clipPath4863">
      <path
         style="fill:none;stroke:#444444;stroke-width:0.0750001;stroke-linecap:round"
         id="path4865"
         sodipodi:type="arc"
         sodipodi:cx="122.41469"
         sodipodi:cy="84.217773"
         sodipodi:rx="22.5"
         sodipodi:ry="22.5"
         sodipodi:start="2.3189841"
         sodipodi:end="2.3150222"
         sodipodi:open="true"
         sodipodi:arc-type="arc"
         d="m 107.10768,100.70854 a 22.5,22.5 0 0 1 -1.19891,-31.781438 22.5,22.5 0 0 1 31.78023,-1.230385 22.5,22.5 0 0 1 1.26187,31.779 22.5,22.5 0 0 1 -31.77774,1.293343" />
    </clipPath>
    <clipPath
       clipPathUnits="userSpaceOnUse"
       id="clipPath4963">
      <path
         sodipodi:arc-type="arc"
         sodipodi:open="true"
         sodipodi:end="2.3150222"
         sodipodi:start="2.3189841"
         sodipodi:ry="22.5"
         sodipodi:rx="22.5"
         sodipodi:cy="82.364418"
         sodipodi:cx="121.52611"
         sodipodi:type="arc"
         id="path4965"
         style="display:inline;fill:#ffffff;fill-opacity:1;stroke:#aaaaaa;stroke-width:0.0750001;stroke-linecap:round;stroke-opacity:1"
         d="m 106.2191,98.855184 a 22.5,22.5 0 0 1 -1.19891,-31.781437 22.5,22.5 0 0 1 31.78023,-1.230385 22.5,22.5 0 0 1 1.26186,31.779 22.5,22.5 0 0 1 -31.77773,1.293338" />
    </clipPath>
  </defs>
  <sodipodi:namedview
     units="px"
     lock-margins="true"
     id="base"
     pagecolor="#ffffff"
     bordercolor="#666666"
     borderopacity="1.0"
     inkscape:pageopacity="0.0"
     inkscape:pageshadow="2"
     inkscape:zoom="11.42447"
     inkscape:cx="89.129373"
     inkscape:cy="18.338597"
     inkscape:document-units="mm"
     inkscape:current-layer="g4138"
     inkscape:document-rotation="0"
     showgrid="false"
     fit-margin-top="1"
     fit-margin-left="1"
     fit-margin-right="1"
     fit-margin-bottom="1"
     inkscape:window-width="2823"
     inkscape:window-height="1376"
     inkscape:window-x="685"
     inkscape:window-y="155"
     inkscape:window-maximized="0" />
  <metadata
     id="metadata1180">
    <rdf:RDF>
      <cc:Work
         rdf:about="">
        <dc:format>image/svg+xml</dc:format>
        <dc:type
           rdf:resource="http://purl.org/dc/dcmitype/StillImage" />
        <dc:title></dc:title>
      </cc:Work>
    </rdf:RDF>
  </metadata>
  <g
     inkscape:label="Layer 1"
     inkscape:groupmode="layer"
     id="layer1"
     transform="translate(-48.547767,-62.637861)">
    <g
       style="stroke:#aaaaaa;stroke-width:0.075;stroke-miterlimit:4;stroke-dasharray:none;stroke-opacity:1"
       id="g4138">
      <g
         transform="matrix(1.3125,0,0,1.3125,-78.844005,-21.815942)"
         style="fill:#c4c4c4;fill-opacity:1"
         id="g900">
        <text
           id="text887"
           y="83.737854"
           x="138.66125"
           style="font-style:normal;font-variant:normal;font-weight:500;font-stretch:normal;font-size:13.0327px;line-height:1.05;font-family:'DM Sans';-inkscape-font-specification:'DM Sans Medium';letter-spacing:0px;word-spacing:0px;fill:#c4c4c4;fill-opacity:1;stroke:#000000;stroke-width:0.122182;stroke-opacity:1"
           xml:space="preserve"><tspan
             rotate="0 0 0 0 0 0 0 0 0 0 0 0 0"
             id="tspan885"
             style="font-style:normal;font-variant:normal;font-weight:bold;font-stretch:normal;font-size:13.0327px;font-family:'DM Sans';-inkscape-font-specification:'DM Sans Bold';fill:#c4c4c4;fill-opacity:1;stroke:#000000;stroke-width:0.122182;stroke-opacity:1"
             y="83.737854"
             x="138.66125"
             sodipodi:role="line">REMY J. ALAN</tspan></text>
        <text
           xml:space="preserve"
           style="font-size:4.89582px;line-height:1.25;font-family:'DM Sans';-inkscape-font-specification:'DM Sans';letter-spacing:0px;word-spacing:0px;fill:#c4c4c4;fill-opacity:1;stroke-width:0.0688476"
           x="131.91621"
           y="82.239098"
           id="text893"><tspan
             sodipodi:role="line"
             id="tspan891"
             x="131.91621"
             y="82.239098"
             style="fill:#c4c4c4;fill-opacity:1;stroke-width:0.0688476" /></text>
      </g>
      <g
         transform="translate(-35.249996)"
         id="g934">
        <path
           d="m 123.66333,83.670879 c -0.0106,-0.02152 -0.018,-0.04198 -0.0229,-0.06068 0.004,0.04833 0.0314,0.07796 0.0229,0.06068"
           style="fill:#4c4d4f;fill-opacity:1;fill-rule:nonzero;stroke:none;stroke-width:0.352778"
           id="path1635" />
        <path
           d="m 127.136,83.928584 c -0.0275,-0.0021 0.10795,-0.02893 0.3175,-0.220486 0.20884,-0.190147 0.3302,-0.308681 0.49601,-0.474133 0.16545,-0.165453 0.51046,-0.499534 0.59654,-0.529167 0.0861,-0.02963 0.33338,-0.130175 0.48401,-0.10407 0.15064,0.02575 0.43286,0.0028 0.5073,-0.01658 0.0741,-0.01905 -0.008,0.05256 -0.11924,0.09525 -0.11148,0.0441 -0.28363,0.04551 -0.53023,0.06667 -0.24588,0.02081 -0.43215,0.08361 -0.55421,0.19438 -0.12206,0.11042 -0.0487,0.09172 -0.30127,0.336903 -0.25294,0.246239 -0.77964,0.656167 -0.89641,0.651228"
           style="fill:#4c4d4f;fill-opacity:1;fill-rule:nonzero;stroke:none;stroke-width:0.352778"
           id="path1699" />
        <path
           id="path1499"
           style="fill:#262261;fill-opacity:1;fill-rule:nonzero;stroke:#2a256b;stroke-width:0.075;stroke-miterlimit:4;stroke-dasharray:none;stroke-opacity:1"
           d="m 117.62188,94.489896 c -0.26882,0.356306 -0.67522,0.618772 -1.11266,0.720372 -0.43956,0.0956 -0.89359,0.04233 -1.29152,-0.112536 -0.0995,-0.03951 -0.19368,-0.08855 -0.28998,-0.134055 -0.0893,-0.05539 -0.18063,-0.108656 -0.26706,-0.167923 -0.0868,-0.06879 -0.15557,-0.115005 -0.25505,-0.203905 l -0.19721,-0.189089 -0.19649,-0.189089 -0.19403,-0.238831 -0.18944,-0.2413 -0.15064,-0.255763 c -0.40076,-0.684389 -0.55033,-1.480256 -0.52176,-2.213681 0.0286,-0.737305 0.19967,-1.423811 0.39935,-2.058811 0.20214,-0.636764 0.44273,-1.224492 0.66816,-1.779764 0.0557,-0.137936 0.11147,-0.274461 0.16651,-0.41028 0.0303,-0.07161 0.0483,-0.125236 0.0882,-0.209903 l 0.0924,-0.193675 c 0.12982,-0.263525 0.26106,-0.500592 0.38171,-0.734836 0.24377,-0.463903 0.43638,-0.905581 0.48471,-1.334559 0.0466,-0.426861 -0.0699,-0.821619 -0.248,-1.120775 0.22084,0.265995 0.40181,0.660753 0.40358,1.128537 -3.6e-4,0.466725 -0.16334,0.961319 -0.37042,1.45168 -0.10477,0.24765 -0.21096,0.499181 -0.3182,0.753533 l -0.0776,0.198967 c -0.0194,0.04621 -0.0441,0.131586 -0.0663,0.195439 -0.0462,0.140053 -0.0924,0.280811 -0.13935,0.422628 -0.18803,0.568325 -0.39158,1.161344 -0.55456,1.781175 -0.16157,0.619125 -0.28963,1.268589 -0.28999,1.922286 3.6e-4,0.65158 0.14994,1.300339 0.49248,1.8542 l 0.12771,0.207786 0.15063,0.181328 0.14888,0.183444 0.20037,0.184503 0.20003,0.185561 0.17533,0.132997 0.19861,0.121003 c 0.0699,0.02999 0.13865,0.06562 0.2092,0.09278 0.28363,0.105834 0.58702,0.132645 0.86395,0.07232 0.27411,-0.06914 0.51541,-0.225072 0.68792,-0.449439 0.11183,-0.168275 0.16757,-0.258586 0.23954,-0.487539 0.0504,-0.142169 0.0501,-0.243769 0.0194,-0.349955 -0.0568,-0.210609 -0.25894,-0.389467 -0.4438,-0.497417 -0.18944,-0.112183 -0.37641,-0.160161 -0.51223,-0.174272 -0.1404,-0.0095 -0.20426,0.01517 -0.23918,0.0314 -0.0349,0.01975 -0.0706,0.06985 -0.0843,0.128411 -0.0162,0.05609 -0.0356,0.09031 -0.0444,0.141111 -0.0226,0.08855 -0.066,0.1143 -0.11571,0.127 -0.0494,0.01305 -0.10019,0.01164 -0.16333,-0.05433 -0.0303,-0.02575 -0.0684,-0.104775 -0.091,-0.206375 -0.0229,-0.09701 -0.0349,-0.267052 0.0882,-0.46108 0.0642,-0.09208 0.16087,-0.176036 0.27482,-0.230364 0.11253,-0.05186 0.23742,-0.08079 0.36724,-0.08996 0.25718,-0.01235 0.54046,0.0381 0.83855,0.18415 0.28611,0.150283 0.64382,0.385233 0.81774,0.884061 0.0864,0.243416 0.0776,0.552097 -0.0138,0.803627 -0.0448,0.17145 -0.18415,0.48507 -0.34713,0.699206" />
        <path
           id="path1503"
           style="fill:#f7931d;fill-opacity:1;fill-rule:nonzero;stroke:#ffa220;stroke-width:0.075;stroke-miterlimit:4;stroke-dasharray:none;stroke-opacity:1"
           d="m 117.66566,75.615615 c 0,0 -0.001,0.112183 -0.003,0.32385 -7.1e-4,0.105481 -0.002,0.236361 -0.003,0.389819 -7e-4,0.07726 -0.001,0.160162 -0.002,0.248356 -0.004,0.08819 -0.0236,0.181681 -0.0356,0.281164 -0.0293,0.201083 -0.0614,0.423686 -0.0963,0.666044 -0.0614,0.236361 -0.14076,0.490009 -0.22013,0.765881 -0.0825,0.274461 -0.23248,0.542572 -0.35984,0.842786 -0.14816,0.287867 -0.34254,0.571853 -0.53657,0.875947 -0.85443,1.15817 -2.21333,2.254603 -3.82905,3.086806 -1.61008,0.859719 -3.44452,1.534936 -5.29378,2.176638 l 0.0684,-0.02223 c -2.03023,0.866423 -4.12467,1.483784 -5.8293,2.358673 -0.2233,0.09807 -0.41275,0.228952 -0.61594,0.341841 -0.19648,0.119592 -0.40708,0.220486 -0.57923,0.35807 -0.1792,0.128411 -0.357348,0.255411 -0.533738,0.381 l -0.0663,0.04692 -0.0166,0.01199 c -0.018,0.01235 0.0205,-0.01482 0.0145,-0.01058 l -0.004,0.0039 -0.009,0.0071 -0.036,0.02928 -0.14464,0.117122 -0.28645,0.231422 c -0.376063,0.30727 -0.761673,0.607484 -1.107403,0.9017 -0.30306,0.292806 -0.59833,0.578203 -0.88408,0.854428 -0.292463,0.258939 -0.547163,0.566561 -0.797633,0.849489 -0.24659,0.286103 -0.49848,0.547511 -0.71226,0.816681 -0.2032,0.276225 -0.39617,0.538338 -0.577853,0.785636 -0.18062,0.246591 -0.36301,0.469194 -0.48895,0.703791 -0.27834,0.454378 -0.51153,0.835731 -0.69321,1.132064 -0.15312,0.314678 -0.26742,0.540456 -0.33621,0.665339 -0.13123,0.239183 -0.27269,0.465667 -0.421573,0.679803 -0.12735,0.224014 -0.25611,0.438503 -0.39617,0.637822 -0.27728,0.399344 -0.59584,0.740482 -0.85548,1.04422 -0.55491,0.58985 -1.174043,0.92745 -1.695793,0.79375 -0.52176,-0.13335 -0.84314,-0.74295 -0.91582,-1.684159 -0.0547,-0.475192 0.0279,-1.0033 0.16687,-1.580092 0.0705,-0.287866 0.15452,-0.58808 0.26247,-0.891469 0.12911,-0.291394 0.27622,-0.589139 0.43991,-0.886178 0.0854,-0.155575 0.24483,-0.426861 0.46778,-0.796925 0.25436,-0.341841 0.582093,-0.782108 0.971913,-1.306336 0.1852,-0.265994 0.42755,-0.514703 0.67414,-0.788105 0.24801,-0.269875 0.51188,-0.557036 0.78952,-0.859367 0.286463,-0.289983 0.612073,-0.567267 0.937343,-0.868186 0.32879,-0.297039 0.65864,-0.611364 1.05904,-0.898525 0.385593,-0.2921 0.783873,-0.594078 1.193093,-0.903817 0.39864,-0.267405 0.79975,-0.51188 1.213563,-0.777522 l 0.31151,-0.19685 0.15664,-0.09913 0.0395,-0.02505 0.0388,-0.02611 0.0229,-0.0127 0.0924,-0.05151 c 0.24625,-0.135819 0.49461,-0.27305 0.7451,-0.411339 0.247653,-0.147461 0.510473,-0.242005 0.768353,-0.35948 0.25964,-0.107597 0.518918,-0.237067 0.783138,-0.319617 2.11417,-0.775758 4.26788,-1.12783 6.22721,-1.705328 l 0.0688,-0.02258 c 1.8856,-0.410281 3.7091,-0.844198 5.30754,-1.463675 1.60867,-0.596195 2.95346,-1.439334 3.87279,-2.403828 0.89853,-0.978606 1.34127,-2.054931 1.49402,-2.814461 0.024,-0.09525 0.0554,-0.183797 0.0695,-0.270581 0.0116,-0.08749 0.0222,-0.169333 0.0321,-0.245886 0.0205,-0.1524 0.0378,-0.281869 0.0515,-0.386997 0.0279,-0.209903 0.0427,-0.320675 0.0427,-0.320675" />
        <path
           id="path1507"
           style="fill:#7f3f98;fill-opacity:1;fill-rule:nonzero;stroke:#8c45a7;stroke-width:0.075;stroke-miterlimit:4;stroke-dasharray:none;stroke-opacity:1"
           d="m 116.97972,73.329439 c 0,0 0.0621,0.08643 0.17851,0.249414 0.11994,0.160514 0.28751,0.400403 0.48506,0.723547 0.19897,0.321733 0.42299,0.725311 0.62548,1.22167 0.1083,0.244827 0.18344,0.522816 0.27411,0.812799 0.0589,0.297745 0.14464,0.611364 0.16157,0.948973 0.0476,0.336902 0.0275,0.688622 0.0226,1.056922 l -7.1e-4,0.03493 -0.0138,0.07197 -0.0127,0.06456 -0.0254,0.130175 c -0.0169,0.08714 -0.0342,0.17533 -0.0515,0.263878 -0.0257,0.174272 -0.0892,0.364772 -0.14676,0.556683 -0.2293,0.769056 -0.5588,1.497542 -0.8897,2.243314 -0.15946,0.372533 -0.33197,0.746478 -0.46743,1.123244 -0.0744,0.188384 -0.14464,0.37712 -0.19579,0.565856 l -0.0864,0.283633 -0.0455,0.155222 -0.0427,0.156281 c -0.0705,0.225425 -0.0776,0.371475 -0.11218,0.551039 -0.0173,0.189089 -0.0416,0.376061 -0.0385,0.566208 -0.006,0.378178 0.0282,0.758472 0.11642,1.124303 0.16228,0.733778 0.50553,1.413933 0.97437,1.944511 0.23389,0.265289 0.49283,0.50165 0.78246,0.687564 l 0.10548,0.07232 0.0265,0.01834 0.0131,0.0092 c 0.019,0.01235 -0.14535,-0.0956 -0.0713,-0.04762 l 0.009,0.0046 0.072,0.03775 0.28716,0.14852 c 0.0466,0.02364 0.0981,0.05221 0.14076,0.07126 l 0.0967,0.02611 c 0.0639,0.01799 0.12524,0.0374 0.18556,0.05927 0.58067,0.170392 1.17299,0.124883 1.67993,-0.04904 0.51329,-0.174978 0.94121,-0.513292 1.25518,-0.879828 0.31574,-0.371475 0.51083,-0.783519 0.60855,-1.163814 l 0.0198,-0.07055 0.0102,-0.03493 0.005,-0.01693 0.002,-0.0088 c -0.048,0.182386 -0.0123,0.04657 -0.0229,0.08537 l 10e-4,-0.0064 c 0.0127,-0.07303 0.0254,-0.144639 0.0377,-0.2159 0.0116,-0.06879 0.0229,-0.136878 0.0346,-0.204258 -0.0127,-0.01199 -0.0219,-0.02152 -0.0275,-0.03069 -0.006,-0.0088 -0.008,-0.01658 -0.007,-0.02505 -7.1e-4,-0.01199 -0.0148,-0.05186 -0.0194,-0.0755 -0.019,-0.05362 -0.007,-0.109361 -0.0381,-0.155575 -0.14358,-0.399697 -0.35701,-0.523169 -0.42475,-0.581024 -0.0201,-0.0127 -0.0384,-0.02681 -0.055,-0.04339 l -0.0247,-0.0254 -0.0116,-0.01411 c 0.0363,0.02046 -0.0815,-0.04657 0.0808,0.04586 l -0.001,-7.06e-4 -0.002,-0.0014 -0.005,-0.0032 -0.0106,-0.006 -0.0208,-0.0127 c -0.0533,-0.03246 -0.10759,-0.06562 -0.16404,-0.100542 -0.009,-0.0049 -0.037,-0.02364 -0.03,-0.01834 l 0.0194,0.01129 0.0208,0.0085 c 0.006,0.0053 0.03,-0.03457 0.0427,-0.05115 0.0303,-0.0441 0.0568,-0.09172 0.0794,-0.141464 0.0138,-0.03281 0.0215,-0.05891 0.0293,-0.09066 0.008,-0.03104 0.0131,-0.0635 0.0162,-0.09737 l 0.004,-0.04868 0.003,-0.01693 c 0.005,-0.01693 10e-4,-0.06915 0,-0.0702 10e-4,0.01235 0.004,0.0194 0.006,0.02187 0.008,0.04163 0.0229,0.08431 0.0402,0.116417 0.0166,0.03387 0.055,0.13088 0.0907,0.181327 l 0.0138,0.02152 -0.002,-0.006 c -0.001,-0.0049 -0.004,-0.0067 -0.007,-0.0074 l -0.0201,-0.0085 c -0.0148,-0.0063 -0.031,-0.0187 -0.0557,-0.0127 -0.0878,-0.01164 -0.22225,0.04163 -0.35595,0.08467 -0.27482,0.103011 -0.57115,0.239184 -0.84138,0.292453 -0.27164,0.05574 -0.51858,0.03528 -0.71649,-0.08749 -0.19791,-0.122766 -0.33443,-0.326672 -0.40217,-0.601486 -0.0649,-0.275519 -0.0737,-0.624417 0.0773,-1.069975 0.0854,-0.224719 0.19086,-0.471311 0.41769,-0.743655 0.22225,-0.265289 0.5581,-0.569384 1.08056,-0.756356 0.13159,-0.04057 0.26917,-0.07514 0.40993,-0.102658 0.1397,-0.02434 0.28257,-0.02893 0.42862,-0.03316 0.15064,-0.0071 0.27552,0.01658 0.41628,0.03422 0.13476,0.01588 0.27728,0.04974 0.42616,0.102306 0.073,0.02399 0.14605,0.05009 0.21872,0.07867 l 0.1083,0.0441 0.0543,0.02469 c 0.06,0.02752 0.11783,0.05468 0.17462,0.08114 l 0.0215,0.01058 0.0109,0.0053 0.0931,0.05221 0.0663,0.0441 0.13229,0.09066 c 0.0882,0.06174 0.17603,0.125941 0.26246,0.191911 0.0882,0.06491 0.20461,0.157692 0.32703,0.299155 0.12206,0.1397 0.28751,0.297745 0.42651,0.511881 0.13052,0.217664 0.30938,0.454731 0.41698,0.752475 0.0593,0.146756 0.12383,0.300214 0.1778,0.463197 0.042,0.166511 0.0825,0.341136 0.1203,0.522817 0.0469,0.179564 0.0434,0.375355 0.0607,0.572911 0.003,0.103011 0.0141,0.191558 0.009,0.310444 -0.007,0.12312 -0.018,0.248709 -0.0321,0.375003 -0.0141,0.126295 -0.0321,0.254 -0.0529,0.381706 -0.0194,0.06914 -0.0392,0.139347 -0.0586,0.210608 -0.0201,0.06879 -0.0402,0.138994 -0.0603,0.209903 l -0.0282,0.105833 -0.007,0.01764 -0.0138,0.03528 -0.0275,0.0702 -0.0565,0.141816 c -0.29845,0.760942 -0.79093,1.525411 -1.48343,2.162175 -0.69074,0.632531 -1.57938,1.156758 -2.60914,1.375481 -1.02447,0.21978 -2.16394,0.1397 -3.17148,-0.3048 -2.02917,-0.882297 -3.26566,-2.903009 -3.46039,-4.929717 -0.0564,-0.505883 -0.0409,-1.014236 0.0275,-1.507772 0.0279,-0.248003 0.0868,-0.490361 0.14147,-0.73025 0.0713,-0.242358 0.15099,-0.522111 0.23318,-0.700617 l 0.12489,-0.297039 0.13935,-0.317852 c 0.0885,-0.214136 0.19085,-0.412398 0.29562,-0.60572 0.20038,-0.395816 0.42193,-0.754591 0.6283,-1.110897 0.42122,-0.700264 0.82091,-1.370542 1.09679,-2.002014 0.0699,-0.157339 0.14605,-0.306916 0.19579,-0.486128 0.0515,-0.15875 0.10195,-0.314325 0.15169,-0.468136 0.0427,-0.327025 0.10372,-0.646994 0.0963,-0.95638 0.048,-1.246364 -0.36689,-2.262717 -0.66146,-2.934406 -0.1531,-0.338314 -0.29069,-0.599369 -0.38982,-0.772936 -0.0952,-0.176036 -0.1464,-0.269522 -0.1464,-0.269522" />
        <path
           id="path1515"
           style="display:inline;fill:#000000;fill-opacity:1;fill-rule:nonzero;stroke:#444444;stroke-width:0.075;stroke-miterlimit:4;stroke-dasharray:none;stroke-opacity:1"
           d="m 113.27968,74.090133 c -0.061,-0.110067 -0.12171,-0.212725 -0.18239,-0.308328 -0.0663,-0.09843 -0.16404,-0.199319 -0.24235,-0.283633 -0.0794,-0.09137 -0.16863,-0.148167 -0.25153,-0.2032 -0.0847,-0.05221 -0.15946,-0.105481 -0.24236,-0.136172 -0.3235,-0.134409 -0.60043,-0.123473 -0.81386,-0.05609 -0.44097,0.160161 -0.64453,0.542925 -0.80822,0.938389 -0.3055,0.8001 -0.52528,1.612547 -0.76023,1.516592 -0.14041,-0.0448 -0.21449,-0.61595 -0.62936,-1.353256 -0.20602,-0.365125 -0.49706,-0.769761 -0.90487,-1.13665 -0.20355,-0.185208 -0.43674,-0.360186 -0.70097,-0.515408 -0.13194,-0.07514 -0.27376,-0.155223 -0.42192,-0.217311 l -0.22931,-0.09313 -0.11959,-0.04445 -0.004,-0.0011 c -0.0166,0.0039 0.031,-0.01023 -0.0378,0.0078 l -0.008,-0.0018 -0.0148,-0.0035 -0.0303,-0.0078 -0.0603,-0.01446 c -0.53658,-0.227541 -1.66864,-0.113594 -2.52554,0.598664 -0.4519,0.350661 -0.80398,0.873125 -1.05233,1.460147 -0.10654,0.290689 -0.19544,0.604662 -0.24695,0.921809 -0.0187,0.156986 -0.0342,0.317147 -0.0462,0.480483 l -0.008,0.122767 -0.002,0.03104 -10e-4,0.01552 -3.5e-4,0.0078 0.001,0.08925 0.002,0.04551 0.0102,0.184855 0.0134,0.186972 0.005,0.05009 0.0138,0.08114 0.0303,0.163336 c 0.0434,0.212372 0.0981,0.454025 0.16298,0.641703 0.12912,0.325613 0.272,0.659341 0.45967,0.947561 0.36513,0.596194 0.82586,1.132416 1.41711,1.602316 0.13758,0.121003 0.30939,0.228953 0.46743,0.33902 l 0.12171,0.08043 0.0307,0.02011 c 0.0254,0.02364 -0.0469,-0.0448 0.0596,0.05327 l 0.007,0.0032 0.0145,0.0071 0.0586,0.02681 c 0.078,0.03528 0.15699,0.0702 0.23707,0.106538 0.15945,0.06773 0.3235,0.137937 0.49142,0.20955 0.18238,0.06985 0.38594,0.134409 0.5782,0.194381 0.76694,0.255411 1.61502,0.294922 2.41653,0.197908 -0.17392,0.07373 -0.38135,0.144639 -0.62512,0.207786 -0.12136,0.0314 -0.25224,0.06068 -0.39265,0.08714 -0.14005,0.02681 -0.27693,0.02611 -0.42897,0.03422 -0.15064,0.0056 -0.30974,0.0071 -0.47696,0.0028 -0.16863,-7.05e-4 -0.34325,-0.01094 -0.5207,-0.04833 -0.17956,-0.03105 -0.36759,-0.0702 -0.56409,-0.117123 l -0.30021,-0.0762 -0.26282,-0.07303 c -0.17216,-0.05256 -0.34643,-0.105127 -0.52176,-0.158044 l -0.13265,-0.04304 -0.0332,-0.01058 -0.0166,-0.0056 c -0.18238,-0.16898 -0.0536,-0.04833 -0.0952,-0.08678 l -0.005,-0.0028 -0.01,-0.0049 -0.0762,-0.04233 -0.30939,-0.179917 c -0.4131,-0.252236 -0.80257,-0.546453 -1.17757,-0.89782 -0.37606,-0.349955 -0.73166,-0.760236 -1.0601,-1.258358 -0.1658,-0.246592 -0.31185,-0.550333 -0.45861,-0.842433 -0.0804,-0.220134 -0.15275,-0.454378 -0.21449,-0.691797 -0.0307,-0.118887 -0.0589,-0.239184 -0.0847,-0.360186 l -0.0438,-0.190853 -0.0367,-0.161572 -0.018,-0.08114 -0.009,-0.04057 -0.004,-0.02011 -0.002,-0.01023 -10e-4,-0.0053 c 0.003,0.129469 -0.005,-0.181328 -0.004,-0.153106 -0.01,-0.179917 -0.0169,-0.363008 -0.019,-0.547158 -0.0201,-0.359128 0.037,-0.767645 0.10266,-1.168753 0.0236,-0.19685 0.0949,-0.41275 0.1598,-0.622653 0.0706,-0.211666 0.133,-0.420511 0.23001,-0.630414 0.21696,-0.420511 0.42722,-0.847372 0.7613,-1.219552 0.15945,-0.187678 0.32032,-0.380648 0.49953,-0.546453 0.18451,-0.158397 0.37677,-0.311503 0.57362,-0.456847 0.10125,-0.07303 0.19226,-0.143581 0.3055,-0.212725 0.12207,-0.06914 0.2466,-0.135467 0.37254,-0.198614 0.25259,-0.127 0.51294,-0.2413 0.77399,-0.340431 0.0811,-0.03245 0.0945,-0.03104 0.12594,-0.03916 l 0.0882,-0.02011 0.17709,-0.03881 0.17816,-0.03704 0.0893,-0.01729 0.0222,-0.0042 0.0113,-0.0021 0.006,-0.0011 c -0.0589,0.01658 0.53304,-0.147461 0.2861,-0.07867 l 0.061,-0.0064 c 0.32844,-0.03916 0.65476,-0.05644 0.97755,-0.05503 1.28693,0.02152 2.58868,0.304447 3.80188,1.045633 0.59726,0.369712 1.16629,0.864659 1.56916,1.489428 0.20461,0.312208 0.34537,0.645936 0.4445,1.004358 0.0448,0.188384 0.0928,0.385587 0.0882,0.53975 -0.018,0.143934 -0.036,0.289984 -0.055,0.438856"
           inkscape:export-filename="C:\Users\cribb\Desktop\deleteme\path1515.png"
           inkscape:export-xdpi="150.048"
           inkscape:export-ydpi="150.048" />
        <path
           id="path1511"
           style="fill:#78501f;fill-opacity:1;fill-rule:nonzero;stroke:#845822;stroke-width:0.075;stroke-miterlimit:4;stroke-dasharray:none;stroke-opacity:1"
           d="m 109.09874,65.696139 c -0.22049,-0.04374 -0.43039,-0.08149 -0.62971,-0.113947 -0.19226,-0.04198 -0.4191,-0.02575 -0.60713,-0.03351 -0.39123,-0.02117 -0.71649,0.06844 -1.0033,0.123472 -0.28293,0.07585 -0.51682,0.191911 -0.71226,0.28822 -0.19297,0.109008 -0.34078,0.242711 -0.45861,0.357716 -0.23742,0.227542 -0.32808,0.4953 -0.35348,0.716492 -0.0229,0.227542 0.0268,0.438855 0.10336,0.638528 0.15628,0.39758 0.40146,0.757413 0.49777,1.057627 0.0497,0.148873 0.0667,0.282575 0.0286,0.391584 -0.0378,0.121002 -0.12806,0.227894 -0.30974,0.310797 -0.35278,0.20955 -1.04634,-0.0014 -2.1837,0.109361 -0.56903,0.0508 -1.22872,0.197908 -1.97167,0.51435 -0.35983,0.167217 -0.74716,0.371828 -1.13061,0.644525 -0.19861,0.132644 -0.378518,0.291747 -0.577488,0.457553 l -0.0737,0.06385 c -0.0339,0.04657 -0.0476,0.05256 -0.0723,0.08114 l -0.133,0.141464 c -0.0882,0.09878 -0.18062,0.182739 -0.26176,0.312561 -0.359483,0.491773 -0.627253,1.084439 -0.734503,1.824214 -0.10548,0.730956 -0.009,1.573742 0.30729,2.374547 0.316443,0.800453 0.829733,1.553281 1.471781,2.212975 0.64096,0.661459 1.4153,1.244953 2.29866,1.687689 0.26246,0.123825 0.53234,0.24377 0.80821,0.359128 0.25859,0.09419 0.5013,0.161925 0.76024,0.241653 0.51258,0.17145 1.03893,0.241653 1.5822,0.34925 1.08691,0.142522 2.23661,0.202494 3.4537,0.08608 1.23296,-0.1143 2.48073,-0.455084 3.70946,-0.952148 1.22449,-0.507294 2.4511,-1.22308 3.46251,-2.190397 -0.65758,0.978606 -2.19216,2.344914 -4.61786,3.254728 -0.15628,0.05715 -0.31362,0.113947 -0.47237,0.171803 -0.1464,0.04939 -0.29422,0.09948 -0.44309,0.14993 l -0.22437,0.07373 -0.11289,0.03669 -0.0568,0.01834 c 0.0138,-3.53e-4 -0.14288,0.0099 -0.0804,0.0064 l -0.008,0.0018 -0.0162,0.0035 -0.0328,0.0074 c -0.17603,0.03598 -0.35383,0.07303 -0.53269,0.109361 -0.18027,0.03528 -0.36583,0.07373 -0.55069,0.103011 -0.18415,0.02258 -0.369,0.04516 -0.55562,0.06809 -0.18944,0.02046 -0.3803,0.04163 -0.57221,0.06244 -0.19226,0.0088 -0.38523,0.01764 -0.57996,0.02611 -0.39194,0.01799 -0.7934,0.02752 -1.20156,0.0021 -0.40923,-0.01623 -0.82621,-0.03457 -1.25589,-0.100189 -0.2152,-0.02963 -0.4318,-0.05927 -0.64911,-0.08925 -0.21767,-0.02928 -0.44521,-0.09243 -0.67028,-0.141111 -0.22719,-0.05503 -0.45509,-0.11042 -0.68404,-0.165453 -0.26564,-0.08749 -0.55174,-0.197203 -0.82832,-0.306211 l -0.41804,-0.172509 -0.2032,-0.08819 -0.13194,-0.06632 c -0.17568,-0.08961 -0.35207,-0.179564 -0.5288,-0.269875 l -0.0667,-0.03387 -0.0328,-0.01729 -0.0166,-0.0088 -0.008,-0.0042 c -0.0494,-0.0321 0.0995,0.06562 -0.11323,-0.07303 l -0.16085,-0.101953 -0.32208,-0.208491 c -0.21483,-0.140406 -0.427555,-0.305859 -0.640625,-0.46355 -0.844213,-0.662517 -1.685263,-1.526822 -2.344623,-2.693106 -0.315733,-0.598311 -0.596903,-1.250597 -0.745063,-1.983316 -0.14993,-0.721784 -0.20355,-1.497189 -0.10266,-2.234142 0.031,-0.376414 0.12806,-0.722489 0.21131,-1.078442 0.0586,-0.19438 0.12806,-0.394758 0.19932,-0.588786 l 0.11113,-0.290336 c 0.0339,-0.08043 0.0515,-0.10548 0.0783,-0.160867 l 0.14888,-0.289277 0.0183,-0.03598 0.005,-0.0095 c 0.17357,-0.375355 0.0522,-0.110066 0.0924,-0.19685 l 0.0138,-0.02223 0.0547,-0.08819 0.11042,-0.175331 c 0.1464,-0.235302 0.29774,-0.464608 0.4625,-0.680155 0.64454,-0.877006 1.394216,-1.653822 2.244751,-2.322689 0.84945,-0.667103 1.80266,-1.228019 2.84935,-1.598789 1.03999,-0.372533 2.17311,-0.550333 3.25755,-0.445205 l 0.4004,0.04127 c 0.1337,0.02505 0.266,0.05644 0.39582,0.08643 0.26,0.06244 0.50729,0.11677 0.77011,0.226836 l 0.37359,0.149931 c 0.12348,0.05045 0.24025,0.101247 0.33056,0.167922 0.19226,0.125589 0.38594,0.252942 0.58208,0.381" />
        <path
           d="m 92.49722,75.229626 c 0.13546,0.259645 0.28772,0.564016 0.47646,0.892452 0.20496,0.317148 0.410533,0.684293 0.687813,1.040246 0.52071,0.738011 1.2111,1.519584 2.050013,2.263945 0.83784,0.745066 1.832163,1.448059 2.946633,2.002978 0.13203,0.06648 0.26617,0.130459 0.40154,0.192237 -0.86138,-0.01266 -1.70307,-0.02557 -2.506873,-0.03721 -0.29064,-0.0042 -0.57021,-0.0075 -0.85111,-0.01137 -0.809923,-0.404739 -1.616013,-0.817617 -2.309953,-1.234033 -0.211663,-0.125237 -0.426813,-0.228862 -0.612373,-0.356568 -0.1711,-0.115005 -0.34817,-0.233473 -0.5302,-0.355534 -0.33232,-0.220838 -0.62018,-0.406897 -0.8449,-0.545186 0.19897,0.170039 0.4646,0.386018 0.77927,0.636137 0.17392,0.136525 0.34326,0.269496 0.50695,0.397908 0.17886,0.141463 0.38807,0.256898 0.594803,0.393775 0.53923,0.361876 1.15835,0.715579 1.79679,1.054716 -0.10886,-0.0014 -0.21892,-0.0031 -0.32607,-0.0047 -0.21696,0.005 -0.43141,0.0099 -0.64131,0.01447 -0.50678,0.01743 -0.987283,0.05784 -1.445403,0.111621 -0.66284,-0.305233 -1.30678,-0.691388 -1.906333,-0.983919 -0.17745,-0.0822 -0.34405,-0.168964 -0.51056,-0.235644 -0.1531,-0.05397 -0.31288,-0.111106 -0.47904,-0.170016 -0.30269,-0.09384 -0.576843,-0.117419 -0.777221,-0.156579 0.196138,0.07091 0.459711,0.123009 0.748281,0.239778 0.1584,0.06985 0.31025,0.136978 0.4563,0.201538 0.15875,0.07514 0.31882,0.171356 0.48886,0.260966 0.48976,0.269307 1.015403,0.603524 1.579743,0.894519 -1.182903,0.166449 -2.168773,0.428701 -2.922303,0.679029 -0.715368,-0.1673 -1.447016,-0.218428 -2.096511,-0.21084 -0.814564,0.0056 -1.510378,0.125356 -1.912545,0.281636 0.420511,-0.09207 1.107908,-0.151875 1.910478,-0.117305 0.527918,0.02004 1.109689,0.0784 1.685168,0.191203 -0.509838,0.187184 -0.885609,0.356014 -1.068152,0.449068 -0.481194,0.23957 -0.910935,0.539464 -1.280542,0.866097 -0.795535,0.07169 -1.555076,0.361131 -2.169376,0.696598 -0.757414,0.411339 -1.30561,0.923069 -1.566313,1.292428 0.314325,-0.32385 0.887421,-0.774176 1.645894,-1.138949 0.530766,-0.256034 1.156406,-0.481338 1.801958,-0.578259 -0.377192,0.384408 -0.670233,0.793711 -0.848527,1.186491 -0.02033,0.04618 -0.0348,0.08939 -0.05271,0.134358 -0.601939,0.316013 -1.000608,0.906617 -1.255738,1.422653 -0.284339,0.579966 -0.403707,1.12399 -0.428397,1.460892 0.0762,-0.329142 0.238131,-0.850262 0.543636,-1.400948 0.243078,-0.437598 0.588244,-0.919398 1.047998,-1.221114 -0.08055,0.263871 -0.116986,0.505565 -0.09508,0.719853 0.0254,0.31115 0.144493,0.538876 0.344165,0.683162 0.06735,0.04718 0.141052,0.08134 0.217558,0.109554 -0.01586,0.176628 0.0112,0.356579 0.0708,0.513664 0.09278,0.255764 0.241324,0.472518 0.395841,0.655257 0.309033,0.3683 0.644161,0.609226 0.860413,0.735872 -0.19438,-0.158396 -0.503449,-0.423283 -0.784965,-0.795816 -0.141112,-0.184856 -0.275131,-0.398717 -0.354501,-0.636137 -0.04793,-0.138779 -0.06867,-0.287108 -0.05891,-0.431499 0.332766,0.0772 0.735702,0.01064 1.167371,-0.107487 0.0109,0.0388 0.02447,0.07847 0.04858,0.118856 0.0314,0.0702 0.07388,0.145922 0.14056,0.218592 0.194732,0.234244 0.47269,0.375321 0.743623,0.464571 0.27305,0.0889 0.548158,0.134166 0.803569,0.157096 0.512232,0.04304 0.949195,0.01544 1.218015,-0.01137 -0.26988,-0.01517 -0.705893,-0.02425 -1.206129,-0.09198 -0.486128,-0.07479 -1.094655,-0.200888 -1.448491,-0.610816 -0.05856,-0.0635 -0.09545,-0.128132 -0.124023,-0.188102 -0.02011,-0.03133 -0.0328,-0.06164 -0.04289,-0.09043 0.0048,-0.0014 0.0092,-0.0022 0.01395,-0.0036 0.295683,-0.08918 0.612817,-0.206272 0.945678,-0.342097 0.148486,0.06314 0.387108,0.182859 0.906402,0.259415 0.854423,0.138995 1.742293,0.04165 2.479956,-0.147794 0.74294,-0.180269 1.3317,-0.464587 1.69188,-0.640271 -0.38452,0.118534 -0.98885,0.350873 -1.7265,0.490926 -0.730963,0.14958 -1.596243,0.218075 -2.406576,0.08578 -0.317328,-0.04422 -0.536693,-0.104213 -0.699698,-0.150379 0.342138,-0.14683 0.699768,-0.312541 1.079521,-0.502812 0.20744,-0.111477 0.73105,-0.396206 1.55443,-0.726053 0.408873,-0.171097 0.903383,-0.327213 1.458303,-0.49196 0.56162,-0.150636 1.187123,-0.291961 1.843303,-0.395325 0.0935,-0.012 0.18829,-0.02434 0.28319,-0.03669 l 0.14263,-0.01912 0.0723,-0.0088 0.0362,-0.0052 0.0181,-0.0026 0.009,-10e-4 c 0.0176,-0.0014 -0.11976,0.0056 -0.0574,0.0021 0.19685,-0.01941 0.396793,-0.0388 0.598933,-0.05891 0.40428,-0.04022 0.81962,-0.08185 1.24437,-0.12454 0.844903,-0.08572 1.728183,-0.175447 2.635546,-0.267167 0.22613,-0.02328 0.45353,-0.04664 0.682128,-0.07028 0.22542,-0.0314 0.45164,-0.06298 0.67952,-0.09508 0.45436,-0.06491 0.91297,-0.129884 1.37405,-0.195854 0.92146,-0.131586 1.85223,-0.264747 2.77968,-0.397392 1.90994,-0.319969 3.72161,-0.672121 5.43895,-1.201993 0.42545,-0.130881 0.8469,-0.252698 1.24695,-0.38499 0.38488,-0.153811 0.76123,-0.304215 1.12706,-0.450618 0.18238,-0.07338 0.36309,-0.145614 0.54053,-0.216524 l 0.1323,-0.05323 0.0899,-0.03514 0.0646,-0.03256 c 0.0861,-0.04339 0.1715,-0.08566 0.2558,-0.127641 0.33619,-0.172155 0.65202,-0.352122 0.95188,-0.5271 1.19486,-0.710847 2.10224,-1.455038 2.5926,-2.10168 0.24941,-0.319617 0.37192,-0.619325 0.43822,-0.822172 0.0455,-0.206728 0.0589,-0.318844 0.0589,-0.318844 0,0 -0.0271,0.109895 -0.0977,0.308509 -0.0896,0.18803 -0.23915,0.456193 -0.51573,0.732771 -0.54328,0.558447 -1.50006,1.16362 -2.73162,1.705839 -0.30938,0.132998 -0.63314,0.267883 -0.97358,0.391708 -0.0854,0.03069 -0.17146,0.06146 -0.25786,0.0925 l -0.0651,0.02274 c -0.008,0.0029 0.0395,-0.015 0.0155,-0.0062 l -0.009,0.0021 -0.0176,0.0052 -0.0341,0.0088 -0.13798,0.03617 c -0.18485,0.04904 -0.37226,0.09889 -0.56275,0.149344 -0.38135,0.100895 -0.77299,0.205071 -1.17409,0.31161 -0.3997,0.07867 -0.80665,0.141593 -1.21905,0.214973 -1.63477,0.297745 -3.50361,0.434355 -5.30665,0.518315 -0.93663,0.02152 -1.87679,0.04359 -2.80707,0.06511 -0.36841,0.0087 -0.73368,0.01753 -1.09811,0.02636 -1.800871,-0.518155 -3.470471,-1.462139 -4.781114,-2.526963 -0.848783,-0.680156 -1.572393,-1.397426 -2.143543,-2.076876 -0.30199,-0.327025 -0.53668,-0.667039 -0.775163,-0.958081 -0.20003,-0.279752 -0.39551,-0.552371 -0.58601,-0.819071 z"
           style="fill:#bf1e2d;fill-opacity:1;fill-rule:nonzero;stroke:#d22132;stroke-width:0.0750001;stroke-miterlimit:4;stroke-dasharray:none;stroke-opacity:1"
           id="path1519" />
        <path
           d="m 112.58697,83.034317 c -0.6925,0.658636 -1.67262,1.417401 -2.94297,2.089795 -1.27,0.677334 -2.80058,1.284861 -4.4664,1.967839 -0.83115,0.3429 -1.6946,0.716734 -2.55643,1.16582 -0.43462,0.216606 -0.85757,0.473127 -1.28726,0.732772 -0.21237,0.144992 -0.42563,0.290288 -0.6387,0.435631 -0.21271,0.147111 -0.39034,0.303715 -0.58753,0.456822 -0.799398,0.6604 -1.519841,1.393317 -2.151331,2.24069 -0.60844,0.829035 -1.100943,1.727248 -1.386493,2.790526 -0.46237,0.351941 -0.93728,0.6014 -1.19269,0.730189 0.25416,-0.08196 0.70521,-0.276558 1.15703,-0.582393 -0.0257,0.139182 -0.0506,0.276561 -0.0749,0.40876 -0.0134,0.07479 -0.0272,0.148339 -0.0403,0.220657 l -0.0196,0.108003 -0.008,0.06098 -0.003,0.02842 -0.006,0.05529 c -0.0299,0.281482 -0.0463,0.548563 -0.0522,0.802534 -0.24812,0.282638 -0.53426,0.525153 -0.82992,0.690398 -0.0984,0.06456 -0.19867,0.116203 -0.299213,0.156062 -0.0991,0.04339 -0.19119,0.08872 -0.28009,0.125058 -0.1397,0.04833 -0.29261,0.102362 -0.4563,0.159159 0.16968,-0.03846 0.32853,-0.07484 0.47387,-0.107999 0.0924,-0.02893 0.18964,-0.06767 0.293013,-0.105421 0.10548,-0.03422 0.21097,-0.08108 0.31574,-0.14211 0.27471,-0.135459 0.54208,-0.343585 0.78135,-0.587044 -0.002,0.46841 0.0342,0.889399 0.10904,1.258322 0.0256,0.13258 0.0585,0.25608 0.0946,0.37517 -0.17815,0.29768 -0.40212,0.56464 -0.62993,0.7803 -0.37712,0.3637 -0.770153,0.59365 -1.027333,0.707953 0.27164,-0.073 0.693983,-0.274553 1.099673,-0.628373 0.21774,-0.18666 0.43275,-0.41931 0.6134,-0.6847 0.13219,0.36544 0.30955,0.6554 0.49765,0.86453 -0.003,0.17731 -0.0223,0.34884 -0.0791,0.502803 -0.013,0.0416 -0.0273,0.0856 -0.0418,0.13074 -0.0211,0.0363 -0.0433,0.0745 -0.0662,0.11369 -0.0452,0.0727 -0.0797,0.14847 -0.12661,0.20877 -0.0762,0.09 -0.15981,0.18888 -0.25011,0.29507 0.1023,-0.0967 0.19834,-0.18588 0.28474,-0.26768 0.0525,-0.0575 0.094,-0.13234 0.14521,-0.20464 0.0265,-0.0395 0.0522,-0.0784 0.0765,-0.11472 0.0176,-0.047 0.035,-0.0914 0.0512,-0.13436 0.0568,-0.13275 0.0875,-0.279333 0.101283,-0.431503 0.0511,0.0486 0.10235,0.0928 0.15348,0.12919 0.0749,0.0501 0.13801,0.0936 0.20257,0.13023 0.0578,0.0686 0.12681,0.140013 0.21808,0.212393 0.52531,0.37853 1.18328,0.46886 1.726563,0.51366 0.550688,0.0378 1.020338,0.008 1.309948,-0.0207 -0.29067,-0.0166 -0.75952,-0.0255 -1.299618,-0.0904 -0.502813,-0.065 -1.096593,-0.17149 -1.560673,-0.47387 0.0618,0.005 0.10683,-0.005 0.15038,-0.005 0.1242,-0.0194 0.16537,-0.0753 0.18967,-0.141593 0.0247,-0.0653 0.0293,-0.1349 -0.0522,-0.22944 -0.0208,-0.024 -0.0467,-0.0497 -0.0791,-0.0765 -0.0346,-0.0265 -0.073,-0.0572 -0.0956,-0.0925 -0.0283,-0.0335 -0.0599,-0.0688 -0.0966,-0.10334 -0.0364,-0.037 -0.0754,-0.0961 -0.12197,-0.14727 -0.0407,-0.051 -0.0829,-0.11263 -0.12454,-0.18242 0.27774,0.15878 0.56882,0.2693 0.847,0.34467 0.609623,0.15557 1.150773,0.16496 1.477451,0.12298 -0.328788,-0.009 -0.857388,-0.0631 -1.442311,-0.24442 -0.29,-0.0942 -0.59312,-0.22263 -0.87077,-0.40254 -0.0529,-0.0341 -0.10365,-0.0725 -0.15399,-0.1111 -0.0822,-0.20604 -0.15386,-0.46787 -0.19792,-0.803053 -0.0444,-0.335847 -0.0598,-0.740945 -0.0372,-1.215433 0.0113,-0.23777 0.0317,-0.492278 0.0641,-0.765326 l 0.006,-0.05168 0.003,-0.02585 0.001,-0.01291 0.0171,-0.08785 c 0.005,-0.02689 0.0104,-0.05449 0.0155,-0.08165 0.12259,0.49186 0.31964,0.957236 0.61289,1.316198 0.22436,0.274109 0.4902,0.478002 0.74985,0.595832 0.13054,0.05538 0.25796,0.09472 0.371563,0.125055 0.10089,0.0141 0.20504,0.02927 0.31264,0.04444 -0.10372,-0.02892 -0.20409,-0.05636 -0.30179,-0.08423 -0.107953,-0.04198 -0.226453,-0.09153 -0.346753,-0.15503 -0.2392,-0.134054 -0.47562,-0.342516 -0.67389,-0.61133 -0.34311,-0.464513 -0.5369,-1.09978 -0.62891,-1.741496 0.006,-0.03089 0.0112,-0.05966 0.017,-0.09095 l 0.20464,-0.631486 c 0.0794,-0.211667 0.18766,-0.425292 0.27906,-0.638723 0.21343,-0.418042 0.45312,-0.827447 0.73641,-1.212329 0.0124,-0.0172 0.0267,-0.0335 0.0393,-0.05064 -0.0386,0.470866 0.0312,0.94175 0.17726,1.335318 0.215903,0.615246 0.584223,1.051091 0.843873,1.264523 -0.22401,-0.251884 -0.54308,-0.702829 -0.720883,-1.304314 -0.14844,-0.472924 -0.19095,-1.041487 -0.0811,-1.578716 0.502713,-0.641503 1.080021,-1.242713 1.683071,-1.765781 0.0576,-0.04687 0.11462,-0.09668 0.17207,-0.145728 -0.17174,0.418426 -0.24813,0.866474 -0.27646,1.261938 -0.0413,0.552802 -4.5e-4,1.023491 0.0351,1.312064 0.01,-0.291394 0.008,-0.760592 0.076,-1.300694 0.059,-0.4844 0.18282,-1.036572 0.44802,-1.503786 0.0367,-0.029 0.0734,-0.06136 0.11007,-0.08785 l 0.56069,-0.405659 c 0.39512,-0.254354 0.78757,-0.512916 1.19786,-0.735873 0.81068,-0.462138 1.63832,-0.864025 2.44688,-1.246436 1.61608,-0.759531 3.14173,-1.483317 4.37751,-2.283064 1.23966,-0.797278 2.15456,-1.685898 2.73523,-2.441195 z"
           style="fill:#fff200;fill-opacity:1;fill-rule:nonzero;stroke:#ffff00;stroke-width:0.0750001;stroke-miterlimit:4;stroke-dasharray:none;stroke-opacity:1"
           id="path1559" />
        <path
           d="m 117.22131,73.438521 c 0,0 0.0615,0.372408 0.1695,1.02681 0.0918,0.649111 0.24953,1.610497 0.0393,2.687175 -0.0127,0.136525 -0.064,0.26815 -0.10853,0.402559 -0.0437,0.133702 -0.0884,0.270636 -0.13435,0.409278 -0.13089,0.264231 -0.25897,0.538558 -0.41807,0.806669 -0.18415,0.255411 -0.3558,0.539079 -0.55758,0.784965 -0.22438,0.258233 -0.44232,0.562984 -0.68679,0.795817 -0.94227,1.001536 -2.14343,1.957025 -3.3972,2.852022 l -0.95499,0.671277 -0.48265,0.333313 -0.11989,0.0832 -0.03,0.02067 -0.0594,0.04651 -0.0589,0.04393 -0.23358,0.17725 c -0.61771,0.462844 -1.25226,0.968513 -1.84175,1.456758 -1.18921,0.987072 -2.27544,2.013173 -3.1595,3.033407 -0.42895,0.490667 -0.80608,0.982705 -1.13119,1.456243 -0.47535,0.0195 -0.93022,0.004 -1.15807,0.02222 0.21695,0.0164 0.65212,0.05617 1.10949,0.04909 -0.32582,0.480486 -0.59801,0.940816 -0.81235,1.358572 -0.1069,0.2159 -0.20514,0.41352 -0.29404,0.59273 -0.003,0.0066 -0.004,0.01106 -0.007,0.01757 -0.14023,0.03408 -0.28301,0.0686 -0.41444,0.100254 -0.4011,0.09772 -0.73909,0.208237 -0.94723,0.274918 0.21801,-0.03422 0.56014,-0.115843 0.96583,-0.192752 0.11087,-0.02085 0.23457,-0.04795 0.35347,-0.07235 -0.0528,0.137787 -0.10575,0.275437 -0.14935,0.389123 -0.11677,0.304448 -0.19654,0.530191 -0.22014,0.670245 -0.0624,0.27305 -0.11186,0.542184 -0.14676,0.802534 -0.0151,0.2667 -0.008,0.528087 0.005,0.772562 0.009,0.122415 0.014,0.240695 0.0341,0.35605 0.0254,0.116065 0.0526,0.227457 0.0822,0.334349 0.0596,0.213783 0.12765,0.408686 0.20205,0.580842 0.35984,0.687917 0.81292,0.993482 1.20768,0.894004 0.40428,-0.10019 0.69947,-0.542227 0.9002,-1.072804 0.0649,-0.135818 0.12287,-0.277648 0.17157,-0.425815 0.0243,-0.07373 0.0462,-0.149082 0.0656,-0.226343 0.0307,-0.08396 0.0593,-0.162613 0.0858,-0.235643 0.0568,-0.159809 0.0981,-0.325327 0.13798,-0.497128 0.061,-0.171802 0.11173,-0.349454 0.15193,-0.535366 0.001,-0.01151 0.008,-0.03342 0.0108,-0.04703 0.12293,0.383267 0.29559,0.739502 0.53072,1.027326 0.22436,0.274109 0.49018,0.478521 0.74982,0.596347 0.13053,0.05538 0.25796,0.0942 0.37156,0.12454 0.10089,0.0141 0.20504,0.02927 0.31264,0.04444 -0.10372,-0.02892 -0.20409,-0.05636 -0.30179,-0.08423 -0.10795,-0.04198 -0.22645,-0.09101 -0.34675,-0.154511 -0.23918,-0.134057 -0.4756,-0.343035 -0.67386,-0.611849 -0.26346,-0.356682 -0.43766,-0.81456 -0.54674,-1.298112 0.008,-0.0273 0.0134,-0.04649 0.0222,-0.07596 0.031,-0.111831 0.0668,-0.239694 0.10697,-0.382923 0.0543,-0.140758 0.11475,-0.295754 0.18035,-0.465087 0.19222,-0.488088 0.47971,-1.089068 0.87747,-1.750799 0.0146,0.335159 0.0792,0.65971 0.18448,0.943097 0.2159,0.615596 0.58424,1.050928 0.84388,1.264005 -0.22401,-0.251532 -0.54309,-0.70231 -0.72089,-1.303798 -0.11156,-0.355158 -0.16337,-0.765032 -0.13642,-1.174605 0.10622,-0.167978 0.21139,-0.335253 0.33228,-0.509529 0.38866,-0.565274 0.85626,-1.159859 1.37304,-1.7663 -0.155,0.401095 -0.22623,0.824973 -0.25321,1.201476 -0.0413,0.552804 -9.8e-4,1.023493 0.0346,1.312066 0.009,-0.291397 0.008,-0.760429 0.0765,-1.300179 0.0653,-0.536575 0.20796,-1.156632 0.5364,-1.651579 0.0324,-0.04684 0.06,-0.08157 0.0894,-0.120406 0.22857,-0.25498 0.46496,-0.511588 0.71003,-0.768429 0.51294,-0.535869 1.02892,-1.058667 1.60042,-1.603003 l 0.21084,-0.203605 0.0527,-0.05064 0.0129,-0.01292 c -0.0378,0.03089 -0.0209,0.01684 -0.015,0.01189 l 0.0269,-0.02377 0.11059,-0.09767 0.44235,-0.391191 0.88522,-0.79375 c 1.17687,-1.076325 2.29911,-2.202729 3.20187,-3.432865 0.24306,-0.303389 0.40328,-0.603616 0.60048,-0.896069 0.20144,-0.318206 0.34546,-0.637803 0.51056,-0.941545 0.14005,-0.316794 0.24714,-0.64224 0.35192,-0.947746 0.0321,-0.160867 0.0641,-0.318839 0.0951,-0.473356 0.0303,-0.154164 0.0661,-0.303927 0.0631,-0.455269 0.0469,-0.600428 -0.008,-1.141898 -0.0961,-1.604037 -0.0819,-0.464961 -0.19299,-0.855971 -0.28009,-1.177706 -0.18768,-0.637468 -0.29507,-0.999422 -0.29507,-0.999422 z"
           style="fill:#009444;fill-opacity:1;fill-rule:nonzero;stroke:#00a34b;stroke-width:0.0750001;stroke-miterlimit:4;stroke-dasharray:none;stroke-opacity:1"
           id="path1599" />
        <path
           id="path1607"
           style="fill:#7f3f98;fill-opacity:1;fill-rule:nonzero;stroke:#aaaaaa;stroke-width:0.075;stroke-miterlimit:4;stroke-dasharray:none;stroke-opacity:1"
           d="M 118.21582,86.441483 C 118.074,86.16808 117.97593,85.87598 117.91913,85.576119 l -0.0197,-0.112536 -0.005,-0.02858 -0.005,-0.04022 -0.004,-0.05221 -0.0176,-0.208139 c -0.0169,-0.132997 -0.0113,-0.290689 -0.01,-0.44203 0.0155,-0.599017 0.13194,-1.157111 0.26353,-1.697567 0.12946,-0.536575 0.28469,-1.057275 0.39299,-1.561041 0.11077,-0.510117 0.20179,-1.013884 0.27728,-1.50107 0.14746,-0.974372 0.23636,-1.888772 0.19191,-2.679347 -0.0254,-0.392289 -0.0847,-0.759178 -0.23177,-1.048808 -0.0716,-0.146403 -0.17992,-0.258586 -0.30515,-0.329848 -0.12559,-0.07832 -0.27199,-0.07902 -0.40323,-0.08008 0.12771,-0.0187 0.28081,-0.04092 0.42863,0.0254 0.1464,0.05821 0.2861,0.173214 0.381,0.323497 0.19614,0.298803 0.29492,0.681214 0.35524,1.086556 0.11571,0.816327 0.085,1.755069 -0.0148,2.753783 -0.0522,0.499886 -0.12206,1.015294 -0.21661,1.541992 -0.0938,0.5334 -0.23318,1.055158 -0.34678,1.587147 -0.11571,0.526344 -0.21272,1.065036 -0.21872,1.579739 7e-4,0.126647 -0.007,0.248002 0.012,0.391936 l 0.0194,0.208139 0.005,0.05186 0.001,0.01305 3.6e-4,0.0032 c -0.003,-0.02646 -7.1e-4,-0.0056 -0.001,-0.01094 l 0.001,0.006 0.005,0.02293 0.0173,0.09278 c 0.048,0.246239 0.13017,0.48648 0.24306,0.705203 0.16122,0.300919 0.36266,0.515055 0.56233,0.659694 l 0.0155,0.01129 0.007,0.0063 c 0.30762,0.257528 0.63571,0.375356 0.84773,0.399697 0.21872,0.02611 0.33655,-0.02399 0.42262,-0.07373 0.0434,-0.02399 0.0677,-0.0448 0.10196,-0.06103 0.031,-0.02999 0.0568,-0.05009 0.0797,-0.06174 0.0455,-0.02328 0.078,-0.01588 0.10795,-7.06e-4 0.03,0.01552 0.055,0.0374 0.0632,0.08819 0.004,0.0254 0.004,0.05821 -0.003,0.100894 -0.018,0.04621 -0.0455,0.119592 -0.10055,0.188031 -0.0967,0.140053 -0.35101,0.305153 -0.69567,0.298803 -0.34185,-0.0049 -0.74542,-0.120298 -1.17969,-0.458259 l 0.0229,0.01729 c -0.2794,-0.187325 -0.54998,-0.474133 -0.75036,-0.850194" />
        <path
           id="path1611"
           style="fill:#1b75bc;fill-opacity:1;fill-rule:nonzero;stroke:#1e81cf;stroke-width:0.075;stroke-miterlimit:4;stroke-dasharray:none;stroke-opacity:1"
           d="m 115.73431,81.977327 c 0,0 -0.066,0.211667 -0.20567,0.576439 -0.13758,0.3683 -0.36795,0.879475 -0.67522,1.483783 -0.60924,1.210381 -1.57268,2.7559 -2.45392,4.351867 -0.43709,0.799041 -0.85513,1.612194 -1.17545,2.401358 -0.32315,0.788458 -0.55386,1.5494 -0.66993,2.217208 -0.2413,1.344084 0.0127,2.25425 0.0543,2.478617 0.0811,0.458964 0.1591,0.879475 0.14111,1.247422 0.007,0.3556 -0.0811,0.657931 -0.28998,0.781403 -0.20779,0.123472 -0.508,0.0321 -0.83362,-0.253647 -0.30021,-0.29457 -0.62336,-0.797278 -0.73871,-1.426986 -0.0173,-0.07726 -0.0459,-0.212725 -0.0586,-0.401462 -0.0191,-0.188383 -0.0416,-0.426508 -0.0332,-0.707672 0.002,-0.560211 0.0868,-1.28658 0.3168,-2.060222 0.44662,-1.562805 1.45591,-3.243086 2.54423,-4.744508 1.08726,-1.509889 2.2165,-2.907947 2.96051,-4.023078 0.37395,-0.554919 0.66358,-1.031169 0.84244,-1.374422 0.18274,-0.343606 0.27481,-0.5461 0.27481,-0.5461" />
        <path
           id="path1631"
           style="fill:#b4b4b4;fill-opacity:1;fill-rule:nonzero;stroke:#aaaaaa;stroke-width:0.075;stroke-miterlimit:4;stroke-dasharray:none;stroke-opacity:1"
           d="m 117.70528,80.711596 c -0.031,0.104069 -0.38876,0.427214 -0.46179,0.369358 -0.0723,-0.05786 0.10795,-0.10548 0.14041,-0.497416 0.0325,-0.392995 0.1076,-1.064684 0.19932,-1.376186 0.0917,-0.311856 0.53728,-1.406878 0.6096,-1.349728 0,0 -0.0843,0.118533 -0.16016,0.790928 -0.0741,0.672747 -0.1016,1.158875 -0.19791,1.453091 -0.0967,0.293864 -0.0991,0.505884 -0.12947,0.609953 m 13.55937,-2.947105 c -0.11818,-0.23495 -0.67698,-1.054806 -0.88301,-1.237898 -0.20637,-0.184855 -0.17568,-0.1778 -0.23142,-0.250119 -0.054,-0.07232 -0.0977,-0.07585 -0.0533,-0.151695 0.0455,-0.07655 -0.0582,-0.30868 -0.12876,-0.41275 -0.0699,-0.104069 -0.0773,-0.02258 -0.091,-0.15628 -0.0127,-0.133703 -0.0857,-0.222603 -0.19755,-0.316442 -0.11078,-0.09278 -0.097,-0.125236 -0.12912,-0.304447 0,0 0.81809,-0.685447 0.74295,-0.826911 -0.01,-0.09172 -0.25718,-0.407811 -0.43603,-0.541514 -0.17922,-0.132997 -0.25048,-0.187325 -0.39159,-0.424392 -0.14005,-0.237066 -0.15734,-0.440972 -0.20955,-0.614538 -0.0526,-0.172862 -0.41663,-0.605014 -0.54821,-0.779287 -0.13159,-0.174977 -0.19474,-0.252236 -0.25048,-0.467077 -0.0568,-0.216606 -0.45861,-0.875242 -0.83432,-1.547636 -0.37606,-0.6731 -1.49965,-1.395942 -1.96603,-1.692275 -0.46566,-0.297039 -0.83255,-0.684036 -1.46402,-1.283759 -0.63042,-0.599369 -1.9611,-0.900994 -2.55023,-0.978252 -0.58844,-0.07796 -0.99731,0.122061 -1.2887,0.08255 -0.0183,-0.0028 -0.0374,-0.0046 -0.0554,-0.006 -0.28681,-0.02223 -0.66146,0.06068 -0.72284,0.05715 -0.0667,-0.0049 -0.28116,-0.164747 -0.39123,-0.259291 -0.11148,-0.09278 -0.20249,-0.05503 -0.45791,-0.290689 -0.25611,-0.236361 -0.29915,-0.181681 -0.48859,-0.219075 -0.1898,-0.03704 -0.39547,-0.192264 -0.56974,-0.391936 -0.17427,-0.200025 -0.30762,-0.488598 -0.38488,-0.677334 -0.078,-0.188736 -0.0589,-0.20073 -0.19755,-0.344664 -0.13794,-0.144638 -0.45862,-0.04727 -0.52952,0.01517 -0.0698,0.06068 -0.16581,0.136525 -0.24977,0.143228 -0.0847,0.0085 -0.26035,-0.0039 -0.3422,-0.01164 -0.0258,-0.0028 -0.049,0.0042 -0.0705,0.01517 -0.002,7.06e-4 -0.0184,0.0056 -0.0328,0.02152 -0.0293,0.02469 -0.0515,0.05715 -0.066,0.08678 -0.0123,-0.01799 -0.0247,-0.03104 -0.0381,-0.04198 -0.006,-0.0056 -0.0123,-0.0099 -0.0194,-0.01446 -0.004,-0.0021 -0.008,-0.0042 -0.012,-0.0071 -0.008,-0.0035 -0.0152,-0.0074 -0.024,-0.01023 -0.004,-7.06e-4 -0.008,-0.0014 -0.0127,-0.0021 -0.01,-0.0021 -0.0205,-0.0028 -0.0311,-0.0028 -0.0113,0 -0.0219,0.0014 -0.0307,0.0028 l -3.5e-4,-0.0028 c 0,0 -0.005,0.0028 -0.0127,0.0063 -0.0102,0.0042 -0.018,0.0067 -0.0222,0.0095 -0.0102,0.0078 -0.061,0.03387 -0.11289,0.05786 -10e-4,7.06e-4 -0.003,0.0014 -0.004,0.0021 -0.004,7.06e-4 -0.0102,0.0035 -0.0183,0.0085 -0.0138,0.0053 -0.0279,0.01164 -0.0402,0.01623 -0.0356,0.0127 -0.0833,0.01517 -0.13652,-0.01517 -0.0198,-0.01305 -0.0392,-0.03034 -0.0589,-0.04939 -0.007,-0.0078 -0.0145,-0.01376 -0.0215,-0.02364 v 7.06e-4 c -0.0176,-0.01693 -0.0335,-0.03704 -0.0483,-0.05503 -0.0645,-0.08396 -0.1397,-0.151694 -0.22754,-0.128058 -0.0875,0.02187 -0.18415,0.177094 -0.21166,0.23495 -0.0286,0.05786 -0.23143,0.333375 -0.38841,0.503767 -0.15699,0.170038 -0.37324,0.08996 -0.5401,0.05362 -0.16757,-0.03528 -0.35278,0.09243 -0.35278,0.09243 -0.007,-0.0071 -0.11324,0.01023 -0.11395,0.0074 0,0 -0.0176,-0.0074 -0.0201,-0.0067 -0.0145,0.01023 -0.0236,0.04727 -0.0399,0.05997 -0.005,0.0032 -0.005,0.01905 -0.0102,0.02258 -0.0145,0.01164 -0.0286,0.03034 -0.0444,0.04269 -0.006,0.0056 -0.0113,0.01376 -0.0176,0.0187 -0.0148,0.01235 -0.03,0.02752 -0.0448,0.04127 -0.008,0.0063 -0.0152,0.01305 -0.0233,0.02081 -0.0148,0.01235 -0.0296,0.02681 -0.0448,0.04057 -0.008,0.0081 -0.0169,0.01587 -0.0265,0.02399 -0.0148,0.01376 -0.0289,0.02752 -0.0437,0.04198 -0.01,0.0092 -0.0198,0.0187 -0.0296,0.02822 l -0.0423,0.04163 c -0.0106,0.01023 -0.0219,0.02117 -0.0328,0.0321 -0.0134,0.01376 -0.0268,0.02716 -0.0402,0.04092 -0.012,0.01235 -0.0243,0.02399 -0.0356,0.03634 -0.013,0.01305 -0.0247,0.0254 -0.0381,0.03916 -0.0123,0.0134 -0.0247,0.02646 -0.037,0.03951 -0.012,0.01235 -0.0243,0.0254 -0.0356,0.03704 -0.0131,0.01517 -0.0265,0.02893 -0.0399,0.04339 -0.0102,0.01164 -0.0208,0.02293 -0.0307,0.03387 -0.0145,0.01658 -0.0296,0.03316 -0.0437,0.04974 -0.008,0.0088 -0.0166,0.01834 -0.0254,0.02752 -0.0219,0.0254 -0.0437,0.05009 -0.0642,0.07444 -0.34819,0.407106 -0.70838,1.293284 -0.59126,2.07645 0.11642,0.782814 0.62371,1.486253 1.11231,1.899708 0.48895,0.41275 0.72954,0.508706 0.95532,0.600781 0.22578,0.09313 0.47837,0.178506 0.66393,0.173567 0.18627,-0.0053 0.32808,-0.150636 0.37253,-0.204611 0.0427,-0.05433 0.1517,-0.162631 0.1517,-0.162631 0,0 0.0628,0.02011 0.12382,0.06209 0.0614,0.04127 0.10478,0.124178 0.23072,0.112536 0.12735,-0.01129 0.15169,-0.140053 0.26317,-0.262819 0.11218,-0.122414 0.15769,-0.170039 0.18909,-0.214137 0.0321,-0.0441 0.13159,-0.243063 0.14111,-0.288572 0.01,-0.04621 0.14746,-0.182739 0.23037,-0.247297 0.0843,-0.06491 0.0847,-0.231069 0.1471,-0.239183 0.007,-0.0021 0.0166,-0.0035 0.0261,-0.0056 0.072,-0.01446 0.20214,-0.05221 0.29422,-0.06385 -0.30868,0.612423 -0.24907,1.173339 -0.1584,1.524706 0.0914,0.350661 0.0395,0.400403 0.0589,0.697089 0.0194,0.297744 0.14605,0.674511 0.16581,0.748947 0.0187,0.07444 -0.13864,0.575381 -0.17075,1.116895 -0.0321,0.541161 0.10901,1.419577 0.11325,1.627011 0.003,0.208138 0.0628,0.408516 0.0476,0.433916 -0.0155,0.0254 -0.0734,0.213784 -0.0882,0.325261 -0.12277,0.219075 -0.46955,1.072092 -0.62548,1.860903 -0.15487,0.78987 -0.25012,1.910644 -0.27869,2.134658 -0.0279,0.222603 -0.14817,0.77717 -0.27376,1.016353 -0.12418,0.238478 -0.13476,0.457553 -0.15557,0.636058 -0.20814,0.06809 -0.393,0.206728 -0.47872,0.301625 -0.0854,0.09384 -0.22472,0.226837 -0.25788,0.244828 -0.0335,0.01764 -0.16828,0.09137 -0.21626,0.128059 -0.16862,0.03034 -0.32349,0.04057 -0.42686,0.03845 -0.0141,-0.0025 -0.0282,-0.0053 -0.0406,-0.0088 -0.0727,-0.02011 -0.14464,-0.02223 -0.21096,-0.0187 -0.0603,-7.06e-4 -0.13088,0.0028 -0.2039,0.01164 -0.14711,0.01658 -0.46003,0.0042 -0.5267,0.02152 -0.0346,0.0088 -0.12418,0.02258 -0.20426,0.06209 -0.0995,0.03986 -0.17533,0.111477 -0.14429,0.239536 0.0438,0.190147 0.29845,0.153105 0.49954,0.153105 0.20214,7.06e-4 0.39899,0.03669 0.73378,0.107598 0.3115,0.06597 0.39616,0.05997 0.4452,0.148166 -0.003,-0.0028 -0.007,-0.0056 -0.0109,-0.0092 0.0219,0.0635 0.0286,0.12065 -0.0586,0.175683 -0.0395,0.02011 -0.0861,0.0381 -0.13017,0.05786 -0.0529,0.01799 -0.0998,0.03245 -0.14323,0.04621 -0.0815,0.02081 -0.16122,0.03528 -0.21731,0.06209 -0.0325,0.01588 -0.0776,0.0448 -0.13088,0.07937 -0.0243,0.01235 -0.0501,0.02681 -0.0773,0.04198 -0.15205,0.08678 -0.37006,0.18662 -0.53657,0.263172 -0.008,0.0035 -0.0169,0.0074 -0.0247,0.01094 -0.078,0.03598 -0.14287,0.06562 -0.18133,0.08396 -0.11042,0.05539 -0.30374,0.155927 -0.24588,0.357716 -3.6e-4,-0.0074 -3.6e-4,-0.01517 -3.6e-4,-0.02258 0.01,0.06809 0.0487,0.132292 0.10196,0.18027 0.11888,0.109008 0.35172,-0.04798 0.45296,-0.122414 0.007,-0.0049 0.0166,-0.01129 0.0258,-0.01658 0.0808,-0.02611 0.17568,-0.06068 0.27128,-0.09454 0.3175,-0.108656 0.73096,-0.219075 1.03682,-0.3429 0.0166,0.01164 0.0423,0.02469 0.0716,0.03634 -0.003,0 -0.007,-7.05e-4 -0.007,-7.05e-4 0,0 0.009,0.0021 0.0233,0.0063 0.0222,0.0081 0.0462,0.01517 0.0695,0.01905 0.0399,0.01305 0.0794,0.02752 0.0815,0.03739 -0.003,0.006 -0.006,0.01305 -0.0116,0.02046 -0.0497,0.06491 -0.24835,0.257175 -0.32879,0.327378 -0.0942,0.08149 -0.20884,0.169686 -0.27199,0.25788 -0.0635,0.08819 -0.12806,0.255412 -0.21484,0.336903 -0.0875,0.07973 -0.38841,0.417336 -0.49636,0.582084 -0.0201,0.03034 -0.0282,0.06209 -0.031,0.09454 -0.0152,0.07373 0.006,0.138289 0.066,0.217664 0.0303,0.03986 0.0684,0.05997 0.10936,0.06738 0.0162,0.0063 0.0339,0.0099 0.0497,0.0085 -0.003,-0.0014 -0.005,-0.0042 -0.007,-0.0063 0.10937,-0.0014 0.22649,-0.07373 0.266,-0.10548 0.0593,-0.04939 0.28399,-0.347839 0.32385,-0.381706 0.0381,-0.03422 0.21731,-0.214842 0.32702,-0.305858 0.11148,-0.09172 0.22578,-0.169334 0.30304,-0.261056 0.0762,-0.09243 0.13723,-0.09842 0.22684,-0.160514 0.0698,-0.04762 0.18803,-0.108303 0.28645,-0.170391 0.0296,-0.01764 0.0575,-0.03704 0.0773,-0.05362 0.0579,0.174978 0.0138,0.347134 -0.061,0.474839 -0.0748,0.127353 -0.12418,0.436034 -0.17427,0.548922 -0.0494,0.113948 -0.27517,0.603603 -0.29246,0.760237 -0.0145,0.127352 0.084,0.196144 0.21943,0.207433 0.004,0 0.007,3.53e-4 0.0106,0.0011 0.018,0.0028 0.0346,0.0021 0.0512,-7.05e-4 0.0109,0 0.0212,0 0.0314,-0.0011 -0.003,-0.0014 -0.006,-0.0021 -0.01,-0.0035 0.13688,-0.03951 0.21378,-0.237773 0.27199,-0.348192 0.0677,-0.127353 0.12806,-0.301625 0.24553,-0.475897 0.11818,-0.174978 0.16616,-0.341136 0.23284,-0.5842 0.0286,0.0039 0.0607,0 0.0935,-0.0078 0.0367,-0.0035 0.0762,-0.02011 0.12242,-0.04621 0.0896,-0.04551 0.17991,-0.111478 0.25682,-0.174273 0.2473,-0.174977 0.24871,-0.195791 0.57997,-0.376061 0.17321,-0.09454 0.2667,-0.163336 0.34889,-0.224014 0.0229,0.02963 0.0751,0.08749 0.1771,0.144639 0.1464,0.0822 0.44026,0.125589 0.62441,0.149578 0.18415,0.02469 0.3235,-0.141111 0.32773,-0.276225 0.002,-0.135819 -0.0935,-0.192264 -0.23389,-0.232128 -0.1404,-0.04092 -0.19685,-0.07444 -0.37006,-0.187677 0.0497,-0.01235 0.17356,-0.102659 0.254,-0.173567 0.0452,-0.01658 0.0942,-0.03175 0.14393,-0.04833 0.3242,-7.05e-4 0.42439,-0.122413 0.45791,-0.19685 0.0624,-0.14605 -0.0191,-0.239888 -0.13335,-0.3302 0.0903,-0.0695 0.20461,-0.28575 0.3175,-0.509763 0.0134,-0.02222 0.0254,-0.04269 0.0374,-0.06209 0.0229,-0.03916 0.0385,-0.07655 0.0515,-0.112184 0.0109,-0.02152 0.0215,-0.04339 0.0328,-0.0635 0.14993,-0.288572 0.18979,-0.764822 0.26176,-1.19133 0.0713,-0.426509 0.31185,-0.997656 0.50306,-1.426281 0.19085,-0.428625 0.34254,-0.784577 0.45367,-1.135591 0.11042,-0.350661 0.12382,-0.853017 0.21661,-1.271059 0.0935,-0.417689 0.10442,-0.468489 0.1337,-0.576791 0.0296,-0.10795 0.024,-0.202495 0.0212,-0.269523 -0.003,-0.06668 0.0621,-0.275519 0.18451,-0.67698 0.121,-0.400403 0.1972,-1.0668 0.23036,-1.425575 0.0339,-0.359128 0.0377,-0.667808 0.0377,-0.667808 0,0 0.37218,0.279047 0.65899,0.360186 0.28751,0.08149 0.69638,0.1016 0.79904,0.104775 0.10195,0.0035 0.25682,0.110419 0.35419,0.242005 0.2219,0.709789 0.35348,0.680156 0.49001,0.669572 0.0455,0.578909 0.26282,0.518937 0.3369,0.547864 0.0751,0.02893 0.1203,0.01658 0.12947,0.12947 -0.0787,0.174272 -0.0935,0.561622 -0.0826,0.751064 0.0106,0.188736 0.16087,0.323144 0.26917,0.371475 -0.006,0.0074 -0.0138,0.01729 -0.0201,0.02822 -0.0804,0.135819 -0.14534,0.513292 -0.10936,0.620183 -0.0794,0.13582 -0.0762,0.298097 -0.0836,0.414867 -0.0727,0.01905 -0.10231,0.161219 -0.10724,0.21978 -0.003,0.05644 0.0459,0.284339 0.0293,0.452614 -0.0395,0.102659 -0.0607,0.190853 -0.0268,0.223309 -0.003,0.07514 0.003,0.153458 0.0318,0.265994 0.0536,0.206375 0.19367,0.486833 0.33513,0.95885 0.14217,0.472017 0.33973,0.939094 0.5768,1.406525 0.236,0.465667 0.0942,0.396875 0.17109,0.693561 0.0773,0.297039 0.11078,0.394406 0.0529,0.687211 -0.0582,0.293511 0.20673,0.426509 0.32985,0.605367 0.12312,0.179211 0.20002,0.398992 0.15416,0.593372 -0.0448,0.194381 -0.16263,0.589844 -0.10089,0.977194 0.0617,0.386292 -0.0152,0.829381 -0.0885,1.213203 -0.073,0.383822 -0.0363,0.710495 0.0579,0.886884 0.0942,0.1778 0.27588,0.360891 0.41875,0.688269 0.14323,0.327378 0.36477,0.443089 0.3743,0.478719 0.009,0.03598 -0.26106,0.547864 -0.3556,0.553509 -0.0952,0.0053 -0.41346,0.183797 -0.90452,0.436739 -0.49142,0.25153 -0.74542,1.009297 -0.97684,1.338086 -0.23143,0.329494 -0.90417,1.434394 -1.08092,1.86443 -0.17603,0.429331 -0.38593,0.657225 -0.54962,0.987425 -0.16369,0.330553 -0.24095,0.513997 -0.44733,0.60572 -0.20637,0.09207 -0.32349,0.08396 -0.52563,0.232833 -0.20109,0.148167 -0.0949,0.187325 -0.28364,0.236361 -0.18909,0.04939 -0.52281,0.240947 -0.65652,0.430036 -0.1337,0.188031 -0.11853,0.357364 -0.37535,0.548922 -0.25788,0.191559 -0.30904,0.474134 -0.26988,0.627239 -0.3623,0.04586 -0.62336,0.334786 -0.70767,0.711553 -0.0847,0.376767 0.36618,1.594556 0.49177,2.003074 0.12594,0.408518 0.3041,1.207898 0.45579,2.013268 0.0314,0.165453 0.0829,0.327383 0.14781,0.482953 0.11007,0.29281 0.27059,0.59338 0.50554,0.8509 0.1725,0.22402 0.34889,0.41346 0.49036,0.55739 0.37747,0.38171 0.90558,0.41769 1.2065,0.32033 0.41839,-0.2286 0.43356,-0.79093 0.37712,-1.18498 -0.002,-0.0187 -0.005,-0.0363 -0.008,-0.0536 0.004,0.0131 0.008,0.0296 0.0145,0.0455 0.003,0.007 0.005,0.0138 0.008,0.0198 0.003,0.0106 0.007,0.0201 0.0113,0.0303 0.12841,0.3115 0.52952,0.95038 0.77964,1.15217 0.27975,0.22507 0.44979,0.0653 0.60784,-0.0236 0.3115,-0.35877 0.1337,-0.9659 0.0892,-1.13665 -0.0444,-0.1711 -0.12594,-0.48507 -0.0667,-0.66428 0.0593,-0.1778 0.0942,-0.30303 0.0751,-0.375003 -0.018,-0.0723 -0.018,-0.29281 0.0459,-0.45331 0.0635,-0.16051 0.0289,-0.25681 0.06,-0.32243 0.0272,-0.0579 0.0511,-0.1605 0.0843,-0.27622 -0.0575,0.21978 -0.0346,0.46496 -0.0346,0.46496 l 0.11148,-0.0102 c 0,0 0.0441,-0.42368 0.0607,-0.58137 0.44309,0.37393 0.48789,-0.0787 0.40569,-0.17322 -0.0818,-0.0935 -0.12382,-0.25541 -0.15169,-0.36371 -0.0282,-0.1076 0.019,-0.14958 0.0272,-0.265988 0.23813,-0.0811 0.23636,-0.272702 0.16722,-0.389119 0.0148,-0.02152 0.0286,-0.04092 0.0402,-0.06068 0.004,-0.0056 0.006,-0.01164 0.01,-0.01729 0.008,-0.01446 0.0152,-0.02752 0.0219,-0.04057 0.002,-0.0063 0.006,-0.01164 0.008,-0.01799 0.007,-0.01446 0.0123,-0.02681 0.0169,-0.03986 0.001,-0.0042 0.004,-0.0092 0.005,-0.01235 0.006,-0.01729 0.0113,-0.03316 0.0148,-0.04904 0,-0.0021 3.6e-4,-0.0049 0.001,-0.0071 0.002,-0.01305 0.004,-0.02611 0.006,-0.03704 3.5e-4,-0.0049 3.5e-4,-0.0095 10e-4,-0.01446 3.6e-4,-0.0092 3.6e-4,-0.01799 3.6e-4,-0.02611 v -0.01446 l -0.003,-0.02505 c -7e-4,-0.0025 -10e-4,-0.0067 -0.002,-0.01023 -0.002,-0.01023 -0.005,-0.02011 -0.008,-0.02893 -0.002,-0.0042 -0.004,-0.0088 -0.006,-0.01376 -0.002,-0.0042 -0.004,-0.0078 -0.007,-0.01164 -0.003,-0.0049 -0.005,-0.0092 -0.008,-0.01376 -0.002,-0.0021 -0.003,-0.0042 -0.005,-0.0071 -0.0183,-0.02328 -0.0395,-0.03916 -0.0617,-0.04621 -0.0254,-0.0081 -0.0286,-0.01305 -0.049,0.0014 0,0 -0.4438,-0.1397 -0.4445,-0.143933 l -7.1e-4,-0.0028 c -0.0134,-0.0508 -0.0102,-0.09031 -0.0102,-0.09031 0.22931,-0.117122 0.21237,-0.281164 0.23742,-0.460022 0.0254,-0.179917 0.18874,-0.192969 0.43321,-0.415572 0.24518,-0.221192 0.21167,-0.170392 0.5775,-0.480131 0.36583,-0.311502 0.2032,-0.542572 0.33725,-1.024114 0.13406,-0.481541 0.0854,-0.555272 0.39335,-0.923219 0.30727,-0.367947 0.36054,-0.381705 0.7687,-0.861836 0.40852,-0.481189 0.90382,-1.343731 0.97685,-1.507067 0.0296,-0.06526 0.0762,-0.137583 0.14993,-0.221191 -3.6e-4,0.0035 -0.002,0.0078 -0.002,0.01058 0.0526,-0.05186 0.10407,-0.104775 0.1531,-0.159456 0.0991,-0.08749 0.22684,-0.186619 0.38947,-0.298097 0.44062,-0.301978 0.62124,-0.434975 0.94262,-0.806097 0.32103,-0.371475 0.65546,-0.746478 0.82973,-1.131006 0.1711,-0.376061 0.32844,-0.897466 0.46532,-1.45168 0.13617,-0.554567 0.12841,-1.805164 0.13652,-2.383367 0.008,-0.577144 0.0755,-0.624064 0.0991,-1.003652 0.0229,-0.381 0.0434,-0.609953 0.14782,-1.068917 0.10407,-0.458611 0.14781,-1.118306 0.0508,-1.963561 -0.097,-0.846667 -0.12206,-0.969433 -0.066,-1.502128 0.0561,-0.5334 -0.0557,-1.238955 -0.17427,-1.475316" />
      </g>
    </g>
  </g>
</svg>
