<?xml version="1.0" encoding="UTF-8"?>
<svg width="48px" height="48px" version="1.1" viewBox="0 0 47 47" xmlns="http://www.w3.org/2000/svg">
 <g transform="translate(-95.602 -59.959)">
  <path d="m123.66 83.671c-0.0106-0.02152-0.018-0.04198-0.0229-0.06068 4e-3 0.04833 0.0314 0.07796 0.0229 0.06068" fill="#4c4d4f"/>
  <path d="m127.14 83.929c-0.0275-0.0021 0.10795-0.02893 0.3175-0.22049 0.20884-0.19015 0.3302-0.30868 0.49601-0.47413 0.16545-0.16545 0.51046-0.49953 0.59654-0.52917 0.0861-0.02963 0.33338-0.13018 0.48401-0.10407 0.15064 0.02575 0.43286 0.0028 0.5073-0.01658 0.0741-0.01905-8e-3 0.05256-0.11924 0.09525-0.11148 0.0441-0.28363 0.04551-0.53023 0.06667-0.24588 0.02081-0.43215 0.08361-0.55421 0.19438-0.12206 0.11042-0.0487 0.09172-0.30127 0.3369-0.25294 0.24624-0.77964 0.65617-0.89641 0.65123" fill="#4c4d4f"/>
  <g stroke="#aaa">
   <g stroke-width=".075">
    <path d="m128.3 94.49c-0.26882 0.35631-0.67522 0.61877-1.1127 0.72037-0.43956 0.0956-0.89359 0.04233-1.2915-0.11254-0.0995-0.03951-0.19368-0.08855-0.28998-0.13406-0.0893-0.05539-0.18063-0.10866-0.26706-0.16792-0.0868-0.06879-0.15557-0.115-0.25505-0.2039l-0.19721-0.18909-0.19649-0.18909-0.19403-0.23883-0.18944-0.2413-0.15064-0.25576c-0.40076-0.68439-0.55033-1.4803-0.52176-2.2137 0.0286-0.7373 0.19967-1.4238 0.39935-2.0588 0.20214-0.63676 0.44273-1.2245 0.66816-1.7798 0.0557-0.13794 0.11147-0.27446 0.16651-0.41028 0.0303-0.07161 0.0483-0.12524 0.0882-0.2099l0.0924-0.19368c0.12982-0.26352 0.26106-0.50059 0.38171-0.73484 0.24377-0.4639 0.43638-0.90558 0.48471-1.3346 0.0466-0.42686-0.0699-0.82162-0.248-1.1208 0.22084 0.266 0.40181 0.66075 0.40358 1.1285-3.6e-4 0.46672-0.16334 0.96132-0.37042 1.4517-0.10477 0.24765-0.21096 0.49918-0.3182 0.75353l-0.0776 0.19897c-0.0194 0.04621-0.0441 0.13159-0.0663 0.19544-0.0462 0.14005-0.0924 0.28081-0.13935 0.42263-0.18803 0.56832-0.39158 1.1613-0.55456 1.7812-0.16157 0.61912-0.28963 1.2686-0.28999 1.9223 3.6e-4 0.65158 0.14994 1.3003 0.49248 1.8542l0.12771 0.20779 0.15063 0.18133 0.14888 0.18344 0.20037 0.1845 0.20003 0.18556 0.17533 0.133 0.19861 0.121c0.0699 0.02999 0.13865 0.06562 0.2092 0.09278 0.28363 0.10583 0.58702 0.13264 0.86395 0.07232 0.27411-0.06914 0.51541-0.22507 0.68792-0.44944 0.11183-0.16828 0.16757-0.25859 0.23954-0.48754 0.0504-0.14217 0.0501-0.24377 0.0194-0.34996-0.0568-0.21061-0.25894-0.38947-0.4438-0.49742-0.18944-0.11218-0.37641-0.16016-0.51223-0.17427-0.1404-0.0095-0.20426 0.01517-0.23918 0.0314-0.0349 0.01975-0.0706 0.06985-0.0843 0.12841-0.0162 0.05609-0.0356 0.09031-0.0444 0.14111-0.0226 0.08855-0.066 0.1143-0.11571 0.127-0.0494 0.01305-0.10019 0.01164-0.16333-0.05433-0.0303-0.02575-0.0684-0.10478-0.091-0.20638-0.0229-0.09701-0.0349-0.26705 0.0882-0.46108 0.0642-0.09208 0.16087-0.17604 0.27482-0.23036 0.11253-0.05186 0.23742-0.08079 0.36724-0.08996 0.25718-0.01235 0.54046 0.0381 0.83855 0.18415 0.28611 0.15028 0.64382 0.38523 0.81774 0.88406 0.0864 0.24342 0.0776 0.5521-0.0138 0.80363-0.0448 0.17145-0.18415 0.48507-0.34713 0.69921" fill="#262261" stroke="#2a256b"/>
    <path d="m128.34 75.616s-1e-3 0.11218-3e-3 0.32385c-7.1e-4 0.10548-2e-3 0.23636-3e-3 0.38982-7e-4 0.07726-1e-3 0.16016-2e-3 0.24836-4e-3 0.08819-0.0236 0.18168-0.0356 0.28116-0.0293 0.20108-0.0614 0.42369-0.0963 0.66604-0.0614 0.23636-0.14076 0.49001-0.22013 0.76588-0.0825 0.27446-0.23248 0.54257-0.35984 0.84279-0.14816 0.28787-0.34254 0.57185-0.53657 0.87595-0.85443 1.1582-2.2133 2.2546-3.829 3.0868-1.6101 0.85972-3.4445 1.5349-5.2938 2.1766l0.0684-0.02223c-2.0302 0.86642-4.1247 1.4838-5.8293 2.3587-0.2233 0.09807-0.41275 0.22895-0.61595 0.34184-0.19649 0.11959-0.4071 0.22049-0.57926 0.35807-0.17921 0.12841-0.35736 0.25541-0.53375 0.381l-0.0663 0.04692-0.0166 0.01199c-0.018 0.01235 0.0205-0.01482 0.0145-0.01058l-4e-3 0.0039-9e-3 0.0071-0.036 0.02928-0.14464 0.11712-0.28645 0.23142c-0.37606 0.30727-0.76167 0.60748-1.1074 0.9017-0.30306 0.29281-0.59833 0.5782-0.88408 0.85443-0.29246 0.25894-0.54716 0.56656-0.79763 0.84949-0.24659 0.2861-0.49848 0.54751-0.71226 0.81668-0.2032 0.27622-0.39617 0.53834-0.57785 0.78564-0.18062 0.24659-0.36301 0.46919-0.48895 0.70379-0.27834 0.45438-0.51153 0.83573-0.69321 1.1321-0.15312 0.31468-0.26742 0.54046-0.33621 0.66534-0.13123 0.23918-0.27269 0.46567-0.42157 0.6798-0.12735 0.22401-0.25611 0.4385-0.39617 0.63782-0.27728 0.39934-0.59584 0.74048-0.85548 1.0442-0.55491 0.58985-1.174 0.92745-1.6958 0.79375-0.52176-0.13335-0.84314-0.74295-0.91582-1.6842-0.0547-0.47519 0.0279-1.0033 0.16687-1.5801 0.0705-0.28787 0.15452-0.58808 0.26247-0.89147 0.12911-0.29139 0.27622-0.58914 0.43991-0.88618 0.0854-0.15558 0.24483-0.42686 0.46778-0.79692 0.25436-0.34184 0.58209-0.78211 0.97191-1.3063 0.1852-0.26599 0.42755-0.5147 0.67414-0.7881 0.24801-0.26988 0.51188-0.55704 0.78952-0.85937 0.28646-0.28998 0.61207-0.56727 0.93734-0.86819 0.32879-0.29704 0.65864-0.61136 1.059-0.89852 0.38559-0.2921 0.78387-0.59408 1.1931-0.90382 0.39864-0.2674 0.79975-0.51188 1.2136-0.77752l0.31151-0.19685 0.15664-0.09913 0.0395-0.02505 0.0388-0.02611 0.0229-0.0127 0.0924-0.05151c0.24625-0.13582 0.49461-0.27305 0.7451-0.41134 0.24765-0.14746 0.51047-0.242 0.76835-0.35948 0.25964-0.1076 0.51893-0.23707 0.78316-0.31962 2.1142-0.77576 4.2679-1.1278 6.2272-1.7053l0.0688-0.02258c1.8856-0.41028 3.7091-0.8442 5.3075-1.4637 1.6087-0.5962 2.9535-1.4393 3.8728-2.4038 0.89853-0.97861 1.3413-2.0549 1.494-2.8145 0.024-0.09525 0.0554-0.1838 0.0695-0.27058 0.0116-0.08749 0.0222-0.16933 0.0321-0.24589 0.0205-0.1524 0.0378-0.28187 0.0515-0.387 0.0279-0.2099 0.0427-0.32068 0.0427-0.32068" fill="#f7931d" stroke="#ffa220"/>
    <path d="m127.65 73.329s0.0621 0.08643 0.17851 0.24941c0.11994 0.16051 0.28751 0.4004 0.48506 0.72355 0.19897 0.32173 0.42299 0.72531 0.62548 1.2217 0.1083 0.24483 0.18344 0.52282 0.27411 0.8128 0.0589 0.29774 0.14464 0.61136 0.16157 0.94897 0.0476 0.3369 0.0275 0.68862 0.0226 1.0569l-7.1e-4 0.03493-0.0138 0.07197-0.0127 0.06456-0.0254 0.13018c-0.0169 0.08714-0.0342 0.17533-0.0515 0.26388-0.0257 0.17427-0.0892 0.36477-0.14676 0.55668-0.2293 0.76906-0.5588 1.4975-0.8897 2.2433-0.15946 0.37253-0.33197 0.74648-0.46743 1.1232-0.0744 0.18838-0.14464 0.37712-0.19579 0.56586l-0.0864 0.28363-0.0455 0.15522-0.0427 0.15628c-0.0705 0.22542-0.0776 0.37148-0.11218 0.55104-0.0173 0.18909-0.0416 0.37606-0.0385 0.56621-6e-3 0.37818 0.0282 0.75847 0.11642 1.1243 0.16228 0.73378 0.50553 1.4139 0.97437 1.9445 0.23389 0.26529 0.49283 0.50165 0.78246 0.68756l0.10548 0.07232 0.0265 0.01834 0.0131 0.0092c0.019 0.01235-0.14535-0.0956-0.0713-0.04762l9e-3 0.0046 0.072 0.03775 0.28716 0.14852c0.0466 0.02364 0.0981 0.05221 0.14076 0.07126l0.0967 0.02611c0.0639 0.01799 0.12524 0.0374 0.18556 0.05927 0.58067 0.17039 1.173 0.12488 1.6799-0.04904 0.51329-0.17498 0.94121-0.51329 1.2552-0.87983 0.31574-0.37148 0.51083-0.78352 0.60855-1.1638l0.0198-0.07055 0.0102-0.03493 5e-3 -0.01693 2e-3 -0.0088c-0.048 0.18239-0.0123 0.04657-0.0229 0.08537l1e-3 -0.0064c0.0127-0.07303 0.0254-0.14464 0.0377-0.2159 0.0116-0.06879 0.0229-0.13688 0.0346-0.20426-0.0127-0.01199-0.0219-0.02152-0.0275-0.03069-6e-3 -0.0088-8e-3 -0.01658-7e-3 -0.02505-7.1e-4 -0.01199-0.0148-0.05186-0.0194-0.0755-0.019-0.05362-7e-3 -0.10936-0.0381-0.15558-0.14358-0.3997-0.35701-0.52317-0.42475-0.58102-0.0201-0.0127-0.0384-0.02681-0.055-0.04339l-0.0247-0.0254-0.0116-0.01411c0.0363 0.02046-0.0815-0.04657 0.0808 0.04586l-1e-3 -7.06e-4 -2e-3 -0.0014-5e-3 -0.0032-0.0106-6e-3 -0.0208-0.0127c-0.0533-0.03246-0.10759-0.06562-0.16404-0.10054-9e-3 -0.0049-0.037-0.02364-0.03-0.01834l0.0194 0.01129 0.0208 0.0085c6e-3 0.0053 0.03-0.03457 0.0427-0.05115 0.0303-0.0441 0.0568-0.09172 0.0794-0.14146 0.0138-0.03281 0.0215-0.05891 0.0293-0.09066 8e-3 -0.03104 0.0131-0.0635 0.0162-0.09737l4e-3 -0.04868 3e-3 -0.01693c5e-3 -0.01693 1e-3 -0.06915 0-0.0702 1e-3 0.01235 4e-3 0.0194 6e-3 0.02187 8e-3 0.04163 0.0229 0.08431 0.0402 0.11642 0.0166 0.03387 0.055 0.13088 0.0907 0.18133l0.0138 0.02152-2e-3 -6e-3c-1e-3 -0.0049-4e-3 -0.0067-7e-3 -0.0074l-0.0201-0.0085c-0.0148-0.0063-0.031-0.0187-0.0557-0.0127-0.0878-0.01164-0.22225 0.04163-0.35595 0.08467-0.27482 0.10301-0.57115 0.23918-0.84138 0.29245-0.27164 0.05574-0.51858 0.03528-0.71649-0.08749-0.19791-0.12277-0.33443-0.32667-0.40217-0.60149-0.0649-0.27552-0.0737-0.62442 0.0773-1.07 0.0854-0.22472 0.19086-0.47131 0.41769-0.74366 0.22225-0.26529 0.5581-0.56938 1.0806-0.75636 0.13159-0.04057 0.26917-0.07514 0.40993-0.10266 0.1397-0.02434 0.28257-0.02893 0.42862-0.03316 0.15064-0.0071 0.27552 0.01658 0.41628 0.03422 0.13476 0.01588 0.27728 0.04974 0.42616 0.10231 0.073 0.02399 0.14605 0.05009 0.21872 0.07867l0.1083 0.0441 0.0543 0.02469c0.06 0.02752 0.11783 0.05468 0.17462 0.08114l0.0215 0.01058 0.0109 0.0053 0.0931 0.05221 0.0663 0.0441 0.13229 0.09066c0.0882 0.06174 0.17603 0.12594 0.26246 0.19191 0.0882 0.06491 0.20461 0.15769 0.32703 0.29916 0.12206 0.1397 0.28751 0.29774 0.42651 0.51188 0.13052 0.21766 0.30938 0.45473 0.41698 0.75248 0.0593 0.14676 0.12383 0.30021 0.1778 0.4632 0.042 0.16651 0.0825 0.34114 0.1203 0.52282 0.0469 0.17956 0.0434 0.37536 0.0607 0.57291 3e-3 0.10301 0.0141 0.19156 9e-3 0.31044-7e-3 0.12312-0.018 0.24871-0.0321 0.375-0.0141 0.1263-0.0321 0.254-0.0529 0.38171-0.0194 0.06914-0.0392 0.13935-0.0586 0.21061-0.0201 0.06879-0.0402 0.13899-0.0603 0.2099l-0.0282 0.10583-7e-3 0.01764-0.0138 0.03528-0.0275 0.0702-0.0565 0.14182c-0.29845 0.76094-0.79093 1.5254-1.4834 2.1622-0.69074 0.63253-1.5794 1.1568-2.6091 1.3755-1.0245 0.21978-2.1639 0.1397-3.1715-0.3048-2.0292-0.8823-3.2657-2.903-3.4604-4.9297-0.0564-0.50588-0.0409-1.0142 0.0275-1.5078 0.0279-0.248 0.0868-0.49036 0.14147-0.73025 0.0713-0.24236 0.15099-0.52211 0.23318-0.70062l0.12489-0.29704 0.13935-0.31785c0.0885-0.21414 0.19085-0.4124 0.29562-0.60572 0.20038-0.39582 0.42193-0.75459 0.6283-1.1109 0.42122-0.70026 0.82091-1.3705 1.0968-2.002 0.0699-0.15734 0.14605-0.30692 0.19579-0.48613 0.0515-0.15875 0.10195-0.31432 0.15169-0.46814 0.0427-0.32702 0.10372-0.64699 0.0963-0.95638 0.048-1.2464-0.36689-2.2627-0.66146-2.9344-0.1531-0.33831-0.29069-0.59937-0.38982-0.77294-0.0952-0.17604-0.1464-0.26952-0.1464-0.26952" fill="#7f3f98" stroke="#8c45a7"/>
    <path d="m123.95 74.09c-0.061-0.11007-0.12171-0.21272-0.18239-0.30833-0.0663-0.09843-0.16404-0.19932-0.24235-0.28363-0.0794-0.09137-0.16863-0.14817-0.25153-0.2032-0.0847-0.05221-0.15946-0.10548-0.24236-0.13617-0.3235-0.13441-0.60043-0.12347-0.81386-0.05609-0.44097 0.16016-0.64453 0.54292-0.80822 0.93839-0.3055 0.8001-0.52528 1.6125-0.76023 1.5166-0.14041-0.0448-0.21449-0.61595-0.62936-1.3533-0.20602-0.36512-0.49706-0.76976-0.90487-1.1366-0.20355-0.18521-0.43674-0.36019-0.70097-0.51541-0.13194-0.07514-0.27376-0.15522-0.42192-0.21731l-0.22931-0.09313-0.11959-0.04445-4e-3 -0.0011c-0.0166 0.0039 0.031-0.01023-0.0378 0.0078l-8e-3 -0.0018-0.0148-0.0035-0.0303-0.0078-0.0603-0.01446c-0.53658-0.22754-1.6686-0.11359-2.5255 0.59866-0.4519 0.35066-0.80398 0.87312-1.0523 1.4601-0.10654 0.29069-0.19544 0.60466-0.24695 0.92181-0.0187 0.15699-0.0342 0.31715-0.0462 0.48048l-8e-3 0.12277-3e-3 0.04656-3.5e-4 0.0078 1e-3 0.08925 2e-3 0.04551 0.0102 0.18486 0.0134 0.18697 5e-3 0.05009 0.0138 0.08114 0.0303 0.16334c0.0434 0.21237 0.0981 0.45402 0.16298 0.6417 0.12912 0.32561 0.272 0.65934 0.45967 0.94756 0.36513 0.59619 0.82586 1.1324 1.4171 1.6023 0.13758 0.121 0.30939 0.22895 0.46743 0.33902l0.12171 0.08043 0.0307 0.02011c0.0254 0.02364-0.0469-0.0448 0.0596 0.05327l7e-3 0.0032 0.0145 0.0071 0.0586 0.02681c0.078 0.03528 0.15699 0.0702 0.23707 0.10654 0.15945 0.06773 0.3235 0.13794 0.49142 0.20955 0.18238 0.06985 0.38594 0.13441 0.5782 0.19438 0.76694 0.25541 1.615 0.29492 2.4165 0.19791-0.17392 0.07373-0.38135 0.14464-0.62512 0.20779-0.12136 0.0314-0.25224 0.06068-0.39265 0.08714-0.14005 0.02681-0.27693 0.02611-0.42897 0.03422-0.15064 0.0056-0.30974 0.0071-0.47696 0.0028-0.16863-7.05e-4 -0.34325-0.01094-0.5207-0.04833-0.17956-0.03105-0.36759-0.0702-0.56409-0.11712l-0.30021-0.0762-0.26282-0.07303c-0.17216-0.05256-0.34643-0.10513-0.52176-0.15804l-0.13265-0.04304-0.0332-0.01058-0.0166-0.0056c-0.18238-0.16898-0.0536-0.04833-0.0952-0.08678l-5e-3 -0.0028-0.01-0.0049-0.0762-0.04233-0.30939-0.17992c-0.4131-0.25224-0.80257-0.54645-1.1776-0.89782-0.37606-0.34996-0.73166-0.76024-1.0601-1.2584-0.1658-0.24659-0.31185-0.55033-0.45861-0.84243-0.0804-0.22013-0.15275-0.45438-0.21449-0.6918-0.0307-0.11889-0.0589-0.23918-0.0847-0.36019l-0.0438-0.19085-0.0367-0.16157-0.027-0.12171-4e-3 -0.02011-2e-3 -0.01023-1e-3 -0.0053c3e-3 0.12947-5e-3 -0.18133-4e-3 -0.15311-0.01-0.17992-0.0169-0.36301-0.019-0.54716-0.0201-0.35913 0.037-0.76764 0.10266-1.1688 0.0236-0.19685 0.0949-0.41275 0.1598-0.62265 0.0706-0.21167 0.133-0.42051 0.23001-0.63041 0.21696-0.42051 0.42722-0.84737 0.7613-1.2196 0.15945-0.18768 0.32032-0.38065 0.49953-0.54645 0.18451-0.1584 0.37677-0.3115 0.57362-0.45685 0.10125-0.07303 0.19226-0.14358 0.3055-0.21272 0.12207-0.06914 0.2466-0.13547 0.37254-0.19861 0.25259-0.127 0.51294-0.2413 0.77399-0.34043 0.0811-0.03245 0.0945-0.03104 0.12594-0.03916l0.0882-0.02011 0.17709-0.03881 0.17816-0.03704 0.0893-0.01729 0.0222-0.0042 0.0113-0.0021 6e-3 -0.0011c-0.0589 0.01658 0.53304-0.14746 0.2861-0.07867l0.061-0.0064c0.32844-0.03916 0.65476-0.05644 0.97755-0.05503 1.2869 0.02152 2.5887 0.30445 3.8019 1.0456 0.59726 0.36971 1.1663 0.86466 1.5692 1.4894 0.20461 0.31221 0.34537 0.64594 0.4445 1.0044 0.0448 0.18838 0.0928 0.38559 0.0882 0.53975-0.018 0.14393-0.036 0.28998-0.055 0.43886" stroke="#444"/>
    <path d="m119.77 65.696c-0.22049-0.04374-0.43039-0.08149-0.62971-0.11395-0.19226-0.04198-0.4191-0.02575-0.60713-0.03351-0.39123-0.02117-0.71649 0.06844-1.0033 0.12347-0.28293 0.07585-0.51682 0.19191-0.71226 0.28822-0.19297 0.10901-0.34078 0.24271-0.45861 0.35772-0.23742 0.22754-0.32808 0.4953-0.35348 0.71649-0.0229 0.22754 0.0268 0.43886 0.10336 0.63853 0.15628 0.39758 0.40146 0.75741 0.49777 1.0576 0.0497 0.14887 0.0667 0.28258 0.0286 0.39158-0.0378 0.121-0.12806 0.22789-0.30974 0.3108-0.35278 0.20955-1.0463-0.0014-2.1837 0.10936-0.56903 0.0508-1.2287 0.19791-1.9717 0.51435-0.35983 0.16722-0.74718 0.37183-1.1306 0.64452-0.19862 0.13264-0.37853 0.29175-0.5775 0.45755l-0.0737 0.06385c-0.0339 0.04657-0.0476 0.05256-0.0723 0.08114l-0.133 0.14146c-0.0882 0.09878-0.18062 0.18274-0.26176 0.31256-0.35948 0.49177-0.62725 1.0844-0.7345 1.8242-0.10548 0.73096-9e-3 1.5737 0.30729 2.3745 0.31644 0.80045 0.82973 1.5533 1.4718 2.213 0.64099 0.66146 1.4153 1.245 2.2987 1.6877 0.26246 0.12382 0.53234 0.24377 0.80821 0.35913 0.25859 0.09419 0.5013 0.16192 0.76024 0.24165 0.51258 0.17145 1.0389 0.24165 1.5822 0.34925 1.0869 0.14252 2.2366 0.20249 3.4537 0.08608 1.233-0.1143 2.4807-0.45508 3.7095-0.95215 1.2245-0.50729 2.4511-1.2231 3.4625-2.1904-0.65758 0.97861-2.1922 2.3449-4.6179 3.2547-0.15628 0.05715-0.31362 0.11395-0.47237 0.1718-0.1464 0.04939-0.29422 0.09948-0.44309 0.14993l-0.22437 0.07373-0.11289 0.03669-0.0568 0.01834c0.0138-3.53e-4 -0.14288 0.0099-0.0804 0.0064l-8e-3 0.0018-0.0162 0.0035-0.0328 0.0074c-0.17603 0.03598-0.35383 0.07303-0.53269 0.10936-0.18027 0.03528-0.36583 0.07373-0.55069 0.10301-0.18415 0.02258-0.369 0.04516-0.55562 0.06809-0.18944 0.02046-0.3803 0.04163-0.57221 0.06244-0.19226 0.0088-0.38523 0.01764-0.57996 0.02611-0.39194 0.01799-0.7934 0.02752-1.2016 0.0021-0.40923-0.01623-0.82621-0.03457-1.2559-0.10019-0.2152-0.02963-0.4318-0.05927-0.64911-0.08925-0.21767-0.02928-0.44521-0.09243-0.67028-0.14111-0.22719-0.05503-0.45509-0.11042-0.68404-0.16545-0.26564-0.08749-0.55174-0.1972-0.82832-0.30621l-0.41804-0.17251-0.2032-0.08819-0.13194-0.06632c-0.17568-0.08961-0.35207-0.17956-0.52881-0.26988l-0.0667-0.03387-0.0328-0.01729-0.0166-0.0088-8e-3 -0.0042c-0.0494-0.0321 0.0995 0.06562-0.11324-0.07303l-0.16086-0.10195-0.32209-0.20849c-0.21484-0.14041-0.42757-0.30586-0.64064-0.46355-0.84421-0.66252-1.6853-1.5268-2.3446-2.6931-0.31573-0.59831-0.5969-1.2506-0.74506-1.9833-0.14993-0.72178-0.20355-1.4972-0.10266-2.2341 0.031-0.37641 0.12806-0.72249 0.21131-1.0784 0.0586-0.19438 0.12806-0.39476 0.19932-0.58879l0.11113-0.29034c0.0339-0.08043 0.0515-0.10548 0.0783-0.16087l0.14888-0.28928 0.0183-0.03598 5e-3 -0.0095c0.17357-0.37536 0.0522-0.11007 0.0924-0.19685l0.0138-0.02223 0.0547-0.08819 0.11042-0.17533c0.1464-0.2353 0.29774-0.46461 0.4625-0.68016 0.64454-0.87701 1.3942-1.6538 2.2448-2.3227 0.84949-0.6671 1.8027-1.228 2.8494-1.5988 1.04-0.37253 2.1731-0.55033 3.2576-0.4452l0.4004 0.04127c0.1337 0.02505 0.266 0.05644 0.39582 0.08643 0.26 0.06244 0.50729 0.11677 0.77011 0.22684l0.37359 0.14993c0.12348 0.05045 0.24025 0.10125 0.33056 0.16792 0.19226 0.12559 0.38594 0.25294 0.58208 0.381" fill="#78501f" stroke="#845822"/>
   </g>
   <g stroke-width=".075">
    <path d="m103.17 75.23c0.13546 0.25964 0.28772 0.56402 0.47646 0.89245 0.20496 0.31715 0.41053 0.68429 0.68781 1.0402 0.52071 0.73801 1.2111 1.5196 2.05 2.2639 0.83784 0.74507 1.8322 1.4481 2.9466 2.003 0.13203 0.06648 0.26617 0.13046 0.40154 0.19224-0.86138-0.01266-1.7031-0.02557-2.5069-0.03721-0.29064-0.0042-0.57021-0.0075-0.85111-0.01137-0.80992-0.40474-1.616-0.81762-2.31-1.234-0.21166-0.12524-0.42681-0.22886-0.61237-0.35657-0.1711-0.115-0.34817-0.23347-0.5302-0.35553-0.33232-0.22084-0.62018-0.4069-0.8449-0.54519 0.19897 0.17004 0.4646 0.38602 0.77927 0.63614 0.17392 0.13652 0.34326 0.2695 0.50695 0.39791 0.17886 0.14146 0.38807 0.2569 0.5948 0.39378 0.53923 0.36188 1.1584 0.71558 1.7968 1.0547-0.10886-0.0014-0.21892-0.0031-0.32607-0.0047-0.21696 5e-3 -0.43141 0.0099-0.64131 0.01447-0.50678 0.01743-0.98728 0.05784-1.4454 0.11162-0.66284-0.30523-1.3068-0.69139-1.9063-0.98392-0.17745-0.0822-0.34405-0.16896-0.51056-0.23564-0.1531-0.05397-0.31288-0.11111-0.47904-0.17002-0.30269-0.09384-0.57684-0.11742-0.77722-0.15658 0.19614 0.07091 0.45971 0.12301 0.74828 0.23978 0.1584 0.06985 0.31025 0.13698 0.4563 0.20154 0.15875 0.07514 0.31882 0.17136 0.48886 0.26097 0.48976 0.26931 1.0154 0.60352 1.5797 0.89452-1.1829 0.16645-2.1688 0.4287-2.9223 0.67903-0.71537-0.1673-1.447-0.21843-2.0965-0.21084-0.81456 0.0056-1.5104 0.12536-1.9125 0.28164 0.42051-0.09207 1.1079-0.15188 1.9105-0.1173 0.52792 0.02004 1.1097 0.0784 1.6852 0.1912-0.50984 0.18718-0.88561 0.35601-1.0682 0.44907-0.48119 0.23957-0.91094 0.53946-1.2805 0.8661-0.79554 0.07169-1.5551 0.36113-2.1694 0.6966-0.75741 0.41134-1.3056 0.92307-1.5663 1.2924 0.31432-0.32385 0.88742-0.77418 1.6459-1.1389 0.53077-0.25603 1.1564-0.48134 1.802-0.57826-0.37719 0.38441-0.67023 0.79371-0.84853 1.1865-0.02033 0.04618-0.0348 0.08939-0.05271 0.13436-0.60194 0.31601-1.0006 0.90662-1.2557 1.4227-0.28434 0.57997-0.40371 1.124-0.4284 1.4609 0.0762-0.32914 0.23813-0.85026 0.54364-1.4009 0.24308-0.4376 0.58824-0.9194 1.048-1.2211-0.08055 0.26387-0.11699 0.50556-0.09508 0.71985 0.0254 0.31115 0.14449 0.53888 0.34416 0.68316 0.06735 0.04718 0.14105 0.08134 0.21756 0.10955-0.01586 0.17663 0.0112 0.35658 0.0708 0.51366 0.09278 0.25576 0.24132 0.47252 0.39584 0.65526 0.30903 0.3683 0.64416 0.60923 0.86041 0.73587-0.19438-0.1584-0.50345-0.42328-0.78496-0.79582-0.14111-0.18486-0.27513-0.39872-0.3545-0.63614-0.04793-0.13878-0.06867-0.28711-0.05891-0.4315 0.33277 0.0772 0.7357 0.01064 1.1674-0.10749 0.0109 0.0388 0.02447 0.07847 0.04858 0.11886 0.0314 0.0702 0.07388 0.14592 0.14056 0.21859 0.19473 0.23424 0.47269 0.37532 0.74362 0.46457 0.27305 0.0889 0.54816 0.13417 0.80357 0.1571 0.51223 0.04304 0.9492 0.01544 1.218-0.01137-0.26988-0.01517-0.70589-0.02425-1.2061-0.09198-0.48613-0.07479-1.0947-0.20089-1.4485-0.61082-0.05856-0.0635-0.09545-0.12813-0.12402-0.1881-0.02011-0.03133-0.0328-0.06164-0.04289-0.09043 0.0048-0.0014 0.0092-0.0022 0.01395-0.0036 0.29568-0.08918 0.61282-0.20627 0.94568-0.3421 0.14849 0.06314 0.38711 0.18286 0.9064 0.25942 0.85442 0.139 1.7423 0.04165 2.48-0.14779 0.74294-0.18027 1.3317-0.46459 1.6919-0.64027-0.38452 0.11853-0.98885 0.35087-1.7265 0.49093-0.73096 0.14958-1.5962 0.21808-2.4066 0.08578-0.31733-0.04422-0.53669-0.10421-0.6997-0.15038 0.34214-0.14683 0.69977-0.31254 1.0795-0.50281 0.20744-0.11148 0.73105-0.39621 1.5544-0.72605 0.40887-0.1711 0.90338-0.32721 1.4583-0.49196 0.56162-0.15064 1.1871-0.29196 1.8433-0.39532 0.0935-0.012 0.18829-0.02434 0.28319-0.03669l0.14263-0.01912 0.0723-0.0088 0.0543-0.0078 9e-3 -1e-3c0.0176-0.0014-0.11976 0.0056-0.0574 0.0021 0.19685-0.01941 0.39679-0.0388 0.59893-0.05891 0.40428-0.04022 0.81962-0.08185 1.2444-0.12454 0.8449-0.08572 1.7282-0.17545 2.6355-0.26717 0.22613-0.02328 0.45353-0.04664 0.68213-0.07028 0.22543-0.0314 0.45166-0.06298 0.67955-0.09508 0.45438-0.06491 0.91299-0.12988 1.3741-0.19585 0.92146-0.13159 1.8522-0.26475 2.7797-0.39739 1.9099-0.31997 3.7216-0.67212 5.439-1.202 0.42545-0.13088 0.8469-0.2527 1.247-0.38499 0.38488-0.15381 0.76123-0.30422 1.1271-0.45062 0.18238-0.07338 0.36309-0.14561 0.54053-0.21652l0.1323-0.05323 0.0899-0.03514 0.0646-0.03256c0.0861-0.04339 0.1715-0.08566 0.2558-0.12764 0.33619-0.17216 0.65202-0.35212 0.95188-0.5271 1.1949-0.71085 2.1022-1.455 2.5926-2.1017 0.24941-0.31962 0.37192-0.61932 0.43822-0.82217 0.0455-0.20673 0.0589-0.31884 0.0589-0.31884s-0.0271 0.1099-0.0977 0.30851c-0.0896 0.18803-0.23915 0.45619-0.51573 0.73277-0.54328 0.55845-1.5001 1.1636-2.7316 1.7058-0.30938 0.133-0.63314 0.26788-0.97358 0.39171-0.0854 0.03069-0.17146 0.06146-0.25786 0.0925l-0.0651 0.02274c-8e-3 0.0029 0.0395-0.015 0.0155-0.0062l-9e-3 0.0021-0.0176 0.0052-0.0341 0.0088-0.13798 0.03617c-0.18485 0.04904-0.37226 0.09889-0.56275 0.14934-0.38135 0.1009-0.77299 0.20507-1.1741 0.31161-0.3997 0.07867-0.80665 0.14159-1.219 0.21497-1.6348 0.29774-3.5036 0.43436-5.3066 0.51832-0.93663 0.02152-1.8768 0.04359-2.8071 0.06511-0.36841 0.0087-0.73368 0.01753-1.0981 0.02636-1.8009-0.51816-3.4705-1.4621-4.7812-2.527-0.84878-0.68016-1.5724-1.3974-2.1435-2.0769-0.30199-0.32702-0.53668-0.66704-0.77516-0.95808-0.20003-0.27975-0.39551-0.55237-0.58601-0.81907z" fill="#bf1e2d" stroke="#d22132"/>
    <path d="m123.26 83.034c-0.6925 0.65864-1.6726 1.4174-2.943 2.0898-1.27 0.67733-2.8006 1.2849-4.4664 1.9678-0.83115 0.3429-1.6946 0.71673-2.5564 1.1658-0.43462 0.21661-0.85757 0.47313-1.2873 0.73277-0.21237 0.14499-0.42564 0.29029-0.63872 0.43563-0.21272 0.14711-0.39036 0.30372-0.58756 0.45682-0.7994 0.6604-1.5198 1.3933-2.1513 2.2407-0.60844 0.82904-1.1009 1.7272-1.3865 2.7905-0.46237 0.35194-0.93728 0.6014-1.1927 0.73019 0.25416-0.08196 0.70521-0.27656 1.157-0.58239-0.0257 0.13918-0.0506 0.27656-0.0749 0.40876-0.0134 0.07479-0.0272 0.14834-0.0403 0.22066l-0.0196 0.108-8e-3 0.06098-3e-3 0.02842-6e-3 0.05529c-0.0299 0.28148-0.0463 0.54856-0.0522 0.80253-0.24812 0.28264-0.53426 0.52515-0.82992 0.6904-0.0984 0.06456-0.19867 0.1162-0.29921 0.15606-0.0991 0.04339-0.19119 0.08872-0.28009 0.12506-0.1397 0.04833-0.29261 0.10236-0.4563 0.15916 0.16968-0.03846 0.32853-0.07484 0.47387-0.108 0.0924-0.02893 0.18964-0.06767 0.29301-0.10542 0.10548-0.03422 0.21097-0.08108 0.31574-0.14211 0.27471-0.13546 0.54208-0.34358 0.78135-0.58704-2e-3 0.46841 0.0342 0.8894 0.10904 1.2583 0.0256 0.13258 0.0585 0.25608 0.0946 0.37517-0.17815 0.29768-0.40212 0.56464-0.62993 0.7803-0.37712 0.3637-0.77015 0.59365-1.0273 0.70795 0.27164-0.073 0.69398-0.27455 1.0997-0.62837 0.21774-0.18666 0.43275-0.41931 0.6134-0.6847 0.13219 0.36544 0.30955 0.6554 0.49765 0.86453-3e-3 0.17731-0.0223 0.34884-0.0791 0.5028-0.013 0.0416-0.0273 0.0856-0.0418 0.13074-0.0211 0.0363-0.0433 0.0745-0.0662 0.11369-0.0452 0.0727-0.0797 0.14847-0.12661 0.20877-0.0762 0.09-0.15981 0.18888-0.25011 0.29507 0.1023-0.0967 0.19834-0.18588 0.28474-0.26768 0.0525-0.0575 0.094-0.13234 0.14521-0.20464 0.0265-0.0395 0.0522-0.0784 0.0765-0.11472 0.0176-0.047 0.035-0.0914 0.0512-0.13436 0.0568-0.13275 0.0875-0.27933 0.10128-0.4315 0.0511 0.0486 0.10235 0.0928 0.15348 0.12919 0.0749 0.0501 0.13801 0.0936 0.20257 0.13023 0.0578 0.0686 0.12681 0.14001 0.21808 0.21239 0.52531 0.37853 1.1833 0.46886 1.7266 0.51366 0.55069 0.0378 1.0204 8e-3 1.31-0.0207-0.29069-0.0166-0.75956-0.0255-1.2997-0.0904-0.50281-0.065-1.0966-0.17149-1.5607-0.47387 0.0618 5e-3 0.10683-5e-3 0.15038-5e-3 0.1242-0.0194 0.16537-0.0753 0.18967-0.14159 0.0247-0.0653 0.0293-0.1349-0.0522-0.22944-0.0208-0.024-0.0467-0.0497-0.0791-0.0765-0.0346-0.0265-0.073-0.0572-0.0956-0.0925-0.0283-0.0335-0.0599-0.0688-0.0966-0.10334-0.0364-0.037-0.0754-0.0961-0.12197-0.14727-0.0407-0.051-0.0829-0.11263-0.12454-0.18242 0.27774 0.15878 0.56882 0.2693 0.847 0.34467 0.60962 0.15557 1.1508 0.16496 1.4774 0.12298-0.32879-9e-3 -0.85739-0.0631-1.4423-0.24442-0.29-0.0942-0.59312-0.22263-0.87077-0.40254-0.0529-0.0341-0.10365-0.0725-0.15399-0.1111-0.0822-0.20604-0.15386-0.46787-0.19792-0.80305-0.0444-0.33585-0.0598-0.74094-0.0372-1.2154 0.0113-0.23777 0.0317-0.49228 0.0641-0.76533l6e-3 -0.05168 3e-3 -0.02585 1e-3 -0.01291 0.0171-0.08785c5e-3 -0.02689 0.0104-0.05449 0.0155-0.08165 0.12259 0.49186 0.31964 0.95724 0.61289 1.3162 0.22436 0.27411 0.4902 0.478 0.74985 0.59583 0.13054 0.05538 0.25796 0.09472 0.37156 0.12506 0.10089 0.0141 0.20504 0.02927 0.31264 0.04444-0.10372-0.02892-0.20409-0.05636-0.30179-0.08423-0.10795-0.04198-0.22645-0.09153-0.34675-0.15503-0.2392-0.13405-0.47562-0.34252-0.67389-0.61133-0.34311-0.46451-0.5369-1.0998-0.62891-1.7415 6e-3 -0.03089 0.0112-0.05966 0.017-0.09095l0.20464-0.63149c0.0794-0.21167 0.18766-0.42529 0.27906-0.63872 0.21343-0.41804 0.45312-0.82745 0.73641-1.2123 0.0124-0.0172 0.0267-0.0335 0.0393-0.05064-0.0386 0.47087 0.0312 0.94175 0.17726 1.3353 0.2159 0.61525 0.58422 1.0511 0.84387 1.2645-0.22401-0.25188-0.54308-0.70283-0.72088-1.3043-0.14844-0.47292-0.19095-1.0415-0.0811-1.5787 0.50271-0.6415 1.08-1.2427 1.6831-1.7658 0.0576-0.04687 0.11463-0.09668 0.17208-0.14573-0.17175 0.41843-0.24814 0.86647-0.27647 1.2619-0.0413 0.5528-4.5e-4 1.0235 0.0351 1.3121 0.01-0.29139 8e-3 -0.76059 0.076-1.3007 0.059-0.4844 0.18283-1.0366 0.44804-1.5038 0.0367-0.029 0.0734-0.06136 0.11007-0.08785l0.56069-0.40566c0.39512-0.25435 0.78757-0.51292 1.1979-0.73587 0.81068-0.46214 1.6383-0.86402 2.4469-1.2464 1.6161-0.75953 3.1417-1.4833 4.3775-2.2831 1.2397-0.79728 2.1546-1.6859 2.7352-2.4412z" fill="#fff200" stroke="#ff0"/>
    <path d="m127.9 73.439s0.0615 0.37241 0.1695 1.0268c0.0918 0.64911 0.24953 1.6105 0.0393 2.6872-0.0127 0.13652-0.064 0.26815-0.10853 0.40256-0.0437 0.1337-0.0884 0.27064-0.13435 0.40928-0.13089 0.26423-0.25897 0.53856-0.41807 0.80667-0.18415 0.25541-0.3558 0.53908-0.55758 0.78496-0.22438 0.25823-0.44232 0.56298-0.68679 0.79582-0.94227 1.0015-2.1434 1.957-3.3972 2.852l-0.95499 0.67128-0.48265 0.33331-0.11989 0.0832-0.03 0.02067-0.0594 0.04651-0.0589 0.04393-0.23358 0.17725c-0.61771 0.46284-1.2523 0.96851-1.8418 1.4568-1.1892 0.98707-2.2754 2.0132-3.1595 3.0334-0.42895 0.49067-0.80608 0.9827-1.1312 1.4562-0.47535 0.0195-0.93022 4e-3 -1.1581 0.02222 0.21695 0.0164 0.65212 0.05617 1.1095 0.04909-0.32582 0.48049-0.59801 0.94082-0.81235 1.3586-0.1069 0.2159-0.20514 0.41352-0.29404 0.59273-3e-3 0.0066-4e-3 0.01106-7e-3 0.01757-0.14023 0.03408-0.28301 0.0686-0.41444 0.10025-0.4011 0.09772-0.73909 0.20824-0.94723 0.27492 0.21801-0.03422 0.56014-0.11584 0.96583-0.19275 0.11087-0.02085 0.23457-0.04795 0.35347-0.07235-0.0528 0.13779-0.10575 0.27544-0.14935 0.38912-0.11677 0.30445-0.19654 0.53019-0.22014 0.67024-0.0624 0.27305-0.11186 0.54218-0.14676 0.80253-0.0151 0.2667-8e-3 0.52809 5e-3 0.77256 9e-3 0.12242 0.014 0.2407 0.0341 0.35605 0.0254 0.11606 0.0526 0.22746 0.0822 0.33435 0.0596 0.21378 0.12765 0.40869 0.20205 0.58084 0.35984 0.68792 0.81292 0.99348 1.2077 0.894 0.40428-0.10019 0.69947-0.54223 0.9002-1.0728 0.0649-0.13582 0.12287-0.27765 0.17157-0.42582 0.0243-0.07373 0.0462-0.14908 0.0656-0.22634 0.0307-0.08396 0.0593-0.16261 0.0858-0.23564 0.0568-0.15981 0.0981-0.32533 0.13798-0.49713 0.061-0.1718 0.11173-0.34945 0.15193-0.53537 1e-3 -0.01151 8e-3 -0.03342 0.0108-0.04703 0.12293 0.38327 0.29559 0.7395 0.53072 1.0273 0.22436 0.27411 0.49018 0.47852 0.74982 0.59635 0.13053 0.05538 0.25796 0.0942 0.37156 0.12454 0.10089 0.0141 0.20504 0.02927 0.31264 0.04444-0.10372-0.02892-0.20409-0.05636-0.30179-0.08423-0.10795-0.04198-0.22645-0.09101-0.34675-0.15451-0.23918-0.13406-0.4756-0.34304-0.67386-0.61185-0.26346-0.35668-0.43766-0.81456-0.54674-1.2981 8e-3 -0.0273 0.0134-0.04649 0.0222-0.07596 0.031-0.11183 0.0668-0.23969 0.10697-0.38292 0.0543-0.14076 0.11475-0.29575 0.18035-0.46509 0.19222-0.48809 0.47971-1.0891 0.87747-1.7508 0.0146 0.33516 0.0792 0.65971 0.18448 0.9431 0.2159 0.6156 0.58424 1.0509 0.84388 1.264-0.22401-0.25153-0.54309-0.70231-0.72089-1.3038-0.11156-0.35516-0.16337-0.76503-0.13642-1.1746 0.10622-0.16798 0.21139-0.33525 0.33228-0.50953 0.38866-0.56527 0.85626-1.1599 1.373-1.7663-0.155 0.4011-0.22623 0.82497-0.25321 1.2015-0.0413 0.5528-9.8e-4 1.0235 0.0346 1.3121 9e-3 -0.2914 8e-3 -0.76043 0.0765-1.3002 0.0653-0.53658 0.20796-1.1566 0.5364-1.6516 0.0324-0.04684 0.06-0.08157 0.0894-0.12041 0.22857-0.25498 0.46496-0.51159 0.71003-0.76843 0.51294-0.53587 1.0289-1.0587 1.6004-1.603l0.21084-0.2036 0.0527-0.05064 0.0129-0.01292c-0.0378 0.03089-0.0209 0.01684-0.015 0.01189l0.0269-0.02377 0.11059-0.09767 0.44235-0.39119 0.88522-0.79375c1.1769-1.0763 2.2991-2.2027 3.2019-3.4329 0.24306-0.30339 0.40328-0.60362 0.60048-0.89607 0.20144-0.31821 0.34546-0.6378 0.51056-0.94154 0.14005-0.31679 0.24714-0.64224 0.35192-0.94775 0.0321-0.16087 0.0641-0.31884 0.0951-0.47336 0.0303-0.15416 0.0661-0.30393 0.0631-0.45527 0.0469-0.60043-8e-3 -1.1419-0.0961-1.604-0.0819-0.46496-0.19299-0.85597-0.28009-1.1777-0.18768-0.63747-0.29507-0.99942-0.29507-0.99942z" fill="#009444" stroke="#00a34b"/>
   </g>
   <g stroke-width=".075">
    <path d="m128.89 86.441c-0.14182-0.2734-0.23989-0.5655-0.29669-0.86536l-0.0197-0.11254-5e-3 -0.02858-5e-3 -0.04022-4e-3 -0.05221-0.0176-0.20814c-0.0169-0.133-0.0113-0.29069-0.01-0.44203 0.0155-0.59902 0.13194-1.1571 0.26353-1.6976 0.12946-0.53658 0.28469-1.0573 0.39299-1.561 0.11077-0.51012 0.20179-1.0139 0.27728-1.5011 0.14746-0.97437 0.23636-1.8888 0.19191-2.6793-0.0254-0.39229-0.0847-0.75918-0.23177-1.0488-0.0716-0.1464-0.17992-0.25859-0.30515-0.32985-0.12559-0.07832-0.27199-0.07902-0.40323-0.08008 0.12771-0.0187 0.28081-0.04092 0.42863 0.0254 0.1464 0.05821 0.2861 0.17321 0.381 0.3235 0.19614 0.2988 0.29492 0.68121 0.35524 1.0866 0.11571 0.81633 0.085 1.7551-0.0148 2.7538-0.0522 0.49989-0.12206 1.0153-0.21661 1.542-0.0938 0.5334-0.23318 1.0552-0.34678 1.5871-0.11571 0.52634-0.21272 1.065-0.21872 1.5797 7e-4 0.12665-7e-3 0.248 0.012 0.39194l0.0194 0.20814 5e-3 0.05186 1e-3 0.01305 3.6e-4 0.0032c-3e-3 -0.02646-7.1e-4 -0.0056-1e-3 -0.01094l1e-3 6e-3 5e-3 0.02293 0.0173 0.09278c0.048 0.24624 0.13017 0.48648 0.24306 0.7052 0.16122 0.30092 0.36266 0.51506 0.56233 0.65969l0.0155 0.01129 7e-3 0.0063c0.30762 0.25753 0.63571 0.37536 0.84773 0.3997 0.21872 0.02611 0.33655-0.02399 0.42262-0.07373 0.0434-0.02399 0.0677-0.0448 0.10196-0.06103 0.031-0.02999 0.0568-0.05009 0.0797-0.06174 0.0455-0.02328 0.078-0.01588 0.10795-7.06e-4 0.03 0.01552 0.055 0.0374 0.0632 0.08819 4e-3 0.0254 4e-3 0.05821-3e-3 0.10089-0.018 0.04621-0.0455 0.11959-0.10055 0.18803-0.0967 0.14005-0.35101 0.30515-0.69567 0.2988-0.34185-0.0049-0.74542-0.1203-1.1797-0.45826l0.0229 0.01729c-0.2794-0.18732-0.54998-0.47413-0.75036-0.85019" fill="#7f3f98" stroke="#aaa"/>
    <path d="m126.41 81.977s-0.066 0.21167-0.20567 0.57644c-0.13758 0.3683-0.36795 0.87948-0.67522 1.4838-0.60924 1.2104-1.5727 2.7559-2.4539 4.3519-0.43709 0.79904-0.85513 1.6122-1.1754 2.4014-0.32315 0.78846-0.55386 1.5494-0.66993 2.2172-0.2413 1.3441 0.0127 2.2542 0.0543 2.4786 0.0811 0.45896 0.1591 0.87948 0.14111 1.2474 7e-3 0.3556-0.0811 0.65793-0.28998 0.7814-0.20779 0.12347-0.508 0.0321-0.83362-0.25365-0.30021-0.29457-0.62336-0.79728-0.73871-1.427-0.0173-0.07726-0.0459-0.21272-0.0586-0.40146-0.0191-0.18838-0.0416-0.42651-0.0332-0.70767 2e-3 -0.56021 0.0868-1.2866 0.3168-2.0602 0.44662-1.5628 1.4559-3.2431 2.5442-4.7445 1.0873-1.5099 2.2165-2.9079 2.9605-4.0231 0.37395-0.55492 0.66358-1.0312 0.84244-1.3744 0.18274-0.34361 0.27481-0.5461 0.27481-0.5461" fill="#1b75bc" stroke="#1e81cf"/>
    <path d="m128.38 80.712c-0.031 0.10407-0.38876 0.42721-0.46179 0.36936-0.0723-0.05786 0.10795-0.10548 0.14041-0.49742 0.0325-0.393 0.1076-1.0647 0.19932-1.3762 0.0917-0.31186 0.53728-1.4069 0.6096-1.3497 0 0-0.0843 0.11853-0.16016 0.79093-0.0741 0.67275-0.1016 1.1589-0.19791 1.4531-0.0967 0.29386-0.0991 0.50588-0.12947 0.60995m13.559-2.9471c-0.11818-0.23495-0.67698-1.0548-0.88301-1.2379-0.20637-0.18486-0.17568-0.1778-0.23142-0.25012-0.054-0.07232-0.0977-0.07585-0.0533-0.1517 0.0455-0.07655-0.0582-0.30868-0.12876-0.41275-0.0699-0.10407-0.0773-0.02258-0.091-0.15628-0.0127-0.1337-0.0857-0.2226-0.19755-0.31644-0.11078-0.09278-0.097-0.12524-0.12912-0.30445 0 0 0.81809-0.68545 0.74295-0.82691-0.01-0.09172-0.25718-0.40781-0.43603-0.54151-0.17922-0.133-0.25048-0.18732-0.39159-0.42439-0.14005-0.23707-0.15734-0.44097-0.20955-0.61454-0.0526-0.17286-0.41663-0.60501-0.54821-0.77929-0.13159-0.17498-0.19474-0.25224-0.25048-0.46708-0.0568-0.21661-0.45861-0.87524-0.83432-1.5476-0.37606-0.6731-1.4996-1.3959-1.966-1.6923-0.46566-0.29704-0.83255-0.68404-1.464-1.2838-0.63042-0.59937-1.9611-0.90099-2.5502-0.97825-0.58844-0.07796-0.99731 0.12206-1.2887 0.08255-0.0183-0.0028-0.0374-0.0046-0.0554-6e-3 -0.28681-0.02223-0.66146 0.06068-0.72284 0.05715-0.0667-0.0049-0.28116-0.16475-0.39123-0.25929-0.11148-0.09278-0.20249-0.05503-0.45791-0.29069-0.25611-0.23636-0.29915-0.18168-0.48859-0.21908-0.1898-0.03704-0.39547-0.19226-0.56974-0.39194-0.17427-0.20002-0.30762-0.4886-0.38488-0.67733-0.078-0.18874-0.0589-0.20073-0.19755-0.34466-0.13794-0.14464-0.45862-0.04727-0.52952 0.01517-0.0698 0.06068-0.16581 0.13652-0.24977 0.14323-0.0847 0.0085-0.26035-0.0039-0.3422-0.01164-0.0258-0.0028-0.049 0.0042-0.0705 0.01517-2e-3 7.06e-4 -0.0184 0.0056-0.0328 0.02152-0.0293 0.02469-0.0515 0.05715-0.066 0.08678-0.0123-0.01799-0.0247-0.03104-0.0381-0.04198-6e-3 -0.0056-0.0123-0.0099-0.0194-0.01446-4e-3 -0.0021-8e-3 -0.0042-0.012-0.0071-8e-3 -0.0035-0.0152-0.0074-0.024-0.01023-4e-3 -7.06e-4 -8e-3 -0.0014-0.0127-0.0021-0.01-0.0021-0.0205-0.0028-0.0311-0.0028-0.0113 0-0.0219 0.0014-0.0307 0.0028l-3.5e-4 -0.0028s-5e-3 0.0028-0.0127 0.0063c-0.0102 0.0042-0.018 0.0067-0.0222 0.0095-0.0102 0.0078-0.061 0.03387-0.11289 0.05786-1e-3 7.06e-4 -3e-3 0.0014-4e-3 0.0021-4e-3 7.06e-4 -0.0102 0.0035-0.0183 0.0085-0.0138 0.0053-0.0279 0.01164-0.0402 0.01623-0.0356 0.0127-0.0833 0.01517-0.13652-0.01517-0.0198-0.01305-0.0392-0.03034-0.0589-0.04939-7e-3 -0.0078-0.0145-0.01376-0.0215-0.02364v7.06e-4c-0.0176-0.01693-0.0335-0.03704-0.0483-0.05503-0.0645-0.08396-0.1397-0.15169-0.22754-0.12806-0.0875 0.02187-0.18415 0.17709-0.21166 0.23495-0.0286 0.05786-0.23143 0.33338-0.38841 0.50377-0.15699 0.17004-0.37324 0.08996-0.5401 0.05362-0.16757-0.03528-0.35278 0.09243-0.35278 0.09243-7e-3 -0.0071-0.11324 0.01023-0.11395 0.0074 0 0-0.0176-0.0074-0.0201-0.0067-0.0145 0.01023-0.0236 0.04727-0.0399 0.05997-5e-3 0.0032-5e-3 0.01905-0.0102 0.02258-0.0145 0.01164-0.0286 0.03034-0.0444 0.04269-6e-3 0.0056-0.0113 0.01376-0.0176 0.0187-0.0148 0.01235-0.03 0.02752-0.0448 0.04127-8e-3 0.0063-0.0152 0.01305-0.0233 0.02081-0.0148 0.01235-0.0296 0.02681-0.0448 0.04057-8e-3 0.0081-0.0169 0.01587-0.0265 0.02399-0.0148 0.01376-0.0289 0.02752-0.0437 0.04198-0.01 0.0092-0.0198 0.0187-0.0296 0.02822l-0.0423 0.04163c-0.0106 0.01023-0.0219 0.02117-0.0328 0.0321-0.0134 0.01376-0.0268 0.02716-0.0402 0.04092-0.012 0.01235-0.0243 0.02399-0.0356 0.03634-0.013 0.01305-0.0247 0.0254-0.0381 0.03916-0.0123 0.0134-0.0247 0.02646-0.037 0.03951-0.012 0.01235-0.0243 0.0254-0.0356 0.03704-0.0131 0.01517-0.0265 0.02893-0.0399 0.04339-0.0102 0.01164-0.0208 0.02293-0.0307 0.03387-0.0145 0.01658-0.0296 0.03316-0.0437 0.04974-8e-3 0.0088-0.0166 0.01834-0.0254 0.02752-0.0219 0.0254-0.0437 0.05009-0.0642 0.07444-0.34819 0.40711-0.70838 1.2933-0.59126 2.0764 0.11642 0.78281 0.62371 1.4863 1.1123 1.8997 0.48895 0.41275 0.72954 0.50871 0.95532 0.60078 0.22578 0.09313 0.47837 0.17851 0.66393 0.17357 0.18627-0.0053 0.32808-0.15064 0.37253-0.20461 0.0427-0.05433 0.1517-0.16263 0.1517-0.16263s0.0628 0.02011 0.12382 0.06209c0.0614 0.04127 0.10478 0.12418 0.23072 0.11254 0.12735-0.01129 0.15169-0.14005 0.26317-0.26282 0.11218-0.12241 0.15769-0.17004 0.18909-0.21414 0.0321-0.0441 0.13159-0.24306 0.14111-0.28857 0.01-0.04621 0.14746-0.18274 0.23037-0.2473 0.0843-0.06491 0.0847-0.23107 0.1471-0.23918 7e-3 -0.0021 0.0166-0.0035 0.0261-0.0056 0.072-0.01446 0.20214-0.05221 0.29422-0.06385-0.30868 0.61242-0.24907 1.1733-0.1584 1.5247 0.0914 0.35066 0.0395 0.4004 0.0589 0.69709 0.0194 0.29774 0.14605 0.67451 0.16581 0.74895 0.0187 0.07444-0.13864 0.57538-0.17075 1.1169-0.0321 0.54116 0.10901 1.4196 0.11325 1.627 3e-3 0.20814 0.0628 0.40852 0.0476 0.43392-0.0155 0.0254-0.0734 0.21378-0.0882 0.32526-0.12277 0.21908-0.46955 1.0721-0.62548 1.8609-0.15487 0.78987-0.25012 1.9106-0.27869 2.1347-0.0279 0.2226-0.14817 0.77717-0.27376 1.0164-0.12418 0.23848-0.13476 0.45755-0.15557 0.63606-0.20814 0.06809-0.393 0.20673-0.47872 0.30162-0.0854 0.09384-0.22472 0.22684-0.25788 0.24483-0.0335 0.01764-0.16828 0.09137-0.21626 0.12806-0.16862 0.03034-0.32349 0.04057-0.42686 0.03845-0.0141-0.0025-0.0282-0.0053-0.0406-0.0088-0.0727-0.02011-0.14464-0.02223-0.21096-0.0187-0.0603-7.06e-4 -0.13088 0.0028-0.2039 0.01164-0.14711 0.01658-0.46003 0.0042-0.5267 0.02152-0.0346 0.0088-0.12418 0.02258-0.20426 0.06209-0.0995 0.03986-0.17533 0.11148-0.14429 0.23954 0.0438 0.19015 0.29845 0.1531 0.49954 0.1531 0.20214 7.06e-4 0.39899 0.03669 0.73378 0.1076 0.3115 0.06597 0.39616 0.05997 0.4452 0.14817-3e-3 -0.0028-7e-3 -0.0056-0.0109-0.0092 0.0219 0.0635 0.0286 0.12065-0.0586 0.17568-0.0395 0.02011-0.0861 0.0381-0.13017 0.05786-0.0529 0.01799-0.0998 0.03245-0.14323 0.04621-0.0815 0.02081-0.16122 0.03528-0.21731 0.06209-0.0325 0.01588-0.0776 0.0448-0.13088 0.07937-0.0243 0.01235-0.0501 0.02681-0.0773 0.04198-0.15205 0.08678-0.37006 0.18662-0.53657 0.26317-8e-3 0.0035-0.0169 0.0074-0.0247 0.01094-0.078 0.03598-0.14287 0.06562-0.18133 0.08396-0.11042 0.05539-0.30374 0.15593-0.24588 0.35772-3.6e-4 -0.0074-3.6e-4 -0.01517-3.6e-4 -0.02258 0.01 0.06809 0.0487 0.13229 0.10196 0.18027 0.11888 0.10901 0.35172-0.04798 0.45296-0.12241 7e-3 -0.0049 0.0166-0.01129 0.0258-0.01658 0.0808-0.02611 0.17568-0.06068 0.27128-0.09454 0.3175-0.10866 0.73096-0.21908 1.0368-0.3429 0.0166 0.01164 0.0423 0.02469 0.0716 0.03634-3e-3 0-7e-3 -7.05e-4 -7e-3 -7.05e-4s9e-3 0.0021 0.0233 0.0063c0.0222 0.0081 0.0462 0.01517 0.0695 0.01905 0.0399 0.01305 0.0794 0.02752 0.0815 0.03739-3e-3 6e-3 -6e-3 0.01305-0.0116 0.02046-0.0497 0.06491-0.24835 0.25718-0.32879 0.32738-0.0942 0.08149-0.20884 0.16969-0.27199 0.25788-0.0635 0.08819-0.12806 0.25541-0.21484 0.3369-0.0875 0.07973-0.38841 0.41734-0.49636 0.58208-0.0201 0.03034-0.0282 0.06209-0.031 0.09454-0.0152 0.07373 6e-3 0.13829 0.066 0.21766 0.0303 0.03986 0.0684 0.05997 0.10936 0.06738 0.0162 0.0063 0.0339 0.0099 0.0497 0.0085-3e-3 -0.0014-5e-3 -0.0042-7e-3 -0.0063 0.10937-0.0014 0.22649-0.07373 0.266-0.10548 0.0593-0.04939 0.28399-0.34784 0.32385-0.38171 0.0381-0.03422 0.21731-0.21484 0.32702-0.30586 0.11148-0.09172 0.22578-0.16933 0.30304-0.26106 0.0762-0.09243 0.13723-0.09842 0.22684-0.16051 0.0698-0.04762 0.18803-0.1083 0.28645-0.17039 0.0296-0.01764 0.0575-0.03704 0.0773-0.05362 0.0579 0.17498 0.0138 0.34713-0.061 0.47484-0.0748 0.12735-0.12418 0.43603-0.17427 0.54892-0.0494 0.11395-0.27517 0.6036-0.29246 0.76024-0.0145 0.12735 0.084 0.19614 0.21943 0.20743 4e-3 0 7e-3 3.53e-4 0.0106 0.0011 0.018 0.0028 0.0346 0.0021 0.0512-7.05e-4 0.0109 0 0.0212 0 0.0314-0.0011-3e-3 -0.0014-6e-3 -0.0021-0.01-0.0035 0.13688-0.03951 0.21378-0.23777 0.27199-0.34819 0.0677-0.12735 0.12806-0.30162 0.24553-0.4759 0.11818-0.17498 0.16616-0.34114 0.23284-0.5842 0.0286 0.0039 0.0607 0 0.0935-0.0078 0.0367-0.0035 0.0762-0.02011 0.12242-0.04621 0.0896-0.04551 0.17991-0.11148 0.25682-0.17427 0.2473-0.17498 0.24871-0.19579 0.57997-0.37606 0.17321-0.09454 0.2667-0.16334 0.34889-0.22401 0.0229 0.02963 0.0751 0.08749 0.1771 0.14464 0.1464 0.0822 0.44026 0.12559 0.62441 0.14958 0.18415 0.02469 0.3235-0.14111 0.32773-0.27622 2e-3 -0.13582-0.0935-0.19226-0.23389-0.23213-0.1404-0.04092-0.19685-0.07444-0.37006-0.18768 0.0497-0.01235 0.17356-0.10266 0.254-0.17357 0.0452-0.01658 0.0942-0.03175 0.14393-0.04833 0.3242-7.05e-4 0.42439-0.12241 0.45791-0.19685 0.0624-0.14605-0.0191-0.23989-0.13335-0.3302 0.0903-0.0695 0.20461-0.28575 0.3175-0.50976 0.0134-0.02222 0.0254-0.04269 0.0374-0.06209 0.0229-0.03916 0.0385-0.07655 0.0515-0.11218 0.0109-0.02152 0.0215-0.04339 0.0328-0.0635 0.14993-0.28857 0.18979-0.76482 0.26176-1.1913 0.0713-0.42651 0.31185-0.99766 0.50306-1.4263 0.19085-0.42862 0.34254-0.78458 0.45367-1.1356 0.11042-0.35066 0.12382-0.85302 0.21661-1.2711 0.0935-0.41769 0.10442-0.46849 0.1337-0.57679 0.0296-0.10795 0.024-0.2025 0.0212-0.26952-3e-3 -0.06668 0.0621-0.27552 0.18451-0.67698 0.121-0.4004 0.1972-1.0668 0.23036-1.4256 0.0339-0.35913 0.0377-0.66781 0.0377-0.66781s0.37218 0.27905 0.65899 0.36019c0.28751 0.08149 0.69638 0.1016 0.79904 0.10478 0.10195 0.0035 0.25682 0.11042 0.35419 0.242 0.2219 0.70979 0.35348 0.68016 0.49001 0.66957 0.0455 0.57891 0.26282 0.51894 0.3369 0.54786 0.0751 0.02893 0.1203 0.01658 0.12947 0.12947-0.0787 0.17427-0.0935 0.56162-0.0826 0.75106 0.0106 0.18874 0.16087 0.32314 0.26917 0.37148-6e-3 0.0074-0.0138 0.01729-0.0201 0.02822-0.0804 0.13582-0.14534 0.51329-0.10936 0.62018-0.0794 0.13582-0.0762 0.2981-0.0836 0.41487-0.0727 0.01905-0.10231 0.16122-0.10724 0.21978-3e-3 0.05644 0.0459 0.28434 0.0293 0.45261-0.0395 0.10266-0.0607 0.19085-0.0268 0.22331-3e-3 0.07514 3e-3 0.15346 0.0318 0.26599 0.0536 0.20638 0.19367 0.48683 0.33513 0.95885 0.14217 0.47202 0.33973 0.93909 0.5768 1.4065 0.236 0.46567 0.0942 0.39688 0.17109 0.69356 0.0773 0.29704 0.11078 0.39441 0.0529 0.68721-0.0582 0.29351 0.20673 0.42651 0.32985 0.60537 0.12312 0.17921 0.20002 0.39899 0.15416 0.59337-0.0448 0.19438-0.16263 0.58984-0.10089 0.97719 0.0617 0.38629-0.0152 0.82938-0.0885 1.2132-0.073 0.38382-0.0363 0.7105 0.0579 0.88688 0.0942 0.1778 0.27588 0.36089 0.41875 0.68827 0.14323 0.32738 0.36477 0.44309 0.3743 0.47872 9e-3 0.03598-0.26106 0.54786-0.3556 0.55351-0.0952 0.0053-0.41346 0.1838-0.90452 0.43674-0.49142 0.25153-0.74542 1.0093-0.97684 1.3381-0.23143 0.32949-0.90417 1.4344-1.0809 1.8644-0.17603 0.42933-0.38593 0.65722-0.54962 0.98742-0.16369 0.33055-0.24095 0.514-0.44733 0.60572-0.20637 0.09207-0.32349 0.08396-0.52563 0.23283-0.20109 0.14817-0.0949 0.18732-0.28364 0.23636-0.18909 0.04939-0.52281 0.24095-0.65652 0.43004-0.1337 0.18803-0.11853 0.35736-0.37535 0.54892-0.25788 0.19156-0.30904 0.47413-0.26988 0.62724-0.3623 0.04586-0.62336 0.33479-0.70767 0.71155-0.0847 0.37677 0.36618 1.5946 0.49177 2.0031 0.12594 0.40852 0.3041 1.2079 0.45579 2.0133 0.0314 0.16545 0.0829 0.32738 0.14781 0.48295 0.11007 0.29281 0.27059 0.59338 0.50554 0.8509 0.1725 0.22402 0.34889 0.41346 0.49036 0.55739 0.37747 0.38171 0.90558 0.41769 1.2065 0.32033 0.41839-0.2286 0.43356-0.79093 0.37712-1.185-2e-3 -0.0187-5e-3 -0.0363-8e-3 -0.0536 4e-3 0.0131 8e-3 0.0296 0.0145 0.0455 3e-3 7e-3 5e-3 0.0138 8e-3 0.0198 3e-3 0.0106 7e-3 0.0201 0.0113 0.0303 0.12841 0.3115 0.52952 0.95038 0.77964 1.1522 0.27975 0.22507 0.44979 0.0653 0.60784-0.0236 0.3115-0.35877 0.1337-0.9659 0.0892-1.1366-0.0444-0.1711-0.12594-0.48507-0.0667-0.66428 0.0593-0.1778 0.0942-0.30303 0.0751-0.375-0.018-0.0723-0.018-0.29281 0.0459-0.45331 0.0635-0.16051 0.0289-0.25681 0.06-0.32243 0.0272-0.0579 0.0511-0.1605 0.0843-0.27622-0.0575 0.21978-0.0346 0.46496-0.0346 0.46496l0.11148-0.0102s0.0441-0.42368 0.0607-0.58137c0.44309 0.37393 0.48789-0.0787 0.40569-0.17322-0.0818-0.0935-0.12382-0.25541-0.15169-0.36371-0.0282-0.1076 0.019-0.14958 0.0272-0.26599 0.23813-0.0811 0.23636-0.2727 0.16722-0.38912 0.0148-0.02152 0.0286-0.04092 0.0402-0.06068 4e-3 -0.0056 6e-3 -0.01164 0.01-0.01729 8e-3 -0.01446 0.0152-0.02752 0.0219-0.04057 2e-3 -0.0063 6e-3 -0.01164 8e-3 -0.01799 7e-3 -0.01446 0.0123-0.02681 0.0169-0.03986 1e-3 -0.0042 4e-3 -0.0092 5e-3 -0.01235 6e-3 -0.01729 0.0113-0.03316 0.0148-0.04904 0-0.0021 3.6e-4 -0.0049 1e-3 -0.0071 2e-3 -0.01305 4e-3 -0.02611 6e-3 -0.03704 3.5e-4 -0.0049 3.5e-4 -0.0095 1e-3 -0.01446 3.6e-4 -0.0092 3.6e-4 -0.01799 3.6e-4 -0.02611v-0.01446l-3e-3 -0.02505c-7e-4 -0.0025-1e-3 -0.0067-2e-3 -0.01023-2e-3 -0.01023-5e-3 -0.02011-8e-3 -0.02893-2e-3 -0.0042-4e-3 -0.0088-6e-3 -0.01376-2e-3 -0.0042-4e-3 -0.0078-7e-3 -0.01164-3e-3 -0.0049-5e-3 -0.0092-8e-3 -0.01376-2e-3 -0.0021-3e-3 -0.0042-5e-3 -0.0071-0.0183-0.02328-0.0395-0.03916-0.0617-0.04621-0.0254-0.0081-0.0286-0.01305-0.049 0.0014 0 0-0.4438-0.1397-0.4445-0.14393l-7.1e-4 -0.0028c-0.0134-0.0508-0.0102-0.09031-0.0102-0.09031 0.22931-0.11712 0.21237-0.28116 0.23742-0.46002 0.0254-0.17992 0.18874-0.19297 0.43321-0.41557 0.24518-0.22119 0.21167-0.17039 0.5775-0.48013 0.36583-0.3115 0.2032-0.54257 0.33725-1.0241 0.13406-0.48154 0.0854-0.55527 0.39335-0.92322 0.30727-0.36795 0.36054-0.3817 0.7687-0.86184 0.40852-0.48119 0.90382-1.3437 0.97685-1.5071 0.0296-0.06526 0.0762-0.13758 0.14993-0.22119-3.6e-4 0.0035-2e-3 0.0078-2e-3 0.01058 0.0526-0.05186 0.10407-0.10478 0.1531-0.15946 0.0991-0.08749 0.22684-0.18662 0.38947-0.2981 0.44062-0.30198 0.62124-0.43498 0.94262-0.8061 0.32103-0.37148 0.65546-0.74648 0.82973-1.131 0.1711-0.37606 0.32844-0.89747 0.46532-1.4517 0.13617-0.55457 0.12841-1.8052 0.13652-2.3834 8e-3 -0.57714 0.0755-0.62406 0.0991-1.0037 0.0229-0.381 0.0434-0.60995 0.14782-1.0689 0.10407-0.45861 0.14781-1.1183 0.0508-1.9636-0.097-0.84667-0.12206-0.96943-0.066-1.5021 0.0561-0.5334-0.0557-1.239-0.17427-1.4753" fill="#b4b4b4" stroke="#aaa"/>
   </g>
  </g>
 </g>
</svg>
